<svg xmlns="http://www.w3.org/2000/svg" viewBox="0 0 70.87 83.37"><defs><style>.cls-1{fill:#1d1d1b;}</style></defs><title>Middel 5</title><g id="Laag_2" data-name="Laag 2"><g id="Laag_1-2" data-name="Laag 1"><path class="cls-1" d="M4.48,0V18.52H0V0Z"/><path class="cls-1" d="M38,0,33.55,18.52H28L25,6.13l-3,12.39H16.5L12.07,0h4.87l2.39,13.41L22.57,0h4.9l3.25,13.41L33.13,0Z"/><path class="cls-1" d="M44.81,0V18.52H40.33V0Z"/><path class="cls-1" d="M52.38,15.08h6v3.44H47.9V0h4.48Z"/><path class="cls-1" d="M64.89,15.08h6v3.44H60.42V0h4.47Z"/><path class="cls-1" d="M14,21.51l-2.4,10h-3L7,24.83,5.41,31.54h-3L0,21.51H2.64l1.29,7.26,1.76-7.26H8.35l1.76,7.26,1.3-7.26Z"/><path class="cls-1" d="M17.74,23.44v2.1h3.39v1.83H17.74V29.6h3.82v1.94H15.31v-10h6.25v1.93Z"/><path class="cls-1" d="M25.36,29.68H28.6v1.86H22.94v-10h2.42Z"/><path class="cls-1" d="M37.48,22.41a4.63,4.63,0,0,1,1.62,2.73H36.53a2.36,2.36,0,0,0-.87-1.09,2.4,2.4,0,0,0-1.4-.4,2.14,2.14,0,0,0-1.72.78,3.19,3.19,0,0,0-.65,2.09,3.16,3.16,0,0,0,.65,2.08,2.16,2.16,0,0,0,1.72.77,2.4,2.4,0,0,0,1.4-.4,2.33,2.33,0,0,0,.87-1.08H39.1a4.64,4.64,0,0,1-1.62,2.72,4.89,4.89,0,0,1-3.18,1A5,5,0,0,1,31.74,31,4.33,4.33,0,0,1,30,29.17a6.08,6.08,0,0,1,0-5.31,4.39,4.39,0,0,1,1.71-1.81,5.5,5.5,0,0,1,5.74.36Z"/><path class="cls-1" d="M47.81,22a4.78,4.78,0,0,1,1.82,1.83,5.58,5.58,0,0,1,0,5.3A4.83,4.83,0,0,1,47.8,31a5.31,5.31,0,0,1-5.13,0,4.83,4.83,0,0,1-1.83-1.84,5.58,5.58,0,0,1,0-5.3A4.87,4.87,0,0,1,42.67,22a5.33,5.33,0,0,1,5.14,0Zm-4.47,2.37a3,3,0,0,0-.7,2.11,3,3,0,0,0,.7,2.1,2.68,2.68,0,0,0,3.78,0,3,3,0,0,0,.71-2.1,3,3,0,0,0-.7-2.1,2.7,2.7,0,0,0-3.79,0Z"/><path class="cls-1" d="M63,21.58v10H60.52V25.31l-2.16,6.23h-2.1L54.09,25.3v6.24H51.66v-10h3l2.71,6.94L60,21.58Z"/><path class="cls-1" d="M67.05,23.44v2.1h3.39v1.83H67.05V29.6h3.82v1.94H64.62v-10h6.25v1.93Z"/><path class="cls-1" d="M15.94,66.56H7.3l-1.43,4.3H0L8.44,47.45h6.42l8.45,23.41H17.37ZM14.5,62.22l-2.86-8.67-2.9,8.67Z"/><path class="cls-1" d="M45.93,70.86H40.35L31,56.39V70.86H25.46V47.29H31l9.32,14.6V47.29h5.58Z"/><path class="cls-1" d="M69.05,65.17a10.32,10.32,0,0,1-4.17,4.19,13.09,13.09,0,0,1-6.41,1.5h-8.7V47.29h8.7a13.42,13.42,0,0,1,6.43,1.46,10.15,10.15,0,0,1,4.15,4.14,13.72,13.72,0,0,1,0,12.28Zm-6-1.18a6.61,6.61,0,0,0,1.81-5,6.59,6.59,0,0,0-1.81-5A6.92,6.92,0,0,0,58,52.29H55.34V65.76H58A6.92,6.92,0,0,0,63.05,64Z"/><path class="cls-1" d="M8,74.69a4.35,4.35,0,0,1,1.62,2.57H7.08a2.25,2.25,0,0,0-.87-1,2.54,2.54,0,0,0-1.39-.38,2.17,2.17,0,0,0-1.71.74,3.28,3.28,0,0,0,0,3.92,2.18,2.18,0,0,0,1.71.72,2.53,2.53,0,0,0,1.39-.37,2.28,2.28,0,0,0,.87-1H9.64A4.38,4.38,0,0,1,8,82.4a5.05,5.05,0,0,1-3.16.95,5.29,5.29,0,0,1-2.56-.6,4.28,4.28,0,0,1-1.7-1.7,5.51,5.51,0,0,1,0-5,4.28,4.28,0,0,1,1.7-1.7,5.29,5.29,0,0,1,2.56-.61A5.11,5.11,0,0,1,8,74.69Z"/><path class="cls-1" d="M16.12,83.27,14,79.71h-.55v3.56H11V73.84h4.13a4.76,4.76,0,0,1,2,.38,2.77,2.77,0,0,1,1.23,1.07,2.84,2.84,0,0,1,.41,1.54,2.66,2.66,0,0,1-.6,1.75,3,3,0,0,1-1.74,1l2.37,3.71Zm-2.71-5.12H14.9a1.54,1.54,0,0,0,1.06-.3A1.12,1.12,0,0,0,16.3,77a1.14,1.14,0,0,0-.34-.88,1.53,1.53,0,0,0-1.06-.32H13.41Z"/><path class="cls-1" d="M22.39,73.84v9.43H20V73.84Z"/><path class="cls-1" d="M31.24,73.84v1.81H28.52v7.62H26.09V75.65H23.41V73.84Z"/><path class="cls-1" d="M34.67,73.84v9.43H32.25V73.84Z"/><path class="cls-1" d="M44.06,74.69a4.35,4.35,0,0,1,1.62,2.57H43.12a2.25,2.25,0,0,0-.87-1,2.51,2.51,0,0,0-1.39-.38,2.17,2.17,0,0,0-1.71.74,3.28,3.28,0,0,0,0,3.92,2.18,2.18,0,0,0,1.71.72,2.51,2.51,0,0,0,1.39-.37,2.28,2.28,0,0,0,.87-1h2.56a4.38,4.38,0,0,1-1.62,2.56,5.05,5.05,0,0,1-3.16.95,5.29,5.29,0,0,1-2.56-.6,4.28,4.28,0,0,1-1.7-1.7,5.51,5.51,0,0,1,0-5,4.28,4.28,0,0,1,1.7-1.7,5.29,5.29,0,0,1,2.56-.61A5.11,5.11,0,0,1,44.06,74.69Z"/><path class="cls-1" d="M49.45,73.84v9.43H47V73.84Z"/><path class="cls-1" d="M57.89,82a2.69,2.69,0,0,1-1.19,1,4.35,4.35,0,0,1-1.9.38A4.65,4.65,0,0,1,52,82.59a2.73,2.73,0,0,1-1.18-2.16h2.57a1.24,1.24,0,0,0,.4.84,1.26,1.26,0,0,0,.88.31,1.08,1.08,0,0,0,.74-.24.81.81,0,0,0,.27-.64.82.82,0,0,0-.25-.6,2.14,2.14,0,0,0-.62-.4c-.24-.1-.58-.22-1-.36a14.17,14.17,0,0,1-1.55-.6,2.78,2.78,0,0,1-1-.85,2.66,2.66,0,0,1,0-2.93A2.86,2.86,0,0,1,52.52,74a4.74,4.74,0,0,1,1.83-.33,4.28,4.28,0,0,1,2.65.75,2.83,2.83,0,0,1,1.11,2H55.49a1.19,1.19,0,0,0-.36-.74,1.25,1.25,0,0,0-1.47-.06.8.8,0,0,0-.26.63.78.78,0,0,0,.24.57,1.88,1.88,0,0,0,.58.38c.24.1.58.22,1,.37a12.68,12.68,0,0,1,1.57.61,3,3,0,0,1,1,.87,2.37,2.37,0,0,1,.44,1.5A2.44,2.44,0,0,1,57.89,82Z"/><path class="cls-1" d="M70.87,73.9v9.37H68.45V77.42L66.3,83.27H64.21L62.05,77.4v5.87H59.63V73.9h3l2.7,6.53,2.64-6.53Z"/><path class="cls-1" d="M6.39,34.57v1.89h-4V38.6h3.1v1.81H2.37v4H0v-9.8Z"/><path class="cls-1" d="M10,36.46v2h3.31v1.78H10v2.18H13.7v1.9H7.61v-9.8H13.7v1.89Z"/><path class="cls-1" d="M17.42,36.46v2h3.31v1.78H17.42v2.18h3.73v1.9h-6.1v-9.8h6.1v1.89Z"/><path class="cls-1" d="M30.69,42a4.39,4.39,0,0,1-1.78,1.74,5.72,5.72,0,0,1-2.72.62h-3.7v-9.8h3.7a5.85,5.85,0,0,1,2.73.61,4.26,4.26,0,0,1,1.77,1.72,5.17,5.17,0,0,1,.61,2.55A5.24,5.24,0,0,1,30.69,42Zm-2.55-.49a2.74,2.74,0,0,0,.77-2.07,2.7,2.7,0,0,0-.77-2.06A3,3,0,0,0,26,36.65H24.86v5.6H26A3.05,3.05,0,0,0,28.14,41.52Z"/><path class="cls-1" d="M39.93,40.18a2.35,2.35,0,0,1,.52,1.51,2.42,2.42,0,0,1-.84,2,3.64,3.64,0,0,1-2.4.71H32.65v-9.8H37.1a3.67,3.67,0,0,1,2.31.65,2.24,2.24,0,0,1,.82,1.86,2.34,2.34,0,0,1-.47,1.48,2.22,2.22,0,0,1-1.24.77A2.44,2.44,0,0,1,39.93,40.18ZM35,38.58h1.55c.82,0,1.23-.35,1.23-1.06s-.42-1.05-1.26-1.05H35Zm3,2.78a1,1,0,0,0-.34-.82,1.46,1.46,0,0,0-1-.3H35v2.2h1.69C37.59,42.44,38,42.08,38,41.36Z"/><path class="cls-1" d="M47.77,42.58H44.09l-.61,1.79H41l3.59-9.73h2.73l3.59,9.73H48.38Zm-.61-1.8-1.22-3.6-1.24,3.6Z"/><path class="cls-1" d="M59.39,35.46A4.53,4.53,0,0,1,61,38.12H58.46a2.32,2.32,0,0,0-.85-1.07,2.36,2.36,0,0,0-1.36-.39,2.07,2.07,0,0,0-1.68.77,3.54,3.54,0,0,0,0,4.06,2.06,2.06,0,0,0,1.68.76,2.36,2.36,0,0,0,1.36-.39,2.31,2.31,0,0,0,.85-1H61a4.54,4.54,0,0,1-1.58,2.65,4.78,4.78,0,0,1-3.1,1,4.9,4.9,0,0,1-2.51-.63,4.29,4.29,0,0,1-1.67-1.76,6,6,0,0,1,0-5.19,4.29,4.29,0,0,1,1.67-1.76,4.9,4.9,0,0,1,2.51-.64A4.78,4.78,0,0,1,59.39,35.46Z"/><path class="cls-1" d="M66.92,39.37l4,5H68L64.67,40v4.39H62.3v-9.8h2.37v4.31L68,34.57h2.84Z"/></g></g></svg>