<svg xmlns="http://www.w3.org/2000/svg" viewBox="0 0 70.97 56.07"><defs><style>.cls-1{fill:#1d1d1b;}.cls-2{fill:#949ed0;}</style></defs><title>Middel 16</title><g id="Laag_2" data-name="Laag 2"><g id="Laag_1-2" data-name="Laag 1"><path class="cls-1" d="M4.48,0V18.52H0V0Z"/><path class="cls-1" d="M38,0,33.55,18.52H28L25,6.13l-3,12.39H16.5L12.07,0h4.87l2.39,13.41L22.57,0h4.9l3.25,13.41L33.13,0Z"/><path class="cls-1" d="M44.81,0V18.52H40.33V0Z"/><path class="cls-1" d="M52.38,15.08h6v3.44H47.9V0h4.48Z"/><path class="cls-1" d="M64.89,15.08h6v3.44H60.42V0h4.47Z"/><path class="cls-2" d="M14,21.51l-2.4,10h-3L7,24.83,5.41,31.54h-3L0,21.51H2.64l1.29,7.26,1.76-7.26H8.35l1.76,7.26,1.3-7.26Z"/><path class="cls-2" d="M17.74,23.44v2.1h3.39v1.83H17.74V29.6h3.82v1.94H15.31v-10h6.25v1.93Z"/><path class="cls-2" d="M25.36,29.68H28.6v1.86H22.94v-10h2.42Z"/><path class="cls-2" d="M37.48,22.41a4.63,4.63,0,0,1,1.62,2.73H36.53a2.36,2.36,0,0,0-.87-1.09,2.4,2.4,0,0,0-1.4-.4,2.11,2.11,0,0,0-1.71.78,3.14,3.14,0,0,0-.66,2.09,3.11,3.11,0,0,0,.66,2.08,2.13,2.13,0,0,0,1.71.77,2.4,2.4,0,0,0,1.4-.4,2.33,2.33,0,0,0,.87-1.08H39.1a4.64,4.64,0,0,1-1.62,2.72,4.88,4.88,0,0,1-3.17,1A5,5,0,0,1,31.74,31,4.33,4.33,0,0,1,30,29.17a6.08,6.08,0,0,1,0-5.31,4.39,4.39,0,0,1,1.71-1.81,5,5,0,0,1,2.57-.64A4.93,4.93,0,0,1,37.48,22.41Z"/><path class="cls-2" d="M47.81,22a4.78,4.78,0,0,1,1.82,1.83,5.58,5.58,0,0,1,0,5.3A4.83,4.83,0,0,1,47.8,31a5.31,5.31,0,0,1-5.13,0,4.83,4.83,0,0,1-1.83-1.84,5.58,5.58,0,0,1,0-5.3A4.87,4.87,0,0,1,42.67,22a5.33,5.33,0,0,1,5.14,0Zm-4.47,2.37a3,3,0,0,0-.7,2.11,3,3,0,0,0,.7,2.1,2.68,2.68,0,0,0,3.78,0,3,3,0,0,0,.71-2.1,3,3,0,0,0-.7-2.1,2.7,2.7,0,0,0-3.79,0Z"/><path class="cls-2" d="M63,21.58v10H60.52V25.31l-2.16,6.23h-2.1L54.09,25.3v6.24H51.66v-10h3l2.71,6.94L60,21.58Z"/><path class="cls-2" d="M67.05,23.44v2.1h3.39v1.83H67.05V29.6h3.82v1.94H64.62v-10h6.25v1.93Z"/><path class="cls-2" d="M6.39,34.57v1.89h-4V38.6h3.1v1.81H2.37v4H0v-9.8Z"/><path class="cls-2" d="M10,36.46v2h3.31V40.3H10v2.17H13.7v1.9H7.61v-9.8H13.7v1.89Z"/><path class="cls-2" d="M17.42,36.46v2h3.31V40.3H17.42v2.17h3.73v1.9h-6.1v-9.8h6.1v1.89Z"/><path class="cls-2" d="M30.69,42a4.39,4.39,0,0,1-1.78,1.74,5.72,5.72,0,0,1-2.72.62h-3.7v-9.8h3.7a5.73,5.73,0,0,1,2.73.61,4.26,4.26,0,0,1,1.77,1.72,5.17,5.17,0,0,1,.61,2.55A5.24,5.24,0,0,1,30.69,42Zm-2.55-.5a3.15,3.15,0,0,0,0-4.13A3,3,0,0,0,26,36.65H24.86v5.6H26A3,3,0,0,0,28.14,41.51Z"/><path class="cls-2" d="M39.93,40.18a2.35,2.35,0,0,1,.52,1.51,2.42,2.42,0,0,1-.84,2,3.64,3.64,0,0,1-2.4.71H32.65v-9.8H37.1a3.67,3.67,0,0,1,2.31.65,2.24,2.24,0,0,1,.82,1.86,2.34,2.34,0,0,1-.47,1.48,2.15,2.15,0,0,1-1.24.76A2.51,2.51,0,0,1,39.93,40.18ZM35,38.58h1.55c.82,0,1.23-.35,1.23-1.06s-.42-1.05-1.26-1.05H35Zm3,2.78a1,1,0,0,0-.34-.82,1.46,1.46,0,0,0-1-.3H35v2.2h1.69C37.59,42.44,38,42.08,38,41.36Z"/><path class="cls-2" d="M47.77,42.58H44.09l-.61,1.79H41l3.59-9.73h2.73l3.59,9.73H48.38Zm-.61-1.8-1.22-3.6-1.24,3.6Z"/><path class="cls-2" d="M59.39,35.46A4.5,4.5,0,0,1,61,38.12H58.46a2.32,2.32,0,0,0-.85-1.07,2.36,2.36,0,0,0-1.36-.39,2.07,2.07,0,0,0-1.68.77,3.54,3.54,0,0,0,0,4.06,2.06,2.06,0,0,0,1.68.76,2.36,2.36,0,0,0,1.36-.39,2.31,2.31,0,0,0,.85-1H61a4.54,4.54,0,0,1-1.58,2.65,4.78,4.78,0,0,1-3.1,1,4.9,4.9,0,0,1-2.51-.63,4.26,4.26,0,0,1-1.67-1.77,6,6,0,0,1,0-5.18,4.23,4.23,0,0,1,1.67-1.76,4.9,4.9,0,0,1,2.51-.64A4.78,4.78,0,0,1,59.39,35.46Z"/><path class="cls-2" d="M66.92,39.37l4,5H68L64.67,40v4.39H62.3v-9.8h2.37v4.31L68,34.57h2.84Z"/><path class="cls-1" d="M17.59,48.19A3.85,3.85,0,0,1,19,50.49H16.79a2,2,0,0,0-1.92-1.26,1.8,1.8,0,0,0-1.45.66,2.65,2.65,0,0,0-.55,1.76,2.61,2.61,0,0,0,.55,1.76,1.8,1.8,0,0,0,1.45.66,2.08,2.08,0,0,0,1.18-.34,2,2,0,0,0,.74-.91H19a3.94,3.94,0,0,1-1.37,2.3,4.14,4.14,0,0,1-2.68.85,4.3,4.3,0,0,1-2.18-.54,3.79,3.79,0,0,1-1.44-1.53,5.2,5.2,0,0,1,0-4.49,3.73,3.73,0,0,1,1.44-1.53,4.3,4.3,0,0,1,2.18-.55A4.14,4.14,0,0,1,17.59,48.19Z"/><path class="cls-1" d="M24.47,55.9l-1.84-3.2h-.46v3.2H20.11V47.42h3.51a3.66,3.66,0,0,1,1.7.35,2.43,2.43,0,0,1,1.05.95,2.75,2.75,0,0,1,.34,1.39,2.47,2.47,0,0,1-.51,1.57,2.61,2.61,0,0,1-1.48.89l2,3.33Zm-2.3-4.61h1.27a1.27,1.27,0,0,0,.9-.27,1,1,0,0,0,.29-.79,1.07,1.07,0,0,0-.3-.8,1.22,1.22,0,0,0-.89-.28H22.17Z"/><path class="cls-1" d="M29.8,47.42V55.9H27.75V47.42Z"/><path class="cls-1" d="M37.31,47.42v1.63H35V55.9H32.94V49.05H30.66V47.42Z"/><path class="cls-1" d="M40.23,47.42V55.9H38.17V47.42Z"/><path class="cls-1" d="M48.2,48.19a3.85,3.85,0,0,1,1.37,2.3H47.4a2,2,0,0,0-1.92-1.26,1.8,1.8,0,0,0-1.45.66,2.65,2.65,0,0,0-.55,1.76A2.61,2.61,0,0,0,44,53.41a1.8,1.8,0,0,0,1.45.66,2.08,2.08,0,0,0,1.18-.34,2,2,0,0,0,.74-.91h2.17a3.94,3.94,0,0,1-1.37,2.3,4.14,4.14,0,0,1-2.68.85,4.24,4.24,0,0,1-2.17-.54A3.75,3.75,0,0,1,41.9,53.9a5.2,5.2,0,0,1,0-4.49,3.69,3.69,0,0,1,1.45-1.53,4.24,4.24,0,0,1,2.17-.55A4.14,4.14,0,0,1,48.2,48.19Z"/><path class="cls-1" d="M52.78,47.42V55.9H50.73V47.42Z"/><path class="cls-1" d="M60,54.75a2.4,2.4,0,0,1-1,.9,3.62,3.62,0,0,1-1.62.34,3.83,3.83,0,0,1-2.35-.7,2.5,2.5,0,0,1-1-1.94h2.18a1.1,1.1,0,0,0,.34.75,1,1,0,0,0,.75.28.84.84,0,0,0,.62-.22.71.71,0,0,0,.23-.57.73.73,0,0,0-.21-.54,1.51,1.51,0,0,0-.52-.36l-.86-.33a10.25,10.25,0,0,1-1.32-.53,2.36,2.36,0,0,1-.87-.77,2.18,2.18,0,0,1-.37-1.33,2.24,2.24,0,0,1,.38-1.3,2.52,2.52,0,0,1,1.07-.85,3.79,3.79,0,0,1,1.55-.29,3.49,3.49,0,0,1,2.25.67,2.54,2.54,0,0,1,.94,1.85H57.91a1.16,1.16,0,0,0-.3-.67.94.94,0,0,0-.67-.25.85.85,0,0,0-.58.2.68.68,0,0,0-.22.56.72.72,0,0,0,.19.51,1.64,1.64,0,0,0,.5.34c.2.09.49.2.87.34a9.06,9.06,0,0,1,1.33.54,2.66,2.66,0,0,1,.89.79,2.31,2.31,0,0,1,.37,1.34A2.34,2.34,0,0,1,60,54.75Z"/><path class="cls-1" d="M71,47.48V55.9h-2V50.63L67.09,55.9H65.32l-1.84-5.28V55.9h-2V47.48h2.51l2.29,5.87,2.24-5.87Z"/><path class="cls-1" d="M5.88,56l-1-1.19a2.45,2.45,0,0,1-.21.3,1.9,1.9,0,0,1-.77.71,2.63,2.63,0,0,1-1.18.26,3,3,0,0,1-1.47-.35,2.33,2.33,0,0,1-.95-.94A2.82,2.82,0,0,1,0,53.44a2.6,2.6,0,0,1,.55-1.71A2.12,2.12,0,0,1,2,51l-.15-.24a2.7,2.7,0,0,1-.28-.6,2,2,0,0,1-.1-.66,1.91,1.91,0,0,1,.29-1,2.06,2.06,0,0,1,.84-.75,2.94,2.94,0,0,1,1.34-.28,2.7,2.7,0,0,1,1.69.46,2.27,2.27,0,0,1,.82,1.21,3.12,3.12,0,0,1,.13,1.16H4.64a3.39,3.39,0,0,0,0-.44c0-.46-.25-.69-.67-.69a.57.57,0,0,0-.43.16.5.5,0,0,0-.16.39.82.82,0,0,0,.09.38,4.56,4.56,0,0,0,.29.44L7.94,56ZM3.45,54.1a.89.89,0,0,0,.27-.67.92.92,0,0,0-.3-.7,1,1,0,0,0-.72-.27A1,1,0,0,0,2,52.7a.9.9,0,0,0-.26.68,1,1,0,0,0,.29.72,1,1,0,0,0,.71.27A.93.93,0,0,0,3.45,54.1Z"/></g></g></svg>