<svg xmlns="http://www.w3.org/2000/svg" viewBox="0 0 70.87 39.36"><defs><style>.cls-1{fill:#1d1d1b;}</style></defs><title>Middel 4</title><g id="Laag_2" data-name="Laag 2"><g id="Laag_1-2" data-name="Laag 1"><path class="cls-1" d="M10.55.21V9.53H8.28V3.7l-2,5.83h-2l-2-5.84V9.53H0V.21H2.77L5.31,6.7,7.79.21Z"/><path class="cls-1" d="M20.22.15,17,6.41V9.53H14.69V6.41L11.43.15H14L15.84,4,17.64.15Z"/><path class="cls-1" d="M31.59,7.26a4.09,4.09,0,0,1-1.7,1.67,5.34,5.34,0,0,1-2.6.6H23.75V.15h3.54A5.47,5.47,0,0,1,29.9.73a4.07,4.07,0,0,1,1.69,1.65,4.85,4.85,0,0,1,.59,2.44A4.87,4.87,0,0,1,31.59,7.26Zm-2.44-.47a2.61,2.61,0,0,0,.74-2,2.62,2.62,0,0,0-.74-2,2.86,2.86,0,0,0-2.06-.7H26V7.5h1.08A2.86,2.86,0,0,0,29.15,6.79Z"/><path class="cls-1" d="M35.74,2v2h3.17V5.63H35.74V7.71h3.57V9.53H33.47V.15h5.84V2Z"/><path class="cls-1" d="M47,8.25a2.64,2.64,0,0,1-1.11,1,4,4,0,0,1-1.78.37,4.2,4.2,0,0,1-2.6-.77A2.76,2.76,0,0,1,40.34,6.7h2.42a1.31,1.31,0,0,0,.37.84,1.19,1.19,0,0,0,.83.3,1,1,0,0,0,.69-.24A.84.84,0,0,0,44.91,7a.81.81,0,0,0-.24-.59A1.69,1.69,0,0,0,44.1,6c-.23-.1-.55-.23-1-.37A11,11,0,0,1,41.69,5a2.61,2.61,0,0,1-1-.85,2.43,2.43,0,0,1-.41-1.46,2.51,2.51,0,0,1,.43-1.45A2.59,2.59,0,0,1,41.91.33,4.26,4.26,0,0,1,43.63,0a3.91,3.91,0,0,1,2.49.74,2.87,2.87,0,0,1,1,2.05H44.71a1.31,1.31,0,0,0-.34-.74,1,1,0,0,0-.74-.27A1,1,0,0,0,43,2a.76.76,0,0,0-.25.62.85.85,0,0,0,.22.57,1.85,1.85,0,0,0,.55.38c.22.09.54.22,1,.37a10,10,0,0,1,1.47.6,2.79,2.79,0,0,1,1,.87,2.46,2.46,0,0,1,.41,1.49A2.5,2.5,0,0,1,47,8.25Z"/><path class="cls-1" d="M50.86.15V9.53H48.59V.15Z"/><path class="cls-1" d="M59.72.92a3.63,3.63,0,0,1,1.42,2.33h-2.4a1.82,1.82,0,0,0-.73-.8,2.23,2.23,0,0,0-1.18-.3,2.19,2.19,0,0,0-1.72.72,2.8,2.8,0,0,0-.65,2,2.86,2.86,0,0,0,.68,2.06,2.57,2.57,0,0,0,1.94.71,2.39,2.39,0,0,0,1.42-.44,2.32,2.32,0,0,0,.86-1.27H56.5V4.26h4.76V6.5A4.63,4.63,0,0,1,60.41,8a4.29,4.29,0,0,1-1.49,1.14,4.78,4.78,0,0,1-2.08.43A5,5,0,0,1,54.36,9a4.23,4.23,0,0,1-1.64-1.69,5.27,5.27,0,0,1-.57-2.48,5.24,5.24,0,0,1,.57-2.48A4.11,4.11,0,0,1,54.36.66,4.78,4.78,0,0,1,56.82.05,4.65,4.65,0,0,1,59.72.92Z"/><path class="cls-1" d="M70.87,9.53H68.6L64.8,3.77V9.53H62.53V.15H64.8L68.6,6V.15h2.27Z"/><path class="cls-1" d="M19.38,12.45,16.07,26.3H11.91L9.7,17,7.47,26.3H3.31L0,12.45H3.64l1.79,10,2.43-10h3.66l2.43,10,1.8-10Z"/><path class="cls-1" d="M24.49,12.45V26.3H21.14V12.45Z"/><path class="cls-1" d="M30.15,23.74h4.47V26.3H26.8V12.45h3.35Z"/><path class="cls-1" d="M39.52,23.74H44V26.3H36.17V12.45h3.35Z"/><path class="cls-1" d="M59.75,20.39a3.3,3.3,0,0,1,.73,2.13,3.46,3.46,0,0,1-1.18,2.79,5.18,5.18,0,0,1-3.4,1H49.45V12.45h6.29a5.15,5.15,0,0,1,3.27.92A3.18,3.18,0,0,1,60.17,16a3.23,3.23,0,0,1-.67,2.09,3.06,3.06,0,0,1-1.74,1.08A3.49,3.49,0,0,1,59.75,20.39Zm-7-2.28H55c1.16,0,1.74-.49,1.74-1.48s-.6-1.49-1.78-1.49H52.8Zm4.25,3.94a1.44,1.44,0,0,0-.49-1.16,2.06,2.06,0,0,0-1.39-.42H52.8v3.11h2.39Q57.05,23.58,57.05,22.05Z"/><path class="cls-1" d="M65.59,15.12V18h4.69v2.52H65.59v3.08h5.28V26.3H62.25V12.45h8.62v2.67Z"/><path class="cls-1" d="M2.41,29.29v10H0v-10Z"/><path class="cls-1" d="M12.93,39.26H10.52l-4-6.12v6.12H4.07v-10H6.49l4,6.18V29.29h2.41Z"/><path class="cls-1" d="M22.3,30.2a4.54,4.54,0,0,1,1.61,2.7H21.36a2.33,2.33,0,0,0-.87-1.08,2.37,2.37,0,0,0-1.39-.4,2.1,2.1,0,0,0-1.7.78,3.15,3.15,0,0,0-.65,2.07,3.11,3.11,0,0,0,.65,2.07,2.12,2.12,0,0,0,1.7.77,2.45,2.45,0,0,0,1.39-.4,2.36,2.36,0,0,0,.87-1.07h2.55a4.57,4.57,0,0,1-1.61,2.7,4.86,4.86,0,0,1-3.15,1,5.09,5.09,0,0,1-2.56-.64,4.32,4.32,0,0,1-1.69-1.8,6.11,6.11,0,0,1,0-5.28,4.29,4.29,0,0,1,1.69-1.79,5,5,0,0,1,2.56-.64A4.85,4.85,0,0,1,22.3,30.2Z"/><path class="cls-1" d="M27.68,37.42h3.21v1.84H25.27v-10h2.41Z"/><path class="cls-1" d="M34.35,29.29v5.76a2.3,2.3,0,0,0,.44,1.51,1.64,1.64,0,0,0,1.29.52,1.61,1.61,0,0,0,1.29-.52,2.25,2.25,0,0,0,.45-1.51V29.29h2.41v5.76a4.77,4.77,0,0,1-.55,2.37,3.63,3.63,0,0,1-1.5,1.46,4.75,4.75,0,0,1-2.15.48,4.51,4.51,0,0,1-2.12-.48,3.42,3.42,0,0,1-1.44-1.45A5,5,0,0,1,32,35.05V29.29Z"/><path class="cls-1" d="M48.6,37.91A2.94,2.94,0,0,1,47.41,39a4.21,4.21,0,0,1-1.9.39,4.44,4.44,0,0,1-2.76-.82,2.93,2.93,0,0,1-1.18-2.28h2.56a1.37,1.37,0,0,0,.4.89,1.3,1.3,0,0,0,.89.32,1,1,0,0,0,.73-.25.9.9,0,0,0,.27-.68.85.85,0,0,0-.25-.63,1.94,1.94,0,0,0-.61-.42q-.37-.16-1-.39A11.89,11.89,0,0,1,43,34.48a3,3,0,0,1-1-.91A2.58,2.58,0,0,1,41.54,32,2.62,2.62,0,0,1,42,30.48a2.9,2.9,0,0,1,1.25-1,4.54,4.54,0,0,1,1.82-.34,4.1,4.1,0,0,1,2.65.79,3,3,0,0,1,1.1,2.17h-2.6a1.35,1.35,0,0,0-.36-.78,1.1,1.1,0,0,0-.79-.29,1,1,0,0,0-.68.22.86.86,0,0,0-.26.67.88.88,0,0,0,.23.6,2,2,0,0,0,.59.4c.23.1.57.23,1,.39a12.25,12.25,0,0,1,1.57.64,3.06,3.06,0,0,1,1,.93A2.64,2.64,0,0,1,49,36.46,2.82,2.82,0,0,1,48.6,37.91Z"/><path class="cls-1" d="M52.75,29.29v10H50.34v-10Z"/><path class="cls-1" d="M56.27,29.29l2.44,7.51,2.44-7.51h2.58l-3.47,10H57.15l-3.46-10Z"/><path class="cls-1" d="M67.07,31.21V33.3h3.37v1.82H67.07v2.21h3.8v1.93H64.66v-10h6.21v1.92Z"/></g></g></svg>