<svg xmlns="http://www.w3.org/2000/svg" viewBox="0 0 70.87 77.94"><defs><style>.cls-1{fill:#1d1d1b;}.cls-2{fill:#949ed0;}</style></defs><title>Middel 15</title><g id="Laag_2" data-name="Laag 2"><g id="Laag_1-2" data-name="Laag 1"><path class="cls-1" d="M10.55.21V9.53H8.28V3.7l-2,5.83h-2l-2-5.84V9.53H0V.21H2.77L5.31,6.7,7.79.21Z"/><path class="cls-1" d="M20.22.15,17,6.41V9.53H14.69V6.41L11.44.15H14L15.84,4,17.64.15Z"/><path class="cls-1" d="M31.59,7.26a4.09,4.09,0,0,1-1.7,1.67,5.34,5.34,0,0,1-2.6.6H23.75V.15h3.54A5.47,5.47,0,0,1,29.9.73a4.07,4.07,0,0,1,1.69,1.65,4.85,4.85,0,0,1,.59,2.44A4.87,4.87,0,0,1,31.59,7.26Zm-2.44-.47a2.61,2.61,0,0,0,.74-2,2.62,2.62,0,0,0-.74-2,2.86,2.86,0,0,0-2.06-.7H26V7.5h1.08A2.86,2.86,0,0,0,29.15,6.79Z"/><path class="cls-1" d="M35.74,2v2h3.17V5.63H35.74V7.71h3.57V9.53H33.47V.15h5.84V2Z"/><path class="cls-1" d="M47,8.25a2.64,2.64,0,0,1-1.11,1,4,4,0,0,1-1.78.37,4.25,4.25,0,0,1-2.61-.77A2.78,2.78,0,0,1,40.34,6.7h2.42a1.31,1.31,0,0,0,.37.84,1.19,1.19,0,0,0,.83.3,1,1,0,0,0,.69-.24A.83.83,0,0,0,44.9,7a.8.8,0,0,0-.23-.59A1.69,1.69,0,0,0,44.1,6c-.23-.1-.55-.23-1-.37A11,11,0,0,1,41.69,5a2.61,2.61,0,0,1-1-.85,2.43,2.43,0,0,1-.41-1.46,2.51,2.51,0,0,1,.43-1.45A2.59,2.59,0,0,1,41.91.33,4.26,4.26,0,0,1,43.63,0a3.91,3.91,0,0,1,2.49.74,2.87,2.87,0,0,1,1,2.05H44.71a1.31,1.31,0,0,0-.34-.74,1,1,0,0,0-.74-.27A1,1,0,0,0,43,2a.76.76,0,0,0-.25.62.8.8,0,0,0,.22.57,1.85,1.85,0,0,0,.55.38c.22.09.54.22,1,.37a10,10,0,0,1,1.47.6,2.79,2.79,0,0,1,1,.87,2.53,2.53,0,0,1,.41,1.49A2.5,2.5,0,0,1,47,8.25Z"/><path class="cls-1" d="M50.86.15V9.53H48.59V.15Z"/><path class="cls-1" d="M59.72.92a3.63,3.63,0,0,1,1.42,2.33h-2.4a1.82,1.82,0,0,0-.73-.8,2.23,2.23,0,0,0-1.18-.3,2.19,2.19,0,0,0-1.72.72,2.8,2.8,0,0,0-.65,2,2.86,2.86,0,0,0,.68,2.06,2.57,2.57,0,0,0,1.94.71,2.37,2.37,0,0,0,1.42-.44,2.32,2.32,0,0,0,.86-1.27H56.5V4.26h4.76V6.5A4.63,4.63,0,0,1,60.41,8a4.29,4.29,0,0,1-1.49,1.14,4.78,4.78,0,0,1-2.08.43A5,5,0,0,1,54.36,9a4.23,4.23,0,0,1-1.64-1.69,5.27,5.27,0,0,1-.57-2.48,5.24,5.24,0,0,1,.57-2.48A4.11,4.11,0,0,1,54.36.66,4.78,4.78,0,0,1,56.82.05,4.65,4.65,0,0,1,59.72.92Z"/><path class="cls-1" d="M70.87,9.53H68.6L64.8,3.77V9.53H62.53V.15H64.8L68.6,6V.15h2.27Z"/><path class="cls-1" d="M19.38,12.45,16.07,26.3H11.91L9.7,17,7.46,26.3H3.31L0,12.45H3.64l1.79,10,2.43-10h3.66l2.43,10,1.8-10Z"/><path class="cls-1" d="M24.49,12.45V26.3H21.14V12.45Z"/><path class="cls-1" d="M30.15,23.74h4.47V26.3H26.8V12.45h3.35Z"/><path class="cls-1" d="M39.52,23.74H44V26.3H36.17V12.45h3.35Z"/><path class="cls-1" d="M59.75,20.39a3.3,3.3,0,0,1,.73,2.13,3.46,3.46,0,0,1-1.18,2.79,5.18,5.18,0,0,1-3.4,1H49.45V12.45h6.29a5.15,5.15,0,0,1,3.27.92A3.18,3.18,0,0,1,60.17,16a3.21,3.21,0,0,1-.67,2.09,3.06,3.06,0,0,1-1.74,1.08A3.46,3.46,0,0,1,59.75,20.39Zm-7-2.28H55c1.16,0,1.74-.49,1.74-1.48s-.59-1.49-1.78-1.49H52.8Zm4.25,3.94a1.44,1.44,0,0,0-.49-1.16,2.06,2.06,0,0,0-1.39-.42H52.8v3.11h2.39Q57.05,23.58,57.05,22.05Z"/><path class="cls-1" d="M65.6,15.12V18h4.68v2.52H65.6v3.08h5.27V26.3H62.25V12.45h8.62v2.67Z"/><path class="cls-2" d="M7.14,29.43V59H0V29.43Z"/><path class="cls-2" d="M38.32,59H31.17l-12-18.13V59H12.07V29.43h7.15l12,18.3V29.43h7.15Z"/><path class="cls-2" d="M66.08,32.11a13.56,13.56,0,0,1,4.79,8H63.3a6.85,6.85,0,0,0-2.57-3.22,7.17,7.17,0,0,0-4.11-1.17A6.28,6.28,0,0,0,51.56,38a9.27,9.27,0,0,0-1.92,6.14,9.17,9.17,0,0,0,1.92,6.12,6.3,6.3,0,0,0,5.06,2.28,7.17,7.17,0,0,0,4.11-1.17,6.9,6.9,0,0,0,2.57-3.18h7.57a13.69,13.69,0,0,1-4.79,8,14.38,14.38,0,0,1-9.34,3,14.69,14.69,0,0,1-7.56-1.9,12.93,12.93,0,0,1-5-5.32,16.81,16.81,0,0,1-1.77-7.82,16.77,16.77,0,0,1,1.77-7.81,13,13,0,0,1,5-5.33,14.69,14.69,0,0,1,7.56-1.9A14.43,14.43,0,0,1,66.08,32.11Z"/><path class="cls-2" d="M3.75,74.92h5v2.87H0V62.3H3.75Z"/><path class="cls-2" d="M14.11,62.3v8.94a3.51,3.51,0,0,0,.69,2.34,2.49,2.49,0,0,0,2,.81,2.49,2.49,0,0,0,2-.81,3.51,3.51,0,0,0,.69-2.34V62.3h3.75v8.94a7.35,7.35,0,0,1-.85,3.69,5.6,5.6,0,0,1-2.34,2.26,7.26,7.26,0,0,1-3.34.75,7,7,0,0,1-3.29-.74,5.29,5.29,0,0,1-2.23-2.26,7.75,7.75,0,0,1-.81-3.7V62.3Z"/><path class="cls-2" d="M36.26,75.69a4.44,4.44,0,0,1-1.85,1.64,6.45,6.45,0,0,1-2.94.61,7,7,0,0,1-4.3-1.27,4.6,4.6,0,0,1-1.84-3.55h4a2.12,2.12,0,0,0,.62,1.38,1.92,1.92,0,0,0,1.37.51,1.54,1.54,0,0,0,1.14-.4,1.49,1.49,0,0,0,0-2,3,3,0,0,0-1-.65c-.38-.17-.9-.37-1.57-.6a18.89,18.89,0,0,1-2.4-1A4.27,4.27,0,0,1,26,69a4.56,4.56,0,0,1,0-4.81,4.49,4.49,0,0,1,1.94-1.55,7.19,7.19,0,0,1,2.84-.53,6.32,6.32,0,0,1,4.1,1.23,4.64,4.64,0,0,1,1.72,3.37H32.54A2.08,2.08,0,0,0,32,65.44,1.63,1.63,0,0,0,30.77,65a1.6,1.6,0,0,0-1.07.35,1.3,1.3,0,0,0-.4,1,1.33,1.33,0,0,0,.36.94,2.76,2.76,0,0,0,.91.62c.36.16.89.37,1.58.61a17.87,17.87,0,0,1,2.43,1A4.62,4.62,0,0,1,36.2,71a4.11,4.11,0,0,1,.68,2.45A4.34,4.34,0,0,1,36.26,75.69Z"/><path class="cls-2" d="M42.71,62.3V77.79H39V62.3Z"/><path class="cls-2" d="M48.19,62.3,52,74,55.77,62.3h4L54.39,77.79H49.55L44.18,62.3Z"/><path class="cls-2" d="M65,65.28v3.24h5.24v2.83H65v3.44h5.9v3H61.22V62.3h9.65v3Z"/></g></g></svg>