<svg xmlns="http://www.w3.org/2000/svg" viewBox="0 0 70.87 46.86"><defs><style>.cls-1{fill:#1d1d1b;}</style></defs><title>Middel 9</title><g id="Laag_2" data-name="Laag 2"><g id="Laag_1-2" data-name="Laag 1"><path class="cls-1" d="M4.48,0V18.52H0V0Z"/><path class="cls-1" d="M38,0,33.55,18.52H28L25,6.13l-3,12.39H16.5L12.07,0h4.87l2.39,13.41L22.57,0h4.9l3.25,13.41L33.13,0Z"/><path class="cls-1" d="M44.81,0V18.52H40.33V0Z"/><path class="cls-1" d="M52.38,15.08h6v3.44H47.9V0h4.48Z"/><path class="cls-1" d="M64.89,15.08h6v3.44H60.42V0h4.47Z"/><path class="cls-1" d="M11.23,35.3A4.52,4.52,0,0,1,9.34,37a6.6,6.6,0,0,1-3,.62,7.1,7.1,0,0,1-4.4-1.3A4.71,4.71,0,0,1,0,32.68H4.13a2.12,2.12,0,0,0,.64,1.41,1.93,1.93,0,0,0,1.4.52,1.65,1.65,0,0,0,1.17-.41,1.54,1.54,0,0,0,0-2.08,3,3,0,0,0-1-.66c-.39-.17-.92-.38-1.61-.62a19.92,19.92,0,0,1-2.46-1A4.63,4.63,0,0,1,.68,28.41,4.23,4.23,0,0,1,0,25.93a4.17,4.17,0,0,1,.72-2.45,4.59,4.59,0,0,1,2-1.58,7.23,7.23,0,0,1,2.91-.55,6.49,6.49,0,0,1,4.2,1.26,4.81,4.81,0,0,1,1.77,3.45H7.43a2.12,2.12,0,0,0-.58-1.24,1.65,1.65,0,0,0-1.24-.46,1.61,1.61,0,0,0-1.09.36,1.29,1.29,0,0,0-.42,1.05,1.33,1.33,0,0,0,.38.95,2.65,2.65,0,0,0,.93.64c.37.17.91.38,1.61.63a16.62,16.62,0,0,1,2.49,1,4.83,4.83,0,0,1,1.66,1.47,4.21,4.21,0,0,1,.7,2.51A4.41,4.41,0,0,1,11.23,35.3Z"/><path class="cls-1" d="M27.71,21.6V37.46H23.85V30.84h-6v6.62H14V21.6h3.83v6.14h6V21.6Z"/><path class="cls-1" d="M40.18,34.56h-6l-1,2.9h-4L35,21.71h4.42l5.81,15.75H41.17Zm-1-2.91-2-5.84-2,5.84Z"/><path class="cls-1" d="M54.87,37.46l-3.43-6h-.88v6H46.73V21.6h6.55a7,7,0,0,1,3.18.65,4.54,4.54,0,0,1,2,1.78,5.16,5.16,0,0,1,.65,2.59,4.6,4.6,0,0,1-1,2.94,4.85,4.85,0,0,1-2.77,1.66l3.77,6.24Zm-4.31-8.62h2.38a2.44,2.44,0,0,0,1.69-.5,2.31,2.31,0,0,0,0-3,2.28,2.28,0,0,0-1.67-.54H50.56Z"/><path class="cls-1" d="M64.83,24.65V28h5.36v2.89H64.83v3.52h6v3.08H61V21.6h9.87v3Z"/><path class="cls-1" d="M7,40.59V46.8H5.52V42.92L4.17,46.8H2.86L1.51,42.91V46.8H0V40.59H1.85l1.69,4.32,1.65-4.32Z"/><path class="cls-1" d="M13.47,40.55l-2.16,4.17V46.8H9.79V44.72L7.62,40.55H9.35l1.21,2.54,1.2-2.54Z"/><path class="cls-1" d="M18.77,43.61l2.52,3.19H19.46L17.34,44V46.8H15.82V40.55h1.52V43.3l2.14-2.75h1.81Z"/><path class="cls-1" d="M27.48,46.8H26L23.44,43V46.8H21.92V40.55h1.52L26,44.42V40.55h1.52Z"/><path class="cls-1" d="M33.09,40.86A2.91,2.91,0,0,1,34.23,42a3.45,3.45,0,0,1,0,3.3,3.07,3.07,0,0,1-1.14,1.15,3.33,3.33,0,0,1-3.2,0,3.07,3.07,0,0,1-1.14-1.15,3.45,3.45,0,0,1,0-3.3,3,3,0,0,1,1.14-1.14,3.33,3.33,0,0,1,3.2,0Zm-2.78,1.48a2.17,2.17,0,0,0,0,2.62,1.69,1.69,0,0,0,2.36,0,2.17,2.17,0,0,0,0-2.62,1.69,1.69,0,0,0-2.36,0Z"/><path class="cls-1" d="M44,40.55,42.5,46.8H40.62l-1-4.18-1,4.18H36.74l-1.49-6.25h1.64l.81,4.52,1.09-4.52h1.66l1.09,4.52.82-4.52Z"/><path class="cls-1" d="M46.3,45.64h2V46.8H44.79V40.55H46.3Z"/><path class="cls-1" d="M50.52,41.75v1.31h2.12V44.2H50.52v1.39H52.9V46.8H49V40.55H52.9v1.2Z"/><path class="cls-1" d="M59,45.29a2.81,2.81,0,0,1-1.13,1.11,3.66,3.66,0,0,1-1.74.4H53.76V40.55h2.36a3.66,3.66,0,0,1,1.74.39A2.64,2.64,0,0,1,59,42a3.6,3.6,0,0,1,0,3.26ZM57.36,45a1.75,1.75,0,0,0,.49-1.32,1.72,1.72,0,0,0-.49-1.32A1.91,1.91,0,0,0,56,41.87h-.72v3.57H56A1.91,1.91,0,0,0,57.36,45Z"/><path class="cls-1" d="M65.1,41.06a2.45,2.45,0,0,1,1,1.56h-1.6a1.22,1.22,0,0,0-.49-.54,1.52,1.52,0,0,0-.79-.2,1.45,1.45,0,0,0-1.14.48,2.22,2.22,0,0,0,0,2.68,1.68,1.68,0,0,0,1.29.47,1.55,1.55,0,0,0,1-.29,1.57,1.57,0,0,0,.57-.85H63V43.29h3.18v1.49a3,3,0,0,1-1.56,1.78,3.54,3.54,0,0,1-3-.11,2.82,2.82,0,0,1-1.09-1.13,3.41,3.41,0,0,1-.39-1.65A3.48,3.48,0,0,1,60.44,42a2.8,2.8,0,0,1,1.09-1.12,3.19,3.19,0,0,1,1.64-.41A3.12,3.12,0,0,1,65.1,41.06Z"/><path class="cls-1" d="M68.49,41.75v1.31H70.6V44.2H68.49v1.39h2.38V46.8H67V40.55h3.89v1.2Z"/></g></g></svg>