<svg xmlns="http://www.w3.org/2000/svg" viewBox="0 0 70.87 95.16"><defs><style>.cls-1{fill:#1d1d1b;}</style></defs><title>Middel 10</title><g id="Laag_2" data-name="Laag 2"><g id="Laag_1-2" data-name="Laag 1"><path class="cls-1" d="M4.48,0V18.52H0V0Z"/><path class="cls-1" d="M38,0,33.55,18.52H28L25,6.13l-3,12.39H16.5L12.07,0h4.87l2.39,13.41L22.57,0h4.9l3.25,13.41L33.13,0Z"/><path class="cls-1" d="M44.81,0V18.52H40.33V0Z"/><path class="cls-1" d="M52.38,15.08h6v3.44H47.9V0h4.48Z"/><path class="cls-1" d="M64.89,15.08h6v3.44H60.42V0h4.47Z"/><path class="cls-1" d="M7.21,28a3.71,3.71,0,0,1-1.56,1.53,4.93,4.93,0,0,1-2.39.55H0V21.48H3.26a5.06,5.06,0,0,1,2.4.54,3.76,3.76,0,0,1,1.55,1.51,4.94,4.94,0,0,1,0,4.49ZM5,27.59a2.38,2.38,0,0,0,.67-1.81A2.4,2.4,0,0,0,5,24a2.64,2.64,0,0,0-1.9-.65h-1v4.93h1A2.64,2.64,0,0,0,5,27.59Z"/><path class="cls-1" d="M15.24,21.92a4,4,0,0,1,1.57,1.57,4.83,4.83,0,0,1,0,4.55,4.2,4.2,0,0,1-1.58,1.58,4.53,4.53,0,0,1-4.4,0A4.18,4.18,0,0,1,9.26,28a4.75,4.75,0,0,1,0-4.55,4.15,4.15,0,0,1,1.57-1.57,4.55,4.55,0,0,1,4.41,0ZM11.4,24a2.62,2.62,0,0,0-.6,1.81,2.62,2.62,0,0,0,.6,1.81,2.12,2.12,0,0,0,1.63.67,2.09,2.09,0,0,0,1.62-.67,2.58,2.58,0,0,0,.61-1.81,2.61,2.61,0,0,0-.6-1.8A2.06,2.06,0,0,0,13,23.29,2.12,2.12,0,0,0,11.4,24Z"/><path class="cls-1" d="M30.68,21.55V30.1H28.6V24.75L26.75,30.1H24.94l-1.86-5.36V30.1H21V21.55h2.55l2.33,6,2.28-6Z"/><path class="cls-1" d="M39.57,21.48l-3,5.76V30.1H34.49V27.24l-3-5.76h2.39L35.55,25l1.66-3.52Z"/><path class="cls-1" d="M49.22,26.42a2,2,0,0,1,.46,1.33,2.14,2.14,0,0,1-.74,1.73,3.16,3.16,0,0,1-2.11.62h-4V21.48h3.92a3.21,3.21,0,0,1,2,.58,2,2,0,0,1,.72,1.63,2.06,2.06,0,0,1-.41,1.3,2,2,0,0,1-1.09.68A2.14,2.14,0,0,1,49.22,26.42ZM44.9,25h1.36c.73,0,1.09-.31,1.09-.93s-.37-.93-1.11-.93H44.9Zm2.64,2.45a.93.93,0,0,0-.3-.73,1.31,1.31,0,0,0-.87-.26H44.9v1.94h1.49C47.16,28.41,47.54,28.09,47.54,27.46Z"/><path class="cls-1" d="M52.86,23.14V25h2.91v1.57H52.86v1.91h3.28V30.1H50.78V21.48h5.36v1.66Z"/><path class="cls-1" d="M63.17,28.93a2.44,2.44,0,0,1-1,.92,3.55,3.55,0,0,1-1.64.34,3.9,3.9,0,0,1-2.39-.71,2.58,2.58,0,0,1-1-2h2.22a1.13,1.13,0,0,0,.35.76,1.06,1.06,0,0,0,.76.29.89.89,0,0,0,.63-.22.85.85,0,0,0,0-1.14,1.9,1.9,0,0,0-.53-.36c-.21-.09-.5-.2-.88-.33A10.19,10.19,0,0,1,58.33,26a2.36,2.36,0,0,1-.89-.78,2.21,2.21,0,0,1-.37-1.34,2.27,2.27,0,0,1,.39-1.33,2.44,2.44,0,0,1,1.08-.86,3.86,3.86,0,0,1,1.57-.3A3.59,3.59,0,0,1,62.4,22a2.66,2.66,0,0,1,1,1.88H61.1a1.16,1.16,0,0,0-.31-.68,1,1,0,0,0-.68-.25.88.88,0,0,0-.59.2.71.71,0,0,0-.22.57.69.69,0,0,0,.2.52,1.54,1.54,0,0,0,.5.35l.88.34a10,10,0,0,1,1.35.55,2.76,2.76,0,0,1,.91.8,2.31,2.31,0,0,1,.37,1.37A2.37,2.37,0,0,1,63.17,28.93Z"/><path class="cls-1" d="M70.87,21.48v1.66H68.53v7h-2.1v-7H64.11V21.48Z"/><path class="cls-1" d="M8.22,33.19v2H5.37v8.48H2.82V35.2H0v-2Z"/><path class="cls-1" d="M17,33.71a5,5,0,0,1,1.9,1.92,5.42,5.42,0,0,1,.7,2.76,5.5,5.5,0,0,1-.7,2.78A5.06,5.06,0,0,1,17,43.09a5.53,5.53,0,0,1-5.35,0,5.06,5.06,0,0,1-1.92-1.92A5.5,5.5,0,0,1,9,38.39a5.42,5.42,0,0,1,.7-2.76,5.06,5.06,0,0,1,1.92-1.92A5.26,5.26,0,0,1,14.27,33,5.37,5.37,0,0,1,17,33.71Zm-4.68,2.48a3.68,3.68,0,0,0,0,4.4,2.55,2.55,0,0,0,2,.82,2.56,2.56,0,0,0,2-.82,3.63,3.63,0,0,0,0-4.39,2.53,2.53,0,0,0-2-.82A2.54,2.54,0,0,0,12.29,36.19Z"/><path class="cls-1" d="M32.74,41.15A4.66,4.66,0,0,1,30.84,43a6.13,6.13,0,0,1-2.91.67H24V33.19h4a6.11,6.11,0,0,1,2.92.65,4.53,4.53,0,0,1,1.89,1.84,5.52,5.52,0,0,1,.66,2.73A5.58,5.58,0,0,1,32.74,41.15ZM30,40.62a3.39,3.39,0,0,0,0-4.42,3.19,3.19,0,0,0-2.31-.79H26.5v6h1.2A3.19,3.19,0,0,0,30,40.62Z"/><path class="cls-1" d="M42.52,33.71a5,5,0,0,1,1.9,1.92,5.42,5.42,0,0,1,.7,2.76,5.5,5.5,0,0,1-.7,2.78,5.06,5.06,0,0,1-1.92,1.92,5.53,5.53,0,0,1-5.35,0,5.06,5.06,0,0,1-1.92-1.92,5.5,5.5,0,0,1-.7-2.78,5.42,5.42,0,0,1,.7-2.76,5.06,5.06,0,0,1,1.92-1.92A5.26,5.26,0,0,1,39.82,33,5.37,5.37,0,0,1,42.52,33.71Zm-4.68,2.48a3.68,3.68,0,0,0,0,4.4,2.8,2.8,0,0,0,4,0,3.63,3.63,0,0,0,0-4.39,2.81,2.81,0,0,0-4,0Z"/><path class="cls-1" d="M58.83,43.68H56.29l-4.24-6.44v6.44H49.51V33.19h2.54l4.24,6.5v-6.5h2.54Z"/><path class="cls-1" d="M68.26,33.71a5,5,0,0,1,1.91,1.92,5.79,5.79,0,0,1,0,5.54,5.1,5.1,0,0,1-1.91,1.92,5.55,5.55,0,0,1-5.36,0A5,5,0,0,1,61,41.17a5.5,5.5,0,0,1-.71-2.78A5.43,5.43,0,0,1,61,35.63a5,5,0,0,1,1.91-1.92,5.57,5.57,0,0,1,5.37,0Zm-4.67,2.48a3.64,3.64,0,0,0,0,4.4,2.79,2.79,0,0,0,4,0,3.1,3.1,0,0,0,.74-2.2,3.13,3.13,0,0,0-.73-2.19,2.81,2.81,0,0,0-4,0Z"/><path class="cls-1" d="M15,46.62V64H10.76V56.72H4.19V64H0V46.62H4.19v6.71h6.57V46.62Z"/><path class="cls-1" d="M28.62,60.79h-6.5L21,64H16.62L23,46.74h4.83L34.16,64H29.7ZM27.54,57.6l-2.16-6.37L23.2,57.6Z"/><path class="cls-1" d="M44.68,64,40.92,57.4H40V64H35.78V46.62h7.16a7.66,7.66,0,0,1,3.48.71,4.82,4.82,0,0,1,2.13,2,5.51,5.51,0,0,1,.71,2.83,5,5,0,0,1-1,3.21,5.33,5.33,0,0,1-3,1.82L49.31,64ZM40,54.54h2.6A2.61,2.61,0,0,0,44.41,54,2.12,2.12,0,0,0,45,52.35a2.15,2.15,0,0,0-.6-1.61,2.5,2.5,0,0,0-1.83-.59H40Z"/><path class="cls-1" d="M70.87,46.74V64h-4.2V53.19L63,64H59.32L55.56,53.16V64H51.37V46.74H56.5l4.68,12,4.59-12Z"/><path class="cls-1" d="M6.18,66.91v1.52H4v6.36H2.12V68.43H0V66.91Z"/><path class="cls-1" d="M12.75,67.31a3.78,3.78,0,0,1,1.43,1.43,4.14,4.14,0,0,1,.52,2.08,4.06,4.06,0,0,1-.53,2.09,3.8,3.8,0,0,1-1.43,1.44,4.16,4.16,0,0,1-4,0,3.9,3.9,0,0,1-1.44-1.44,4.37,4.37,0,0,1,0-4.17,3.87,3.87,0,0,1,1.44-1.43,4,4,0,0,1,2-.52A4,4,0,0,1,12.75,67.31ZM9.24,69.17a2.34,2.34,0,0,0-.56,1.65,2.37,2.37,0,0,0,.56,1.65,1.88,1.88,0,0,0,1.48.62,1.93,1.93,0,0,0,1.49-.62,2.75,2.75,0,0,0,0-3.3,1.89,1.89,0,0,0-1.49-.61A1.87,1.87,0,0,0,9.24,69.17Z"/><path class="cls-1" d="M22.89,73.35h-3l-.49,1.44h-2L20.32,67h2.2l2.89,7.82h-2Zm-.5-1.45-1-2.89-1,2.89Z"/><path class="cls-1" d="M33.14,74.79h-1.9L28.05,70v4.84H26.14V66.91h1.91l3.19,4.88V66.91h1.9Z"/><path class="cls-1" d="M41.27,66.91l-2.73,5.26v2.62H36.62V72.17l-2.73-5.26h2.18l1.52,3.21,1.52-3.21Z"/><path class="cls-1" d="M46.09,66.91v4.55a1.74,1.74,0,0,0,.35,1.19,1.24,1.24,0,0,0,1,.41,1.26,1.26,0,0,0,1-.41,1.8,1.8,0,0,0,.35-1.19V66.91h1.9v4.55a3.76,3.76,0,0,1-.43,1.88,2.78,2.78,0,0,1-1.19,1.14,3.64,3.64,0,0,1-1.7.39,3.58,3.58,0,0,1-1.67-.38,2.69,2.69,0,0,1-1.14-1.15,4,4,0,0,1-.41-1.88V66.91Z"/><path class="cls-1" d="M57.35,73.72a2.21,2.21,0,0,1-.94.84,3.26,3.26,0,0,1-1.5.31,3.53,3.53,0,0,1-2.18-.65,2.34,2.34,0,0,1-.94-1.8h2a1.09,1.09,0,0,0,.32.7,1,1,0,0,0,.7.26.81.81,0,0,0,.58-.21.75.75,0,0,0,0-1,1.37,1.37,0,0,0-.48-.33c-.2-.09-.46-.19-.81-.31A10.57,10.57,0,0,1,52.92,71a2.3,2.3,0,0,1-.81-.72,2,2,0,0,1-.34-1.23,2,2,0,0,1,.36-1.21,2.15,2.15,0,0,1,1-.79,3.64,3.64,0,0,1,1.45-.27,3.29,3.29,0,0,1,2.09.62,2.39,2.39,0,0,1,.87,1.72H55.46a1.08,1.08,0,0,0-.28-.62.86.86,0,0,0-.62-.23.77.77,0,0,0-.54.18.64.64,0,0,0-.21.52.68.68,0,0,0,.18.48,1.43,1.43,0,0,0,.47.31c.18.09.45.19.8.32a10.18,10.18,0,0,1,1.24.5,2.37,2.37,0,0,1,.82.73,2.1,2.1,0,0,1,.35,1.25A2.19,2.19,0,0,1,57.35,73.72Z"/><path class="cls-1" d="M60.63,68.43v1.65H63.3v1.43H60.63v1.75h3v1.53h-4.9V66.91h4.9v1.52Z"/><path class="cls-1" d="M68.76,74.79l-1.71-3h-.43v3H64.71V66.91H68a3.59,3.59,0,0,1,1.58.32,2.27,2.27,0,0,1,1,.89,2.47,2.47,0,0,1,.32,1.29,2.26,2.26,0,0,1-.47,1.46,2.43,2.43,0,0,1-1.38.82l1.88,3.1Zm-2.14-4.28H67.8a1.19,1.19,0,0,0,.84-.25,1,1,0,0,0,.26-.74,1,1,0,0,0-.27-.74,1.13,1.13,0,0,0-.83-.26H66.62Z"/><path class="cls-1" d="M5.21,84H2.39l-.47,1.38H0l2.76-7.48H4.85l2.76,7.48H5.67Zm-.47-1.38L3.8,79.82l-.95,2.77Z"/><path class="cls-1" d="M15,85.35H13.18l-3-4.62v4.62H8.31V77.82h1.82l3,4.66V77.82H15Z"/><path class="cls-1" d="M22.55,83.53a3.31,3.31,0,0,1-1.36,1.34,4.33,4.33,0,0,1-2.09.48H16.26V77.82H19.1a4.46,4.46,0,0,1,2.1.47,3.24,3.24,0,0,1,1.35,1.32,4.24,4.24,0,0,1,0,3.92Zm-2-.38a2,2,0,0,0,.59-1.58A2.08,2.08,0,0,0,20.59,80a2.3,2.3,0,0,0-1.65-.56h-.86v4.3h.86A2.27,2.27,0,0,0,20.59,83.15Z"/><path class="cls-1" d="M30.05,85.35l-1.63-2.84H28v2.84H26.19V77.82H29.3a3.31,3.31,0,0,1,1.51.31,2.12,2.12,0,0,1,.92.85A2.34,2.34,0,0,1,32,80.21a2.19,2.19,0,0,1-.45,1.39,2.32,2.32,0,0,1-1.31.79l1.78,3Zm-2-4.09h1.13a1.11,1.11,0,0,0,.79-.24.9.9,0,0,0,.26-.71.94.94,0,0,0-.26-.7,1.09,1.09,0,0,0-.79-.26H28Z"/><path class="cls-1" d="M34.78,79.27v1.57h2.54v1.38H34.78v1.67h2.86v1.46H33V77.82h4.68v1.45Z"/><path class="cls-1" d="M43.78,84.33a2.09,2.09,0,0,1-.89.79,3.19,3.19,0,0,1-1.44.3,3.3,3.3,0,0,1-2.08-.62,2.22,2.22,0,0,1-.9-1.72h1.94a1,1,0,0,0,.3.67,1,1,0,0,0,.67.25.76.76,0,0,0,.55-.2.64.64,0,0,0,.21-.51.69.69,0,0,0-.19-.48,1.69,1.69,0,0,0-.46-.31c-.19-.08-.44-.18-.77-.29a8.94,8.94,0,0,1-1.17-.48,2.08,2.08,0,0,1-.77-.68,2.19,2.19,0,0,1,0-2.33,2.13,2.13,0,0,1,.94-.75,3.33,3.33,0,0,1,1.38-.27,3.1,3.1,0,0,1,2,.6,2.26,2.26,0,0,1,.83,1.64H42a.93.93,0,0,0-.27-.59.88.88,0,0,0-1.1,0,.6.6,0,0,0-.2.5.64.64,0,0,0,.17.45,1.34,1.34,0,0,0,.45.31c.17.08.43.17.76.3a7.49,7.49,0,0,1,1.18.48,2.19,2.19,0,0,1,.79.7,2,2,0,0,1,.33,1.19A2.12,2.12,0,0,1,43.78,84.33Z"/><path class="cls-1" d="M46.91,82.71v2.64H45.09V77.82H48a2.85,2.85,0,0,1,2.05.67,2.37,2.37,0,0,1,.7,1.79,2.54,2.54,0,0,1-.31,1.25,2.18,2.18,0,0,1-.94.86,3.26,3.26,0,0,1-1.5.32Zm2-2.43c0-.66-.37-1-1.1-1h-.93v2h.93C48.57,81.25,48.94,80.93,48.94,80.28Z"/><path class="cls-1" d="M53.5,79.27v1.57h2.55v1.38H53.5v1.67h2.87v1.46H51.68V77.82h4.69v1.45Z"/><path class="cls-1" d="M63.22,78.5a3.51,3.51,0,0,1,1.22,2H62.51a1.77,1.77,0,0,0-.65-.82,1.85,1.85,0,0,0-1-.3,1.58,1.58,0,0,0-1.29.58A2.36,2.36,0,0,0,59,81.58a2.33,2.33,0,0,0,.49,1.56,1.58,1.58,0,0,0,1.29.58,1.85,1.85,0,0,0,1-.3,1.8,1.8,0,0,0,.65-.81h1.93a3.51,3.51,0,0,1-1.22,2,3.65,3.65,0,0,1-2.38.76,3.81,3.81,0,0,1-1.93-.48,3.36,3.36,0,0,1-1.28-1.36,4.63,4.63,0,0,1,0-4,3.29,3.29,0,0,1,1.28-1.36,3.81,3.81,0,0,1,1.93-.48A3.7,3.7,0,0,1,63.22,78.5Z"/><path class="cls-1" d="M70.87,77.82v1.45H68.82v6.08H67V79.27H65V77.82Z"/><path class="cls-1" d="M5.32,88.32v1.31H3.47v5.48H1.82V89.63H0V88.32Z"/><path class="cls-1" d="M11.87,88.32v6.79H10.22V92.28H7.65v2.83H6V88.32H7.65V91h2.57V88.32Z"/><path class="cls-1" d="M14.64,89.63v1.42h2.29v1.24H14.64v1.5h2.58v1.32H13V88.32h4.22v1.31Z"/><path class="cls-1" d="M19.79,88.32v6.79H18.15V88.32Z"/><path class="cls-1" d="M24.41,95.11l-1.47-2.56h-.37v2.56H20.93V88.32h2.8a3.11,3.11,0,0,1,1.36.28,1.92,1.92,0,0,1,.83.76,2.18,2.18,0,0,1,.28,1.11,2,2,0,0,1-.4,1.26,2.11,2.11,0,0,1-1.19.71l1.61,2.67Zm-1.84-3.69h1a1,1,0,0,0,.72-.21.82.82,0,0,0,.23-.64.82.82,0,0,0-.23-.63,1,1,0,0,0-.72-.23h-1Z"/><path class="cls-1" d="M30.59,92.73v2.38H29V88.32H31.6a2.61,2.61,0,0,1,1.85.6,2.13,2.13,0,0,1,.63,1.62,2.23,2.23,0,0,1-.28,1.13,1.91,1.91,0,0,1-.84.77,2.94,2.94,0,0,1-1.36.29Zm1.82-2.19c0-.59-.33-.89-1-.89h-.83v1.76h.83Q32.41,91.41,32.41,90.54Z"/><path class="cls-1" d="M38.37,95.11,36.9,92.55h-.37v2.56H34.89V88.32h2.8a3.11,3.11,0,0,1,1.36.28,1.92,1.92,0,0,1,.83.76,2.18,2.18,0,0,1,.28,1.11,1.93,1.93,0,0,1-.41,1.26,2,2,0,0,1-1.18.71l1.61,2.67Zm-1.84-3.69h1a1,1,0,0,0,.72-.21.82.82,0,0,0,.23-.64.82.82,0,0,0-.23-.63,1,1,0,0,0-.72-.23h-1Z"/><path class="cls-1" d="M42.63,88.32v6.79H41V88.32Z"/><path class="cls-1" d="M45,88.32l1.66,5.11,1.66-5.11H50.1l-2.36,6.79H45.62l-2.35-6.79Z"/><path class="cls-1" d="M54.94,93.87H52.4L52,95.11H50.25l2.48-6.74h1.89l2.49,6.74H55.36Zm-.42-1.25-.85-2.49-.85,2.49Z"/><path class="cls-1" d="M63,88.94a3.06,3.06,0,0,1,1.1,1.84H62.35a1.58,1.58,0,0,0-1.54-1,1.44,1.44,0,0,0-1.16.53,2.48,2.48,0,0,0,0,2.82,1.43,1.43,0,0,0,1.16.52,1.66,1.66,0,0,0,.95-.27,1.64,1.64,0,0,0,.59-.73h1.73A3.09,3.09,0,0,1,63,94.48a3.27,3.27,0,0,1-2.14.68,3.4,3.4,0,0,1-1.74-.43A2.94,2.94,0,0,1,58,93.51a3.79,3.79,0,0,1-.41-1.8A3.72,3.72,0,0,1,58,89.92a2.91,2.91,0,0,1,1.15-1.23,3.4,3.4,0,0,1,1.74-.43A3.27,3.27,0,0,1,63,88.94Z"/><path class="cls-1" d="M70.87,88.32l-2.35,4.53v2.26H66.87V92.85l-2.36-4.53H66.4l1.3,2.77L69,88.32Z"/></g></g></svg>