<svg xmlns="http://www.w3.org/2000/svg" viewBox="0 0 143.6 56.68"><defs><style>.cls-1{fill:#1d1d1b;}</style></defs><title>Middel 12</title><g id="Laag_2" data-name="Laag 2"><g id="Laag_1-2" data-name="Laag 1"><path class="cls-1" d="M4.62.18V11.57H1.87V.18Z"/><path class="cls-1" d="M25.23.18,22.5,11.57H19.09L17.27,4l-1.84,7.62H12L9.29.18h3l1.47,8.25,2-8.25h3l2,8.25L22.24.18Z"/><path class="cls-1" d="M29.43.18V11.57H26.68V.18Z"/><path class="cls-1" d="M34.09,9.46h3.67v2.11H31.33V.18h2.76Z"/><path class="cls-1" d="M41.79,9.46h3.67v2.11H39V.18h2.76Z"/><path class="cls-1" d="M59.48,8.82a4.9,4.9,0,0,1-2.06,2,6.5,6.5,0,0,1-3.16.73H50V.18h4.31a6.59,6.59,0,0,1,3.17.71,4.92,4.92,0,0,1,2,2,6,6,0,0,1,.72,3A6,6,0,0,1,59.48,8.82Zm-3-.57a3.18,3.18,0,0,0,.89-2.4,3.18,3.18,0,0,0-.89-2.4A3.49,3.49,0,0,0,54,2.59h-1.3V9.1H54A3.49,3.49,0,0,0,56.52,8.25Z"/><path class="cls-1" d="M70.1.75a5.51,5.51,0,0,1,2.07,2.08,6,6,0,0,1,.76,3,6,6,0,0,1-.77,3,5.47,5.47,0,0,1-2.08,2.08,6,6,0,0,1-5.81,0,5.47,5.47,0,0,1-2.08-2.08,6,6,0,0,1-.77-3,5.9,5.9,0,0,1,.77-3A5.47,5.47,0,0,1,64.27.75,5.73,5.73,0,0,1,67.18,0,5.8,5.8,0,0,1,70.1.75ZM65,3.44a3.43,3.43,0,0,0-.79,2.39A3.45,3.45,0,0,0,65,8.22a3.07,3.07,0,0,0,4.3,0,3.4,3.4,0,0,0,.8-2.39,3.42,3.42,0,0,0-.79-2.38,2.77,2.77,0,0,0-2.15-.89A2.8,2.8,0,0,0,65,3.44Z"/><path class="cls-1" d="M90.5.26V11.57H87.75V4.5L85.3,11.57H82.91L80.45,4.48v7.09H77.69V.26h3.37l3.08,7.88,3-7.88Z"/><path class="cls-1" d="M102.25.18l-4,7.6v3.79H95.53V7.78l-4-7.6h3.16l2.19,4.64L99.12.18Z"/><path class="cls-1" d="M115,6.7a2.71,2.71,0,0,1,.61,1.76,2.86,2.86,0,0,1-1,2.29,4.31,4.31,0,0,1-2.8.82h-5.3V.18h5.17a4.24,4.24,0,0,1,2.69.75,2.6,2.6,0,0,1,1,2.16,2.65,2.65,0,0,1-.55,1.72,2.48,2.48,0,0,1-1.43.89A2.84,2.84,0,0,1,115,6.7Zm-5.71-1.87h1.81c1,0,1.43-.4,1.43-1.22s-.49-1.23-1.46-1.23h-1.78Zm3.5,3.24a1.19,1.19,0,0,0-.4-1,1.72,1.72,0,0,0-1.15-.34h-2V9.33h2Q112.78,9.33,112.78,8.07Z"/><path class="cls-1" d="M119.8,2.37V4.75h3.86V6.83H119.8V9.36h4.34v2.21h-7.09V.18h7.09V2.37Z"/><path class="cls-1" d="M133.43,10a3.22,3.22,0,0,1-1.36,1.21,4.75,4.75,0,0,1-2.16.45,5.11,5.11,0,0,1-3.16-.93,3.38,3.38,0,0,1-1.35-2.61h2.93a1.5,1.5,0,0,0,.46,1,1.37,1.37,0,0,0,1,.37,1.17,1.17,0,0,0,.84-.29,1.09,1.09,0,0,0,0-1.5,2.1,2.1,0,0,0-.7-.47c-.28-.13-.66-.27-1.16-.45A13.53,13.53,0,0,1,127,6.1a3.3,3.3,0,0,1-1.18-1,3,3,0,0,1-.49-1.78,3,3,0,0,1,.52-1.76A3.27,3.27,0,0,1,127.3.4a5.13,5.13,0,0,1,2.09-.4,4.68,4.68,0,0,1,3,.9,3.45,3.45,0,0,1,1.27,2.48h-3a1.51,1.51,0,0,0-.41-.89,1.19,1.19,0,0,0-.89-.33,1.17,1.17,0,0,0-.78.26.93.93,0,0,0-.3.75,1,1,0,0,0,.27.69,2,2,0,0,0,.66.46c.27.12.66.27,1.16.45a13.33,13.33,0,0,1,1.79.73,3.42,3.42,0,0,1,1.19,1.06,3,3,0,0,1,.5,1.8A3.18,3.18,0,0,1,133.43,10Z"/><path class="cls-1" d="M143.6.18V2.37h-3.09v9.2h-2.78V2.37h-3.06V.18Z"/><path class="cls-1" d="M10,14.71v2.46H6.53V27.46H3.43V17.17H0V14.71Z"/><path class="cls-1" d="M20.62,15.35a6.11,6.11,0,0,1,2.32,2.33A6.61,6.61,0,0,1,23.79,21a6.69,6.69,0,0,1-.86,3.38,6.18,6.18,0,0,1-2.32,2.33,6.75,6.75,0,0,1-6.52,0,6.11,6.11,0,0,1-2.32-2.33A6.69,6.69,0,0,1,10.91,21a6.61,6.61,0,0,1,.86-3.36,6.18,6.18,0,0,1,2.32-2.33,6.77,6.77,0,0,1,6.53,0Zm-5.68,3A3.83,3.83,0,0,0,14.05,21a3.86,3.86,0,0,0,.89,2.67,3.1,3.1,0,0,0,2.41,1,3.09,3.09,0,0,0,2.4-1,3.82,3.82,0,0,0,.9-2.67,3.9,3.9,0,0,0-.89-2.67,3.09,3.09,0,0,0-2.41-1A3.09,3.09,0,0,0,14.94,18.37Z"/><path class="cls-1" d="M39.8,24.39a5.65,5.65,0,0,1-2.31,2.26,7.41,7.41,0,0,1-3.55.81H29.13V14.71h4.81a7.51,7.51,0,0,1,3.56.8,5.62,5.62,0,0,1,2.3,2.23,6.79,6.79,0,0,1,.8,3.32A6.83,6.83,0,0,1,39.8,24.39Zm-3.32-.64a3.57,3.57,0,0,0,1-2.69,3.58,3.58,0,0,0-1-2.69,3.93,3.93,0,0,0-2.81-.95H32.21v7.29h1.46A3.89,3.89,0,0,0,36.48,23.75Z"/><path class="cls-1" d="M51.68,15.35A6.18,6.18,0,0,1,54,17.68a7.07,7.07,0,0,1,0,6.74,6.13,6.13,0,0,1-2.33,2.33,6.73,6.73,0,0,1-6.51,0,6.2,6.2,0,0,1-2.33-2.33A6.68,6.68,0,0,1,42,21a6.61,6.61,0,0,1,.85-3.36,6.28,6.28,0,0,1,2.33-2.33,6.77,6.77,0,0,1,6.53,0Zm-5.68,3A3.78,3.78,0,0,0,45.11,21,3.81,3.81,0,0,0,46,23.71a3.09,3.09,0,0,0,2.41,1,3.12,3.12,0,0,0,2.4-1,3.82,3.82,0,0,0,.9-2.67,3.85,3.85,0,0,0-.9-2.67,3.42,3.42,0,0,0-4.81,0Z"/><path class="cls-1" d="M71.51,27.46H68.43l-5.16-7.82v7.82H60.18V14.71h3.09l5.16,7.9v-7.9h3.08Z"/><path class="cls-1" d="M83,15.35a6.11,6.11,0,0,1,2.32,2.33A6.61,6.61,0,0,1,86.14,21a6.69,6.69,0,0,1-.86,3.38A6.13,6.13,0,0,1,83,26.75a6.73,6.73,0,0,1-6.51,0,6.11,6.11,0,0,1-2.32-2.33A6.69,6.69,0,0,1,73.26,21a6.61,6.61,0,0,1,.86-3.36,6.18,6.18,0,0,1,2.32-2.33,6.77,6.77,0,0,1,6.53,0Zm-5.68,3A3.83,3.83,0,0,0,76.4,21a3.86,3.86,0,0,0,.89,2.67,3.39,3.39,0,0,0,4.81,0A3.82,3.82,0,0,0,83,21a3.9,3.9,0,0,0-.89-2.67,3.43,3.43,0,0,0-4.82,0Z"/><path class="cls-1" d="M102.5,14.71V27.46H99.39V22.14H94.56v5.32H91.48V14.71h3.08v4.95h4.83V14.71Z"/><path class="cls-1" d="M112.52,25.14h-4.78L107,27.46H103.7l4.68-12.66h3.55l4.67,12.66h-3.28Zm-.79-2.35-1.59-4.69-1.6,4.69Z"/><path class="cls-1" d="M124.34,27.46l-2.76-4.81h-.71v4.81h-3.08V14.71h5.27a5.67,5.67,0,0,1,2.56.53,3.65,3.65,0,0,1,1.57,1.43,4.09,4.09,0,0,1,.52,2.08,3.73,3.73,0,0,1-.77,2.37,3.9,3.9,0,0,1-2.22,1.33l3,5Zm-3.47-6.92h1.92a1.93,1.93,0,0,0,1.35-.41,1.56,1.56,0,0,0,.43-1.2,1.62,1.62,0,0,0-.44-1.19,1.85,1.85,0,0,0-1.34-.43h-1.92Z"/><path class="cls-1" d="M143.6,14.8V27.46h-3.09V19.55l-2.74,7.91H135.1l-2.76-7.93v7.93h-3.08V14.8H133l3.44,8.82,3.38-8.82Z"/><path class="cls-1" d="M14.22,30.67v3H9.94V46.43H6.1V33.7H1.87v-3Z"/><path class="cls-1" d="M27.36,31.46a7.56,7.56,0,0,1,2.87,2.88,8.82,8.82,0,0,1,0,8.33,7.66,7.66,0,0,1-2.88,2.88,8.31,8.31,0,0,1-8,0,7.66,7.66,0,0,1-2.88-2.88,8.34,8.34,0,0,1-1.06-4.17,8.25,8.25,0,0,1,1.06-4.16,7.66,7.66,0,0,1,2.88-2.88,8.42,8.42,0,0,1,8.07,0Zm-7,3.73a4.72,4.72,0,0,0-1.11,3.31,4.74,4.74,0,0,0,1.11,3.3,3.82,3.82,0,0,0,3,1.22,3.83,3.83,0,0,0,3-1.22,4.74,4.74,0,0,0,1.11-3.3,4.74,4.74,0,0,0-1.1-3.3,3.8,3.8,0,0,0-3-1.23A3.82,3.82,0,0,0,20.34,35.19Z"/><path class="cls-1" d="M47.64,43.56H41.73l-1,2.87h-4l5.78-15.65H46.9l5.78,15.65H48.62Zm-1-2.9-2-5.8-2,5.8Z"/><path class="cls-1" d="M68.15,46.43H64.34L58,36.76v9.67H54.15V30.67H58l6.38,9.77V30.67h3.81Z"/><path class="cls-1" d="M84.4,30.67,78.94,41.2v5.23H75.11V41.2L69.64,30.67H74l3,6.42,3-6.42Z"/><path class="cls-1" d="M94,30.67v9.1a3.56,3.56,0,0,0,.7,2.38,2.92,2.92,0,0,0,4.08,0,3.56,3.56,0,0,0,.7-2.38v-9.1h3.81v9.1a7.52,7.52,0,0,1-.87,3.76,5.68,5.68,0,0,1-2.37,2.29,7.4,7.4,0,0,1-3.4.77,7,7,0,0,1-3.34-.76,5.36,5.36,0,0,1-2.28-2.29,7.93,7.93,0,0,1-.82-3.77v-9.1Z"/><path class="cls-1" d="M116.57,44.3A4.59,4.59,0,0,1,114.69,46a6.66,6.66,0,0,1-3,.62,7.08,7.08,0,0,1-4.37-1.29,4.69,4.69,0,0,1-1.87-3.61h4.06a2.15,2.15,0,0,0,.63,1.4,2,2,0,0,0,1.4.51,1.62,1.62,0,0,0,1.16-.4,1.41,1.41,0,0,0,.42-1.07,1.38,1.38,0,0,0-.39-1,3,3,0,0,0-1-.66c-.39-.17-.92-.38-1.61-.61a18.63,18.63,0,0,1-2.44-1,4.37,4.37,0,0,1-1.62-1.42,4.67,4.67,0,0,1,0-4.9,4.56,4.56,0,0,1,2-1.57,7.3,7.3,0,0,1,2.89-.54,6.43,6.43,0,0,1,4.18,1.25,4.74,4.74,0,0,1,1.75,3.43h-4.12a2.21,2.21,0,0,0-.57-1.24,1.71,1.71,0,0,0-1.24-.46,1.57,1.57,0,0,0-1.08.36,1.3,1.3,0,0,0-.41,1,1.36,1.36,0,0,0,.36,1,2.83,2.83,0,0,0,.93.63c.37.17.91.37,1.6.63a16.54,16.54,0,0,1,2.48,1,4.67,4.67,0,0,1,1.65,1.46,4.18,4.18,0,0,1,.69,2.5A4.4,4.4,0,0,1,116.57,44.3Z"/><path class="cls-1" d="M123.13,33.7V37h5.33v2.88h-5.33v3.5h6v3h-9.81V30.67h9.81v3Z"/><path class="cls-1" d="M139.39,46.43l-3.42-6h-.87v6h-3.81V30.67h6.51a7,7,0,0,1,3.17.65,4.46,4.46,0,0,1,1.94,1.77,5.09,5.09,0,0,1,.64,2.58,4.6,4.6,0,0,1-.94,2.92,4.9,4.9,0,0,1-2.76,1.65l3.75,6.19Zm-4.29-8.56h2.37a2.4,2.4,0,0,0,1.67-.5,1.92,1.92,0,0,0,.53-1.48,2,2,0,0,0-.54-1.47,2.29,2.29,0,0,0-1.66-.54H135.1Z"/><path class="cls-1" d="M5.62,55.32H3l-.44,1.29H.72l2.59-7h2l2.59,7H6.06ZM5.18,54l-.89-2.6L3.4,54Z"/><path class="cls-1" d="M14.83,56.61H13.12l-2.87-4.34v4.34H8.54V49.54h1.71l2.87,4.38V49.54h1.71Z"/><path class="cls-1" d="M21.93,54.91a3,3,0,0,1-1.28,1.25,4.09,4.09,0,0,1-2,.45H16V49.54h2.67a4.13,4.13,0,0,1,2,.44,3,3,0,0,1,1.27,1.24,3.69,3.69,0,0,1,.45,1.84A3.75,3.75,0,0,1,21.93,54.91Zm-1.84-.36a2.26,2.26,0,0,0,0-3A2.14,2.14,0,0,0,18.53,51h-.81v4h.81A2.14,2.14,0,0,0,20.09,54.55Z"/><path class="cls-1" d="M29,56.61l-1.54-2.67h-.39v2.67H25.35V49.54h2.93a3.08,3.08,0,0,1,1.42.29,2,2,0,0,1,.87.79,2.32,2.32,0,0,1,.29,1.16,2,2,0,0,1-.43,1.31,2.13,2.13,0,0,1-1.23.74l1.68,2.78Zm-1.93-3.84h1.07a1.07,1.07,0,0,0,.75-.23,1,1,0,0,0,0-1.32,1,1,0,0,0-.74-.24H27.06Z"/><path class="cls-1" d="M33.43,50.9v1.48h2.4v1.29h-2.4v1.57h2.7v1.37H31.72V49.54h4.41V50.9Z"/><path class="cls-1" d="M41.9,55.65a1.93,1.93,0,0,1-.84.75,2.93,2.93,0,0,1-1.35.28,3.15,3.15,0,0,1-2-.58,2,2,0,0,1-.84-1.62h1.82a.93.93,0,0,0,.29.63.84.84,0,0,0,.62.23.73.73,0,0,0,.52-.18.62.62,0,0,0,.19-.48.64.64,0,0,0-.17-.45,1.35,1.35,0,0,0-.44-.29c-.17-.08-.41-.17-.72-.28a9.25,9.25,0,0,1-1.1-.44,2.13,2.13,0,0,1-.73-.65,1.86,1.86,0,0,1-.3-1.1,1.8,1.8,0,0,1,.32-1.09,2,2,0,0,1,.88-.71,3.31,3.31,0,0,1,1.3-.25,2.89,2.89,0,0,1,1.88.57,2.13,2.13,0,0,1,.78,1.54H40.2A1,1,0,0,0,40,51a.8.8,0,0,0-.56-.2.68.68,0,0,0-.48.16.56.56,0,0,0-.19.47.58.58,0,0,0,.16.42,1.26,1.26,0,0,0,.42.29c.17.07.41.17.72.28a6.11,6.11,0,0,1,1.11.46,2,2,0,0,1,.74.65,1.86,1.86,0,0,1,.31,1.12A1.92,1.92,0,0,1,41.9,55.65Z"/><path class="cls-1" d="M44.85,54.13v2.48H43.14V49.54h2.77a2.67,2.67,0,0,1,1.92.62,2.22,2.22,0,0,1,.66,1.69A2.43,2.43,0,0,1,48.2,53a2.1,2.1,0,0,1-.88.81,3.19,3.19,0,0,1-1.41.29Zm1.9-2.28c0-.62-.34-.93-1-.93h-.87v1.84h.87C46.41,52.76,46.75,52.46,46.75,51.85Z"/><path class="cls-1" d="M51.05,50.9v1.48h2.39v1.29H51.05v1.57h2.69v1.37H49.33V49.54h4.41V50.9Z"/><path class="cls-1" d="M60.18,50.18a3.22,3.22,0,0,1,1.15,1.92H59.52a1.66,1.66,0,0,0-1.6-1.05,1.5,1.5,0,0,0-1.22.55,2.58,2.58,0,0,0,0,2.94,1.52,1.52,0,0,0,1.22.54,1.69,1.69,0,0,0,1-.28,1.66,1.66,0,0,0,.62-.76h1.81A3.28,3.28,0,0,1,60.18,56a3.41,3.41,0,0,1-2.23.72,3.59,3.59,0,0,1-1.82-.46,3,3,0,0,1-1.2-1.28,4.28,4.28,0,0,1,0-3.74,3.09,3.09,0,0,1,1.2-1.28A3.59,3.59,0,0,1,58,49.47,3.41,3.41,0,0,1,60.18,50.18Z"/><path class="cls-1" d="M67.38,49.54V50.9H65.46v5.71H63.73V50.9h-1.9V49.54Z"/><path class="cls-1" d="M75.19,49.54V50.9H73.27v5.71H71.54V50.9h-1.9V49.54Z"/><path class="cls-1" d="M82,49.54v7.07H80.3v-3H77.62v3H75.91V49.54h1.71v2.74H80.3V49.54Z"/><path class="cls-1" d="M84.92,50.9v1.48h2.39v1.29H84.92v1.57h2.69v1.37h-4.4V49.54h4.4V50.9Z"/><path class="cls-1" d="M90.3,49.54v7.07H88.59V49.54Z"/><path class="cls-1" d="M95.11,56.61l-1.53-2.67h-.39v2.67H91.48V49.54H94.4a3.12,3.12,0,0,1,1.43.29,2,2,0,0,1,.87.79A2.32,2.32,0,0,1,97,51.78a2.08,2.08,0,0,1-.43,1.31,2.13,2.13,0,0,1-1.23.74L97,56.61Zm-1.92-3.84h1.06a1.07,1.07,0,0,0,.75-.23.86.86,0,0,0,.24-.66.89.89,0,0,0-.24-.66,1,1,0,0,0-.75-.24H93.19Z"/><path class="cls-1" d="M101.56,54.13v2.48H99.85V49.54h2.77a2.68,2.68,0,0,1,1.93.62,2.22,2.22,0,0,1,.66,1.69,2.33,2.33,0,0,1-.3,1.18,2.07,2.07,0,0,1-.87.81,3.21,3.21,0,0,1-1.42.29Zm1.91-2.28c0-.62-.35-.93-1-.93h-.87v1.84h.87C103.12,52.76,103.47,52.46,103.47,51.85Z"/><path class="cls-1" d="M109.68,56.61l-1.53-2.67h-.39v2.67h-1.71V49.54H109a3,3,0,0,1,1.42.29,2,2,0,0,1,.88.79,2.32,2.32,0,0,1,.29,1.16,2.08,2.08,0,0,1-.43,1.31,2.16,2.16,0,0,1-1.24.74l1.69,2.78Zm-1.92-3.84h1.06a1.07,1.07,0,0,0,.75-.23.86.86,0,0,0,.24-.66.89.89,0,0,0-.24-.66,1,1,0,0,0-.75-.24h-1.06Z"/><path class="cls-1" d="M114.13,49.54v7.07h-1.71V49.54Z"/><path class="cls-1" d="M116.63,49.54l1.73,5.32,1.74-5.32h1.83l-2.46,7.07h-2.22l-2.45-7.07Z"/><path class="cls-1" d="M127,55.32h-2.66l-.44,1.29h-1.8l2.59-7h2l2.59,7h-1.82Zm-.44-1.3-.89-2.6-.89,2.6Z"/><path class="cls-1" d="M135.37,50.18a3.22,3.22,0,0,1,1.15,1.92h-1.81a1.69,1.69,0,0,0-.62-.77,1.72,1.72,0,0,0-1-.28,1.5,1.5,0,0,0-1.21.55,2.58,2.58,0,0,0,0,2.94,1.52,1.52,0,0,0,1.21.54,1.72,1.72,0,0,0,1-.28,1.66,1.66,0,0,0,.62-.76h1.81A3.28,3.28,0,0,1,135.37,56a3.42,3.42,0,0,1-2.24.72,3.58,3.58,0,0,1-1.81-.46,3,3,0,0,1-1.2-1.28,4.28,4.28,0,0,1,0-3.74,3.09,3.09,0,0,1,1.2-1.28,3.57,3.57,0,0,1,1.81-.45A3.42,3.42,0,0,1,135.37,50.18Z"/><path class="cls-1" d="M143.6,49.54l-2.46,4.72v2.35h-1.72V54.26L137,49.54h2l1.36,2.88,1.37-2.88Z"/></g></g></svg>