<svg xmlns="http://www.w3.org/2000/svg" viewBox="0 0 70.87 72.18"><defs><style>.cls-1{fill:#1d1d1b;}.cls-2{fill:#949ed0;}</style></defs><title>Middel 21</title><g id="Laag_2" data-name="Laag 2"><g id="Laag_1-2" data-name="Laag 1"><path class="cls-1" d="M4.48,0V18.52H0V0Z"/><path class="cls-1" d="M38,0,33.55,18.52H28L25,6.13l-3,12.39H16.5L12.07,0h4.87l2.39,13.41L22.57,0h4.9l3.25,13.41L33.13,0Z"/><path class="cls-1" d="M44.81,0V18.52H40.33V0Z"/><path class="cls-1" d="M52.38,15.08h6v3.44H47.9V0h4.48Z"/><path class="cls-1" d="M64.89,15.08h6v3.44H60.42V0h4.47Z"/><path class="cls-1" d="M4.63,25.63a2.45,2.45,0,0,1-1,1A3.09,3.09,0,0,1,2.09,27H0V21.44H2.09a3.24,3.24,0,0,1,1.54.34,2.46,2.46,0,0,1,1,1,3.22,3.22,0,0,1,0,2.88Zm-1.44-.28a1.51,1.51,0,0,0,.43-1.16A1.55,1.55,0,0,0,3.19,23,1.73,1.73,0,0,0,2,22.61H1.34v3.16H2A1.69,1.69,0,0,0,3.19,25.35Z"/><path class="cls-1" d="M9.78,21.71a2.72,2.72,0,0,1,1,1,3,3,0,0,1,.36,1.46,2.86,2.86,0,0,1-.37,1.46,2.67,2.67,0,0,1-1,1,2.94,2.94,0,0,1-2.82,0,2.67,2.67,0,0,1-1-1,3.07,3.07,0,0,1,0-2.92,2.72,2.72,0,0,1,1-1,2.79,2.79,0,0,1,1.41-.36A2.86,2.86,0,0,1,9.78,21.71ZM7.32,23a1.64,1.64,0,0,0-.39,1.16,1.66,1.66,0,0,0,.39,1.16,1.3,1.3,0,0,0,1,.43,1.33,1.33,0,0,0,1-.43,1.66,1.66,0,0,0,.39-1.16A1.68,1.68,0,0,0,9.4,23a1.33,1.33,0,0,0-1-.43A1.33,1.33,0,0,0,7.32,23Z"/><path class="cls-1" d="M19.69,21.48V27H18.35V23.53L17.16,27H16l-1.2-3.45V27H13.47V21.48H15.1l1.5,3.82,1.46-3.82Z"/><path class="cls-1" d="M25.39,21.44l-1.92,3.69V27H22.13V25.13l-1.92-3.69h1.53l1.07,2.25,1.06-2.25Z"/><path class="cls-1" d="M31.58,24.6a1.37,1.37,0,0,1,.29.86,1.4,1.4,0,0,1-.47,1.11A2.1,2.1,0,0,1,30,27H27.47V21.44H30a2.05,2.05,0,0,1,1.3.36,1.28,1.28,0,0,1,.47,1.05,1.26,1.26,0,0,1-.27.83,1.21,1.21,0,0,1-.7.44A1.42,1.42,0,0,1,31.58,24.6Zm-2.78-.9h.88c.46,0,.7-.2.7-.6s-.24-.59-.72-.59H28.8Zm1.7,1.57a.6.6,0,0,0-.19-.47.85.85,0,0,0-.56-.17H28.8v1.25h1C30.25,25.88,30.5,25.68,30.5,25.27Z"/><path class="cls-1" d="M33.91,22.5v1.16h1.87v1H33.91v1.22H36V27H32.57V21.44H36V22.5Z"/><path class="cls-1" d="M40.52,26.21a1.44,1.44,0,0,1-.65.59,2.28,2.28,0,0,1-1.06.22,2.48,2.48,0,0,1-1.53-.45,1.64,1.64,0,0,1-.65-1.27h1.42a.72.72,0,0,0,.22.49.69.69,0,0,0,.49.18.55.55,0,0,0,.41-.14.48.48,0,0,0,.15-.37.52.52,0,0,0-.14-.36,1.2,1.2,0,0,0-.34-.23l-.57-.21a7.67,7.67,0,0,1-.85-.35,1.59,1.59,0,0,1-.57-.5,1.43,1.43,0,0,1-.24-.86,1.45,1.45,0,0,1,.25-.86,1.64,1.64,0,0,1,.69-.55,2.49,2.49,0,0,1,1-.19,2.28,2.28,0,0,1,1.47.44,1.68,1.68,0,0,1,.62,1.2H39.2a.75.75,0,0,0-.2-.43.58.58,0,0,0-.44-.16.55.55,0,0,0-.37.12.47.47,0,0,0-.15.37.44.44,0,0,0,.13.33,1.09,1.09,0,0,0,.32.23l.57.22a6.5,6.5,0,0,1,.87.35,1.72,1.72,0,0,1,.57.51,1.43,1.43,0,0,1,.25.88A1.49,1.49,0,0,1,40.52,26.21Z"/><path class="cls-1" d="M45.46,21.44V22.5H44V27H42.62V22.5H41.13V21.44Z"/><path class="cls-1" d="M51.58,21.48v1.06H50.09V27H48.75V22.54H47.28V21.48Z"/><path class="cls-1" d="M56.15,21.76a2.67,2.67,0,0,1,1,1,3.06,3.06,0,0,1,0,2.9,2.67,2.67,0,0,1-1,1,2.9,2.9,0,0,1-2.8,0,2.74,2.74,0,0,1-1-1A3,3,0,0,1,52,24.2a2.88,2.88,0,0,1,.37-1.44,2.67,2.67,0,0,1,1-1,2.92,2.92,0,0,1,2.81,0Zm-2.44,1.29a1.65,1.65,0,0,0-.39,1.15,1.62,1.62,0,0,0,.39,1.15,1.29,1.29,0,0,0,1,.43,1.31,1.31,0,0,0,1-.43,1.62,1.62,0,0,0,.39-1.15,1.65,1.65,0,0,0-.38-1.14,1.47,1.47,0,0,0-2.07,0Z"/><path class="cls-1" d="M64.39,25.64a2.46,2.46,0,0,1-1,1,3.19,3.19,0,0,1-1.52.35H59.81V21.48h2.07a3.32,3.32,0,0,1,1.53.34,2.41,2.41,0,0,1,1,1,2.85,2.85,0,0,1,.35,1.42A2.88,2.88,0,0,1,64.39,25.64ZM63,25.37a1.56,1.56,0,0,0,.43-1.16A1.54,1.54,0,0,0,63,23.06a1.66,1.66,0,0,0-1.21-.41h-.63v3.13h.63A1.7,1.7,0,0,0,63,25.37Z"/><path class="cls-1" d="M69.5,21.76a2.53,2.53,0,0,1,1,1,2.88,2.88,0,0,1,.37,1.44,3,3,0,0,1-.37,1.46,2.74,2.74,0,0,1-1,1,2.9,2.9,0,0,1-2.8,0,2.67,2.67,0,0,1-1-1,2.86,2.86,0,0,1-.37-1.46,2.78,2.78,0,0,1,.37-1.44,2.6,2.6,0,0,1,1-1,2.9,2.9,0,0,1,2.8,0Zm-2.44,1.29a1.7,1.7,0,0,0-.38,1.15,1.66,1.66,0,0,0,.38,1.15,1.46,1.46,0,0,0,2.07,0,1.88,1.88,0,0,0,0-2.29,1.29,1.29,0,0,0-1-.43A1.34,1.34,0,0,0,67.06,23.05Z"/><path class="cls-2" d="M9.62,40.86H7L2.62,34.21v6.65H0V30H2.62L7,36.73V30H9.62Z"/><path class="cls-2" d="M19.36,30.57a5.18,5.18,0,0,1,2,2,5.71,5.71,0,0,1,.72,2.86,5.65,5.65,0,0,1-.73,2.87,5.09,5.09,0,0,1-2,2,5.74,5.74,0,0,1-5.53,0,5.13,5.13,0,0,1-2-2,6,6,0,0,1,0-5.73,5.18,5.18,0,0,1,2-2,5.71,5.71,0,0,1,5.55,0Zm-4.83,2.56a3.26,3.26,0,0,0-.76,2.27,3.29,3.29,0,0,0,.76,2.27,2.63,2.63,0,0,0,2,.84,2.64,2.64,0,0,0,2-.84,3.77,3.77,0,0,0,0-4.54,2.6,2.6,0,0,0-2-.84A2.63,2.63,0,0,0,14.53,33.13Z"/><path class="cls-2" d="M36,30V40.86H33.31V36.34H29.2v4.52H26.58V30H29.2v4.2h4.11V30Z"/><path class="cls-2" d="M44.47,38.88H40.41l-.68,2H37l4-10.76h3l4,10.76H45.14Zm-.68-2-1.35-4-1.36,4Z"/><path class="cls-2" d="M54.5,40.86l-2.34-4.09h-.6v4.09H48.94V30h4.47a4.78,4.78,0,0,1,2.18.45,3,3,0,0,1,1.33,1.22,3.43,3.43,0,0,1,.45,1.77,3.16,3.16,0,0,1-.65,2,3.41,3.41,0,0,1-1.9,1.14l2.58,4.26ZM51.56,35h1.62a1.61,1.61,0,0,0,1.15-.34,1.32,1.32,0,0,0,.37-1,1.34,1.34,0,0,0-.37-1,1.59,1.59,0,0,0-1.15-.37H51.56Z"/><path class="cls-2" d="M70.87,30.1V40.86H68.25V34.13l-2.33,6.73H63.65L61.3,34.12v6.74H58.68V30.1h3.21l2.92,7.49,2.87-7.49Z"/><path class="cls-1" d="M6.18,43.92v1.52H4V51.8H2.12V45.44H0V43.92Z"/><path class="cls-1" d="M12.75,44.32a3.73,3.73,0,0,1,1.43,1.44,4.38,4.38,0,0,1,0,4.16,3.73,3.73,0,0,1-1.43,1.44,4.16,4.16,0,0,1-4,0,3.83,3.83,0,0,1-1.44-1.44,4.16,4.16,0,0,1-.53-2.09,4.09,4.09,0,0,1,.53-2.07,3.83,3.83,0,0,1,1.44-1.44,4,4,0,0,1,2-.52A4,4,0,0,1,12.75,44.32ZM9.24,46.18a2.71,2.71,0,0,0,0,3.3,1.88,1.88,0,0,0,1.48.62,1.93,1.93,0,0,0,1.49-.62,2.33,2.33,0,0,0,.55-1.65,2.37,2.37,0,0,0-.55-1.65,1.93,1.93,0,0,0-1.49-.61A1.87,1.87,0,0,0,9.24,46.18Z"/><path class="cls-1" d="M22.89,50.37h-3l-.49,1.43h-2L20.32,44h2.2l2.89,7.82h-2Zm-.49-1.45-1-2.9-1,2.9Z"/><path class="cls-1" d="M33.14,51.8h-1.9L28.05,47V51.8H26.14V43.92h1.91l3.19,4.88V43.92h1.9Z"/><path class="cls-1" d="M41.27,43.92l-2.73,5.26V51.8H36.62V49.18l-2.73-5.26h2.18l1.52,3.21,1.52-3.21Z"/><path class="cls-1" d="M46.08,43.92v4.55a1.75,1.75,0,0,0,.36,1.19,1.24,1.24,0,0,0,1,.42,1.27,1.27,0,0,0,1-.42,1.8,1.8,0,0,0,.35-1.19V43.92h1.9v4.55a3.76,3.76,0,0,1-.43,1.88,2.86,2.86,0,0,1-1.19,1.15,3.76,3.76,0,0,1-1.7.38,3.58,3.58,0,0,1-1.67-.38,2.69,2.69,0,0,1-1.14-1.15,4,4,0,0,1-.41-1.88V43.92Z"/><path class="cls-1" d="M57.35,50.73a2.21,2.21,0,0,1-.94.84,3.26,3.26,0,0,1-1.5.31,3.47,3.47,0,0,1-2.18-.65,2.34,2.34,0,0,1-.94-1.8h2a1.07,1.07,0,0,0,.32.7,1,1,0,0,0,.7.26.85.85,0,0,0,.58-.2.73.73,0,0,0,.21-.54.69.69,0,0,0-.2-.5,1.7,1.7,0,0,0-.48-.33c-.2-.08-.46-.19-.81-.31A10.57,10.57,0,0,1,52.92,48a2.37,2.37,0,0,1-.81-.71,2.07,2.07,0,0,1-.34-1.24,2,2,0,0,1,.36-1.21,2.21,2.21,0,0,1,1-.79,3.64,3.64,0,0,1,1.45-.27,3.29,3.29,0,0,1,2.09.62,2.39,2.39,0,0,1,.87,1.72H55.46a1.08,1.08,0,0,0-.28-.62.86.86,0,0,0-.62-.23.77.77,0,0,0-.54.18.65.65,0,0,0-.21.53.67.67,0,0,0,.18.47,1.62,1.62,0,0,0,.47.32c.18.08.45.18.8.31a8.69,8.69,0,0,1,1.24.51,2.27,2.27,0,0,1,.82.73,2.07,2.07,0,0,1,.35,1.24A2.19,2.19,0,0,1,57.35,50.73Z"/><path class="cls-1" d="M60.63,45.44v1.65H63.3v1.44H60.63v1.75h3V51.8h-4.9V43.92h4.9v1.52Z"/><path class="cls-1" d="M68.76,51.8l-1.71-3h-.43v3H64.71V43.92H68a3.59,3.59,0,0,1,1.58.32,2.33,2.33,0,0,1,1,.89,2.52,2.52,0,0,1,.32,1.29,2.26,2.26,0,0,1-.47,1.46A2.37,2.37,0,0,1,69,48.7l1.88,3.1Zm-2.14-4.28H67.8a1.19,1.19,0,0,0,.84-.25,1,1,0,0,0,.26-.74,1,1,0,0,0-.27-.74,1.18,1.18,0,0,0-.83-.26H66.62Z"/><path class="cls-2" d="M5.21,61H2.39l-.47,1.37H0l2.76-7.47H4.85l2.76,7.47H5.67ZM4.74,59.6,3.8,56.83,2.85,59.6Z"/><path class="cls-2" d="M15,62.36H13.18l-3-4.62v4.62H8.32V54.83h1.82l3,4.67V54.83H15Z"/><path class="cls-2" d="M22.55,60.54a3.25,3.25,0,0,1-1.36,1.34,4.33,4.33,0,0,1-2.09.48H16.26V54.83H19.1a4.46,4.46,0,0,1,2.1.47,3.24,3.24,0,0,1,1.35,1.32,4.24,4.24,0,0,1,0,3.92Zm-2-.37a2.44,2.44,0,0,0,0-3.18,2.3,2.3,0,0,0-1.65-.56h-.86v4.3h.86A2.3,2.3,0,0,0,20.59,60.17Z"/><path class="cls-2" d="M30.05,62.36l-1.63-2.84H28v2.84H26.19V54.83H29.3a3.44,3.44,0,0,1,1.51.31,2.12,2.12,0,0,1,.92.85A2.39,2.39,0,0,1,32,57.22a2.19,2.19,0,0,1-.45,1.39,2.27,2.27,0,0,1-1.31.79l1.78,3Zm-2-4.09h1.13a1.14,1.14,0,0,0,.8-.24.92.92,0,0,0,.25-.71,1,1,0,0,0-.26-.7,1.09,1.09,0,0,0-.79-.25H28Z"/><path class="cls-2" d="M34.78,56.28v1.58h2.54v1.37H34.78V60.9h2.86v1.46H33V54.83h4.68v1.45Z"/><path class="cls-2" d="M43.78,61.34a2.17,2.17,0,0,1-.89.8,3.8,3.8,0,0,1-3.52-.32,2.24,2.24,0,0,1-.9-1.73h1.94a1,1,0,0,0,.3.67.93.93,0,0,0,.67.25.8.8,0,0,0,.55-.19.67.67,0,0,0,.21-.52.65.65,0,0,0-.19-.47,1.52,1.52,0,0,0-.46-.32c-.19-.08-.44-.18-.77-.29a9.08,9.08,0,0,1-1.17-.47,2.11,2.11,0,0,1-.77-.69,2.19,2.19,0,0,1,0-2.33,2.13,2.13,0,0,1,.94-.75,3.33,3.33,0,0,1,1.38-.26,3.09,3.09,0,0,1,2,.59A2.28,2.28,0,0,1,43.94,57H42a1,1,0,0,0-.27-.59.81.81,0,0,0-.59-.22.77.77,0,0,0-.51.17.61.61,0,0,0-.2.5.69.69,0,0,0,.17.46,1.48,1.48,0,0,0,.45.3c.17.08.43.18.76.3a7.49,7.49,0,0,1,1.18.48,2.19,2.19,0,0,1,.79.7,2,2,0,0,1,.33,1.19A2.12,2.12,0,0,1,43.78,61.34Z"/><path class="cls-2" d="M46.91,59.72v2.64H45.09V54.83H48a2.85,2.85,0,0,1,2.05.67,2.34,2.34,0,0,1,.7,1.79,2.54,2.54,0,0,1-.31,1.25,2.15,2.15,0,0,1-.94.87,3.4,3.4,0,0,1-1.5.31Zm2-2.43c0-.66-.37-1-1.1-1h-.93v2h.93C48.57,58.26,48.94,57.94,48.94,57.29Z"/><path class="cls-2" d="M53.5,56.28v1.58h2.55v1.37H53.5V60.9h2.87v1.46H51.68V54.83h4.69v1.45Z"/><path class="cls-2" d="M63.22,55.51a3.51,3.51,0,0,1,1.22,2.05H62.51a1.77,1.77,0,0,0-.65-.82,1.85,1.85,0,0,0-1-.3,1.61,1.61,0,0,0-1.29.59,2.73,2.73,0,0,0,0,3.12,1.61,1.61,0,0,0,1.29.58,1.85,1.85,0,0,0,1-.3,1.8,1.8,0,0,0,.65-.81h1.93a3.48,3.48,0,0,1-1.22,2,3.65,3.65,0,0,1-2.38.76,3.81,3.81,0,0,1-1.93-.48,3.29,3.29,0,0,1-1.28-1.36,4.63,4.63,0,0,1,0-4,3.36,3.36,0,0,1,1.28-1.36,3.81,3.81,0,0,1,1.93-.48A3.7,3.7,0,0,1,63.22,55.51Z"/><path class="cls-2" d="M70.87,54.83v1.45H68.82v6.08H67V56.28H65V54.83Z"/><path class="cls-2" d="M5.32,65.34v1.3H3.47v5.48H1.82V66.64H0v-1.3Z"/><path class="cls-2" d="M11.87,65.34v6.78H10.22V69.29H7.65v2.83H6V65.34H7.65V68h2.57V65.34Z"/><path class="cls-2" d="M14.64,66.64v1.42h2.29V69.3H14.64v1.5h2.58v1.32H13V65.34h4.22v1.3Z"/><path class="cls-2" d="M19.79,65.34v6.78H18.15V65.34Z"/><path class="cls-2" d="M24.41,72.12l-1.47-2.56h-.37v2.56H20.93V65.34h2.8a3.11,3.11,0,0,1,1.36.27,1.88,1.88,0,0,1,.83.77,2.12,2.12,0,0,1,.28,1.1,1.91,1.91,0,0,1-.41,1.26,2,2,0,0,1-1.18.71l1.61,2.67Zm-1.84-3.69h1a1,1,0,0,0,.72-.21.82.82,0,0,0,.23-.64A.85.85,0,0,0,24.3,67a1,1,0,0,0-.72-.23h-1Z"/><path class="cls-2" d="M30.59,69.74v2.38H29V65.34h2.66a2.6,2.6,0,0,1,1.84.6,2.11,2.11,0,0,1,.63,1.61,2.23,2.23,0,0,1-.28,1.13,2,2,0,0,1-.84.78,2.93,2.93,0,0,1-1.35.28Zm1.82-2.19c0-.59-.33-.89-1-.89h-.83v1.77h.83C32.08,68.43,32.41,68.13,32.41,67.55Z"/><path class="cls-2" d="M38.37,72.12,36.9,69.56h-.37v2.56H34.89V65.34h2.8a3.11,3.11,0,0,1,1.36.27,1.88,1.88,0,0,1,.83.77,2.12,2.12,0,0,1,.28,1.1,2,2,0,0,1-.4,1.26,2.11,2.11,0,0,1-1.19.71l1.61,2.67Zm-1.84-3.69h1a1,1,0,0,0,.72-.21.82.82,0,0,0,.23-.64.82.82,0,0,0-.23-.63,1,1,0,0,0-.72-.23h-1Z"/><path class="cls-2" d="M42.63,65.34v6.78H41V65.34Z"/><path class="cls-2" d="M45,65.34l1.66,5.1,1.66-5.1H50.1l-2.36,6.78H45.62l-2.35-6.78Z"/><path class="cls-2" d="M54.94,70.88H52.4L52,72.12H50.25l2.48-6.74h1.89l2.49,6.74H55.36Zm-.42-1.25-.85-2.49-.85,2.49Z"/><path class="cls-2" d="M63,66a3.06,3.06,0,0,1,1.1,1.84H62.35a1.58,1.58,0,0,0-1.54-1,1.44,1.44,0,0,0-1.16.53,2.48,2.48,0,0,0,0,2.82,1.43,1.43,0,0,0,1.16.52,1.66,1.66,0,0,0,.95-.27,1.64,1.64,0,0,0,.59-.73h1.73A3.09,3.09,0,0,1,63,71.49a3.27,3.27,0,0,1-2.14.69,3.41,3.41,0,0,1-1.74-.44A2.94,2.94,0,0,1,58,70.52a3.79,3.79,0,0,1-.41-1.8A3.72,3.72,0,0,1,58,66.93a2.88,2.88,0,0,1,1.15-1.22A3.69,3.69,0,0,1,63,66Z"/><path class="cls-2" d="M70.87,65.34l-2.35,4.52v2.26H66.87V69.86l-2.36-4.52H66.4l1.3,2.76L69,65.34Z"/></g></g></svg>