<?xml version="1.0" encoding="UTF-8"?>
<svg width="134px" height="72px" viewBox="0 0 134 72" version="1.1" xmlns="http://www.w3.org/2000/svg" xmlns:xlink="http://www.w3.org/1999/xlink">
    <!-- Generator: Sketch 52.5 (67469) - http://www.bohemiancoding.com/sketch -->
    <title>Purple Ethic Copy 38</title>
    <desc>Created with Sketch.</desc>
    <g id="Page-1" stroke="none" stroke-width="1" fill="none" fill-rule="evenodd">
        <g id="WebsiteRood" transform="translate(-20.000000, -204.000000)">
            <g id="Purple-Ethic-Copy-38" transform="translate(20.000000, 204.000000)">
                <path d="M61,72 L10,72 C10,64 1.82071025e-12,54 1.8189894e-12,36 C1.8189894e-12,18 10,8 10,0 L61,0 C61,3.3137085 63.6862915,6 67,6 C70.3137085,6 73,3.3137085 73,0 L124,0 C124,8 134,18 134,36 C134,54 124,64 124,72 L73,72 C73,68.6862915 70.3137085,66 67,66 C63.6862915,66 61,68.6862915 61,72 Z" id="Combined-Shape" fill="#F5471F"></path>
                <text id="g-o-to" font-family="AnonymousPro-Regular, Anonymous Pro" font-size="12" font-weight="normal" fill="#000000">
                    <tspan x="16" y="20">g o to</tspan>
                </text>
                <text id="go-to" font-family="AnonymousPro-Regular, Anonymous Pro" font-size="12" font-weight="normal" fill="#000000">
                    <tspan x="85" y="20">go to</tspan>
                </text>
                <text id="go-to-copy" font-family="AnonymousPro-Regular, Anonymous Pro" font-size="12" font-weight="normal" fill="#000000">
                    <tspan x="16" y="60">go to</tspan>
                </text>
                <text id="g-o-to" font-family="AnonymousPro-Regular, Anonymous Pro" font-size="12" font-weight="normal" fill="#000000">
                    <tspan x="78" y="60">g o to</tspan>
                </text>
                <text id="thedesignersoath.com" font-family="AnonymousPro-Regular, Anonymous Pro" font-size="8" font-weight="normal" fill="#000000">
                    <tspan x="23" y="38">thedesignersoath.com</tspan>
                </text>
            </g>
        </g>
    </g>
</svg>