<svg xmlns="http://www.w3.org/2000/svg" viewBox="0 0 70.87 82.1"><defs><style>.cls-1{fill:#1d1d1b;}</style></defs><title>Middel 8</title><g id="Laag_2" data-name="Laag 2"><g id="Laag_1-2" data-name="Laag 1"><path class="cls-1" d="M4.48,0V18.52H0V0Z"/><path class="cls-1" d="M38,0,33.55,18.52H28L25,6.13l-3,12.39H16.5L12.07,0h4.87l2.39,13.41L22.57,0h4.9l3.25,13.41L33.13,0Z"/><path class="cls-1" d="M44.81,0V18.52H40.33V0Z"/><path class="cls-1" d="M52.38,15.08h6v3.44H47.9V0h4.48Z"/><path class="cls-1" d="M64.89,15.08h6v3.44H60.42V0h4.47Z"/><path class="cls-1" d="M15.79,21.35v3.88H10.32V41.5H5.41V25.23H0V21.35Z"/><path class="cls-1" d="M30.33,37.83H22.78L21.52,41.5H16.39l7.38-20h5.62l7.38,20H31.59Zm-1.25-3.71-2.51-7.41L24,34.12Z"/><path class="cls-1" d="M48.15,31.21,56.27,41.5h-5.9l-6.84-9v9H38.65V21.35h4.88v8.87l6.9-8.87h5.84Z"/><path class="cls-1" d="M63.2,25.23v4.22H70v3.67H63.2V37.6h7.67v3.9H58.32V21.35H70.87v3.88Z"/><path class="cls-1" d="M3.33,50.93l-1.4-2.45H1.57v2.45H0V44.44H2.68a2.84,2.84,0,0,1,1.3.27,1.78,1.78,0,0,1,.8.73,2,2,0,0,1,.27,1.06,1.88,1.88,0,0,1-.39,1.2,2,2,0,0,1-1.14.68l1.55,2.55ZM1.57,47.4h1a1,1,0,0,0,.69-.2.79.79,0,0,0,.22-.61A.82.82,0,0,0,3.23,46a.94.94,0,0,0-.69-.22h-1Z"/><path class="cls-1" d="M7.41,45.69v1.36H9.6v1.18H7.41v1.44H9.87v1.26h-4V44.44h4v1.25Z"/><path class="cls-1" d="M15.17,50.05a2,2,0,0,1-.78.69,2.73,2.73,0,0,1-1.23.25,2.94,2.94,0,0,1-1.8-.53A1.92,1.92,0,0,1,10.59,49h1.67a.9.9,0,0,0,.26.58.81.81,0,0,0,.58.21.64.64,0,0,0,.47-.16.57.57,0,0,0,.18-.44.61.61,0,0,0-.16-.42,1.28,1.28,0,0,0-.4-.27l-.66-.25a8.33,8.33,0,0,1-1-.41,1.84,1.84,0,0,1-.67-.58,1.78,1.78,0,0,1-.28-1,1.69,1.69,0,0,1,.3-1,1.82,1.82,0,0,1,.81-.65,2.94,2.94,0,0,1,1.19-.22,2.69,2.69,0,0,1,1.72.51,2,2,0,0,1,.72,1.42h-1.7a.87.87,0,0,0-.23-.51.69.69,0,0,0-.51-.19.64.64,0,0,0-.45.15.54.54,0,0,0-.17.43.56.56,0,0,0,.15.39,1.34,1.34,0,0,0,.38.26l.66.26a7.92,7.92,0,0,1,1,.41,1.94,1.94,0,0,1,.68.6,1.74,1.74,0,0,1,.29,1A1.86,1.86,0,0,1,15.17,50.05Z"/><path class="cls-1" d="M17.87,48.65v2.28H16.3V44.44h2.54A2.47,2.47,0,0,1,20.6,45a2,2,0,0,1,.61,1.55,2.16,2.16,0,0,1-.27,1.08,1.88,1.88,0,0,1-.81.74,2.8,2.8,0,0,1-1.29.27Zm1.74-2.09c0-.57-.31-.85-.94-.85h-.8v1.68h.8C19.3,47.39,19.61,47.12,19.61,46.56Z"/><path class="cls-1" d="M26.73,44.77A3,3,0,0,1,27.91,46a3.34,3.34,0,0,1,.43,1.71,3.41,3.41,0,0,1-.44,1.72,3.14,3.14,0,0,1-1.18,1.19,3.47,3.47,0,0,1-3.31,0,3.16,3.16,0,0,1-1.19-1.19,3.41,3.41,0,0,1-.43-1.72A3.34,3.34,0,0,1,22.22,46a3.07,3.07,0,0,1,1.19-1.18,3.42,3.42,0,0,1,3.32,0ZM23.84,46.3a2.24,2.24,0,0,0,0,2.72,1.74,1.74,0,0,0,2.44,0,1.93,1.93,0,0,0,.46-1.36,2,2,0,0,0-.45-1.36,1.58,1.58,0,0,0-1.23-.5A1.54,1.54,0,0,0,23.84,46.3Z"/><path class="cls-1" d="M35,50.93H33.41l-2.62-4v4H29.22V44.44h1.57l2.62,4v-4H35Z"/><path class="cls-1" d="M40.47,50.05a2,2,0,0,1-.77.69,2.77,2.77,0,0,1-1.24.25,2.94,2.94,0,0,1-1.8-.53A1.92,1.92,0,0,1,35.89,49h1.67a.9.9,0,0,0,.26.58.81.81,0,0,0,.58.21.64.64,0,0,0,.47-.16.57.57,0,0,0,.18-.44.57.57,0,0,0-.16-.42,1.28,1.28,0,0,0-.4-.27l-.66-.25a8.33,8.33,0,0,1-1-.41,1.84,1.84,0,0,1-.67-.58,1.78,1.78,0,0,1-.28-1,1.69,1.69,0,0,1,.3-1,1.82,1.82,0,0,1,.81-.65,2.94,2.94,0,0,1,1.19-.22,2.69,2.69,0,0,1,1.72.51,2,2,0,0,1,.72,1.42h-1.7a.87.87,0,0,0-.23-.51.69.69,0,0,0-.51-.19.66.66,0,0,0-.45.15.54.54,0,0,0-.17.43.56.56,0,0,0,.15.39,1.5,1.5,0,0,0,.38.26l.67.26a8.33,8.33,0,0,1,1,.41,1.94,1.94,0,0,1,.68.6,1.74,1.74,0,0,1,.29,1A1.86,1.86,0,0,1,40.47,50.05Z"/><path class="cls-1" d="M43.17,44.44v6.49H41.6V44.44Z"/><path class="cls-1" d="M49.07,48.16a1.54,1.54,0,0,1,.35,1,1.62,1.62,0,0,1-.56,1.3,2.41,2.41,0,0,1-1.59.47h-3V44.44h3a2.38,2.38,0,0,1,1.53.43,1.49,1.49,0,0,1,.54,1.23,1.51,1.51,0,0,1-.31,1,1.44,1.44,0,0,1-.82.51A1.58,1.58,0,0,1,49.07,48.16Zm-3.25-1.07h1c.54,0,.82-.23.82-.7s-.28-.69-.84-.69h-1Zm2,1.85a.66.66,0,0,0-.23-.55,1,1,0,0,0-.65-.2H45.82v1.46h1.12C47.52,49.65,47.81,49.41,47.81,48.94Z"/><path class="cls-1" d="M51.81,44.44v6.49H50.24V44.44Z"/><path class="cls-1" d="M54.47,49.73h2.09v1.2H52.9V44.44h1.57Z"/><path class="cls-1" d="M58.85,44.44v6.49H57.28V44.44Z"/><path class="cls-1" d="M64.6,44.44v1.25H62.84v5.24H61.26V45.69H59.51V44.44Z"/><path class="cls-1" d="M70.87,44.44l-2.25,4.33v2.16H67V48.77l-2.25-4.33h1.8l1.25,2.64,1.25-2.64Z"/><path class="cls-1" d="M8.83,54v2.6H3.28v3H7.57v2.5H3.28v5.48H0V54Z"/><path class="cls-1" d="M20.44,54.72a6.48,6.48,0,0,1,2.46,2.47,7.53,7.53,0,0,1,0,7.16,6.54,6.54,0,0,1-2.47,2.48,7.17,7.17,0,0,1-6.92,0A6.54,6.54,0,0,1,11,64.35a7.07,7.07,0,0,1-.91-3.59A7,7,0,0,1,11,57.19a6.58,6.58,0,0,1,2.47-2.47A6.81,6.81,0,0,1,17,53.83,6.83,6.83,0,0,1,20.44,54.72Zm-6,3.2a4.72,4.72,0,0,0,0,5.68A3.28,3.28,0,0,0,17,64.65a3.29,3.29,0,0,0,2.55-1.05,4.69,4.69,0,0,0,0-5.67A3.29,3.29,0,0,0,17,56.87,3.28,3.28,0,0,0,14.4,57.92Z"/><path class="cls-1" d="M32.6,67.59l-2.94-5.12h-.74v5.12H25.64V54h5.6a6.05,6.05,0,0,1,2.72.55,3.8,3.8,0,0,1,1.66,1.53,4.25,4.25,0,0,1,.56,2.21,4,4,0,0,1-.81,2.51A4.24,4.24,0,0,1,33,62.26l3.22,5.33Zm-3.68-7.36h2a2.05,2.05,0,0,0,1.43-.43,2,2,0,0,0,0-2.54A2,2,0,0,0,31,56.8h-2Z"/><path class="cls-1" d="M56.9,54.13V67.59H53.62V59.17l-2.91,8.42H47.87l-2.93-8.43v8.43H41.66V54.13h4l3.66,9.37,3.58-9.37Z"/><path class="cls-1" d="M70.87,54l-4.7,9v4.51H62.88V63.08l-4.7-9h3.76l2.6,5.52L67.15,54Z"/><path class="cls-1" d="M7.79,79.94H3.57l-.7,2H0L4.13,70.81H7.26L11.39,82H8.49Zm-.7-2.07-1.4-4.15L4.27,77.87Z"/><path class="cls-1" d="M21.14,71.75A5.12,5.12,0,0,1,23,74.81H20.08a2.66,2.66,0,0,0-1-1.23,2.71,2.71,0,0,0-1.57-.44,2.38,2.38,0,0,0-1.92.87,3.55,3.55,0,0,0-.74,2.34,3.51,3.51,0,0,0,.74,2.34,2.4,2.4,0,0,0,1.92.86,2.71,2.71,0,0,0,1.57-.44,2.66,2.66,0,0,0,1-1.21H23a5.18,5.18,0,0,1-1.82,3,5.49,5.49,0,0,1-3.56,1.14,5.65,5.65,0,0,1-2.88-.73,4.89,4.89,0,0,1-1.92-2,6.87,6.87,0,0,1,0-6,5,5,0,0,1,1.92-2,5.65,5.65,0,0,1,2.88-.72A5.54,5.54,0,0,1,21.14,71.75Z"/><path class="cls-1" d="M32.58,70.73V72.9h-3V82H26.79V72.9h-3V70.73Z"/><path class="cls-1" d="M36.45,70.73V82H33.73V70.73Z"/><path class="cls-1" d="M46.57,71.3a5.31,5.31,0,0,1,2,2,6.24,6.24,0,0,1,0,6,5.41,5.41,0,0,1-2,2.06,5.77,5.77,0,0,1-2.88.74,5.71,5.71,0,0,1-2.87-.74,5.43,5.43,0,0,1-2.06-2.06,6.28,6.28,0,0,1,0-6,5.41,5.41,0,0,1,2.06-2,6,6,0,0,1,5.76,0Zm-5,2.66a3.33,3.33,0,0,0-.79,2.36,3.39,3.39,0,0,0,.79,2.36,2.71,2.71,0,0,0,2.12.87,2.74,2.74,0,0,0,2.12-.87,3.39,3.39,0,0,0,.8-2.36A3.43,3.43,0,0,0,45.81,74a2.74,2.74,0,0,0-2.13-.87A2.71,2.71,0,0,0,41.56,74Z"/><path class="cls-1" d="M60.9,82H58.17l-4.55-6.91V82H50.9V70.73h2.72l4.55,7v-7H60.9Z"/><path class="cls-1" d="M70.41,80.46a3.24,3.24,0,0,1-1.33,1.2,4.85,4.85,0,0,1-2.15.44,5.09,5.09,0,0,1-3.12-.92,3.37,3.37,0,0,1-1.34-2.58h2.9a1.56,1.56,0,0,0,.46,1,1.37,1.37,0,0,0,1,.37,1.16,1.16,0,0,0,.83-.29,1,1,0,0,0,.3-.76,1,1,0,0,0-.28-.72,2.05,2.05,0,0,0-.69-.47c-.28-.12-.66-.27-1.15-.44a13.12,13.12,0,0,1-1.74-.71,3.12,3.12,0,0,1-1.16-1,2.89,2.89,0,0,1-.49-1.76A3,3,0,0,1,63,72.07,3.22,3.22,0,0,1,64.36,71a5.15,5.15,0,0,1,2.06-.39,4.59,4.59,0,0,1,3,.89,3.4,3.4,0,0,1,1.25,2.45h-3a1.45,1.45,0,0,0-.4-.88,1.19,1.19,0,0,0-.89-.33,1.13,1.13,0,0,0-.77.25.92.92,0,0,0-.29.75.93.93,0,0,0,.26.68,1.76,1.76,0,0,0,.66.45c.27.12.65.27,1.15.45a11.7,11.7,0,0,1,1.76.72A3.36,3.36,0,0,1,70.37,77a3,3,0,0,1,.5,1.78A3,3,0,0,1,70.41,80.46Z"/></g></g></svg>