<svg xmlns="http://www.w3.org/2000/svg" viewBox="0 0 70.87 50.84"><defs><style>.cls-1{fill:#1d1d1b;}.cls-2{fill:#949ed0;}</style></defs><title>Middel 19</title><g id="Laag_2" data-name="Laag 2"><g id="Laag_1-2" data-name="Laag 1"><path class="cls-1" d="M2.23,0V9.24H0V0Z"/><path class="cls-1" d="M18.94,0,16.73,9.24H14L12.49,3.06,11,9.24H8.23L6,0H8.45L9.64,6.69,11.26,0H13.7l1.62,6.69L16.52,0Z"/><path class="cls-1" d="M22.35,0V9.24H20.12V0Z"/><path class="cls-1" d="M26.13,7.52h3V9.24H23.89V0h2.24Z"/><path class="cls-1" d="M32.37,7.52h3V9.24H30.14V0h2.23Z"/><path class="cls-1" d="M45.63,0V1.78H43.12V9.24H40.87V1.78H38.39V0Z"/><path class="cls-1" d="M52.29,7.55H48.83l-.58,1.69H45.9L49.29.07h2.57l3.38,9.17H52.87Zm-.57-1.7L50.57,2.46,49.4,5.85Z"/><path class="cls-1" d="M60.45,4.52l3.73,4.72H61.47L58.34,5.09V9.24H56.1V0h2.24V4.06L61.5,0h2.68Z"/><path class="cls-1" d="M67.35,1.78V3.71h3.12V5.4H67.35V7.45h3.52V9.24H65.12V0h5.75V1.78Z"/><path class="cls-2" d="M6.75,25.42l-2.85-5H3.18v5H0V12.28H5.43a5.86,5.86,0,0,1,2.64.53,3.77,3.77,0,0,1,1.62,1.48,4.34,4.34,0,0,1,.53,2.15,3.77,3.77,0,0,1-.79,2.43,4,4,0,0,1-2.29,1.38l3.12,5.17ZM3.18,18.28h2a2,2,0,0,0,1.39-.42A1.6,1.6,0,0,0,7,16.63a1.61,1.61,0,0,0-.46-1.23A1.88,1.88,0,0,0,5.15,15h-2Z"/><path class="cls-2" d="M15,14.8v2.75h4.45V20H15v2.92h5v2.55H11.82V12.28H20V14.8Z"/><path class="cls-2" d="M30.72,23.63A3.68,3.68,0,0,1,29.16,25a5.47,5.47,0,0,1-2.5.52A5.9,5.9,0,0,1,23,24.47a3.93,3.93,0,0,1-1.56-3h3.39a1.76,1.76,0,0,0,.53,1.17,1.6,1.6,0,0,0,1.16.43,1.3,1.3,0,0,0,1-.34,1.15,1.15,0,0,0,.36-.89,1.17,1.17,0,0,0-.33-.84,2.39,2.39,0,0,0-.81-.54c-.32-.15-.76-.32-1.33-.52a17.12,17.12,0,0,1-2-.82A3.85,3.85,0,0,1,22,17.92a3.44,3.44,0,0,1-.56-2.06,3.41,3.41,0,0,1,.59-2,3.79,3.79,0,0,1,1.65-1.31,5.87,5.87,0,0,1,2.4-.46,5.42,5.42,0,0,1,3.49,1A4,4,0,0,1,31,16H27.57a1.8,1.8,0,0,0-.47-1,1.43,1.43,0,0,0-1-.38,1.32,1.32,0,0,0-.9.3,1.09,1.09,0,0,0-.34.87,1.11,1.11,0,0,0,.3.79,2.29,2.29,0,0,0,.78.53c.31.14.75.31,1.33.52a15.26,15.26,0,0,1,2.07.85,3.87,3.87,0,0,1,1.37,1.22,3.42,3.42,0,0,1,.58,2.08A3.64,3.64,0,0,1,30.72,23.63Z"/><path class="cls-2" d="M36.19,20.81v4.61H33V12.28h5.15a5,5,0,0,1,3.57,1.16A4.13,4.13,0,0,1,43,16.57a4.23,4.23,0,0,1-.55,2.18,3.77,3.77,0,0,1-1.62,1.51,5.7,5.7,0,0,1-2.62.55Zm3.54-4.24c0-1.15-.64-1.73-1.92-1.73H36.19v3.42h1.62C39.09,18.26,39.73,17.7,39.73,16.57Z"/><path class="cls-2" d="M54.14,12.93a6.33,6.33,0,0,1,2.39,2.4,6.83,6.83,0,0,1,.88,3.47,6.88,6.88,0,0,1-.89,3.48,6.26,6.26,0,0,1-2.39,2.4,6.92,6.92,0,0,1-6.72,0A6.19,6.19,0,0,1,45,22.28a6.88,6.88,0,0,1-.89-3.48A6.84,6.84,0,0,1,45,15.33a6.33,6.33,0,0,1,2.39-2.4,7,7,0,0,1,6.73,0ZM48.29,16a3.94,3.94,0,0,0-.92,2.76,3.93,3.93,0,0,0,.92,2.75,3.51,3.51,0,0,0,5,0,3.93,3.93,0,0,0,.93-2.75,4,4,0,0,0-.92-2.75,3.54,3.54,0,0,0-5,0Z"/><path class="cls-2" d="M70.87,25.42H67.69l-5.32-8.07v8.07H59.19V12.28h3.18l5.32,8.14V12.28h3.18Z"/><path class="cls-2" d="M9.3,39.94a3.68,3.68,0,0,1-1.56,1.4,5.47,5.47,0,0,1-2.5.52A5.87,5.87,0,0,1,1.6,40.78a3.87,3.87,0,0,1-1.56-3H3.42A1.78,1.78,0,0,0,4,38.94a1.6,1.6,0,0,0,1.16.43,1.34,1.34,0,0,0,1-.34,1.18,1.18,0,0,0,.35-.89,1.2,1.2,0,0,0-.32-.84,2.61,2.61,0,0,0-.81-.54A14.07,14.07,0,0,0,4,36.25a18.79,18.79,0,0,1-2-.83A3.72,3.72,0,0,1,.57,34.23a3.43,3.43,0,0,1-.57-2,3.49,3.49,0,0,1,.59-2,3.79,3.79,0,0,1,1.65-1.31,6.06,6.06,0,0,1,2.41-.46,5.41,5.41,0,0,1,3.48,1,4,4,0,0,1,1.46,2.87H6.15a1.8,1.8,0,0,0-.47-1,1.42,1.42,0,0,0-1-.38,1.29,1.29,0,0,0-.9.3,1.1,1.1,0,0,0-.35.88,1.06,1.06,0,0,0,.31.78,2.16,2.16,0,0,0,.77.53c.31.14.75.31,1.34.53a14,14,0,0,1,2.06.84A4.09,4.09,0,0,1,9.26,36,3.48,3.48,0,0,1,9.83,38,3.55,3.55,0,0,1,9.3,39.94Z"/><path class="cls-2" d="M14.78,28.59V41.73H11.6V28.59Z"/><path class="cls-2" d="M26.74,36.12a3.15,3.15,0,0,1,.69,2,3.26,3.26,0,0,1-1.12,2.64,4.9,4.9,0,0,1-3.23.95H17V28.59h6a4.9,4.9,0,0,1,3.11.87A3,3,0,0,1,27.13,32a3.07,3.07,0,0,1-.63,2,2.88,2.88,0,0,1-1.65,1A3.32,3.32,0,0,1,26.74,36.12ZM20.15,34h2.08q1.65,0,1.65-1.41c0-.94-.56-1.42-1.69-1.42h-2Zm4,3.74a1.38,1.38,0,0,0-.47-1.11,1.92,1.92,0,0,0-1.31-.4H20.15v3h2.26Q24.18,39.14,24.18,37.7Z"/><path class="cls-2" d="M32.28,28.59V41.73H29.1V28.59Z"/><path class="cls-2" d="M37.65,39.29h4.24v2.44H34.48V28.59h3.17Z"/><path class="cls-2" d="M46.54,28.59V41.73H43.36V28.59Z"/><path class="cls-2" d="M58.17,28.59v2.53H54.6V41.73H51.41V31.12H47.88V28.59Z"/><path class="cls-2" d="M70.87,28.59l-4.56,8.77v4.37H63.12V37.36l-4.56-8.77h3.65l2.52,5.35,2.53-5.35Z"/><path class="cls-1" d="M3.91,44.79v1.15H1.45v1.31h1.9v1.1H1.45v2.43H0v-6Z"/><path class="cls-1" d="M9,45.09a2.85,2.85,0,0,1,1.09,1.09,3.19,3.19,0,0,1,.39,1.58,3.13,3.13,0,0,1-.4,1.59A2.92,2.92,0,0,1,9,50.44a3,3,0,0,1-1.53.4A3,3,0,0,1,6,50.44a2.85,2.85,0,0,1-1.09-1.09,3.14,3.14,0,0,1-.41-1.59,3.1,3.1,0,0,1,.41-1.58A2.79,2.79,0,0,1,6,45.09a3,3,0,0,1,1.53-.4A3,3,0,0,1,9,45.09ZM6.37,46.5A1.81,1.81,0,0,0,6,47.76,1.78,1.78,0,0,0,6.37,49a1.41,1.41,0,0,0,1.13.47A1.44,1.44,0,0,0,8.63,49a2.07,2.07,0,0,0,0-2.5A1.46,1.46,0,0,0,7.5,46,1.43,1.43,0,0,0,6.37,46.5Z"/><path class="cls-1" d="M14.41,50.78l-1.29-2.27h-.33v2.27H11.34v-6h2.47A2.75,2.75,0,0,1,15,45a1.72,1.72,0,0,1,.73.68,1.85,1.85,0,0,1,.25,1,1.72,1.72,0,0,1-.36,1.11,1.8,1.8,0,0,1-1.05.63L16,50.78Zm-1.62-3.26h.9a.88.88,0,0,0,.63-.19.7.7,0,0,0,.2-.56.78.78,0,0,0-.2-.56.85.85,0,0,0-.63-.2h-.9Z"/><path class="cls-1" d="M25.16,44.83v6H23.71V47.06l-1.29,3.72H21.17l-1.3-3.73v3.73H18.42v-6h1.77L21.81,49l1.59-4.14Z"/><path class="cls-1" d="M31.34,44.79l-2.08,4v2H27.8v-2l-2.07-4h1.66l1.15,2.44,1.15-2.44Z"/><path class="cls-1" d="M37.3,49.68H35.06l-.38,1.1H33.16l2.19-6H37l2.2,6H37.67Zm-.37-1.1-.75-2.2-.75,2.2Z"/><path class="cls-1" d="M44.41,45.33a2.75,2.75,0,0,1,1,1.63H43.84a1.37,1.37,0,0,0-.52-.66,1.42,1.42,0,0,0-.83-.23,1.27,1.27,0,0,0-1,.46,1.89,1.89,0,0,0-.39,1.25A1.86,1.86,0,0,0,41.46,49a1.27,1.27,0,0,0,1,.46,1.42,1.42,0,0,0,.83-.24,1.32,1.32,0,0,0,.52-.64h1.54a2.76,2.76,0,0,1-1,1.62,2.89,2.89,0,0,1-1.9.61A3,3,0,0,1,41,50.44a2.54,2.54,0,0,1-1-1.08,3.38,3.38,0,0,1-.36-1.58A3.42,3.42,0,0,1,40,46.19a2.65,2.65,0,0,1,1-1.08,3,3,0,0,1,1.53-.38A2.94,2.94,0,0,1,44.41,45.33Z"/><path class="cls-1" d="M50.5,44.79v1.15H48.87v4.84H47.41V45.94H45.8V44.79Z"/><path class="cls-1" d="M52.55,44.79v6H51.11v-6Z"/><path class="cls-1" d="M57.94,45.09A2.85,2.85,0,0,1,59,46.18a3.2,3.2,0,0,1,.4,1.58A3.14,3.14,0,0,1,59,49.35a2.85,2.85,0,0,1-1.09,1.09,3.13,3.13,0,0,1-3.06,0,2.92,2.92,0,0,1-1.09-1.09,3.13,3.13,0,0,1-.4-1.59,3.09,3.09,0,0,1,.4-1.58,2.85,2.85,0,0,1,1.09-1.09,3.15,3.15,0,0,1,3.07,0ZM55.27,46.5a1.81,1.81,0,0,0-.42,1.26A1.78,1.78,0,0,0,55.27,49a1.59,1.59,0,0,0,2.26,0,2.07,2.07,0,0,0,0-2.5,1.61,1.61,0,0,0-2.26,0Z"/><path class="cls-1" d="M65.56,50.78H64.11L61.69,47.1v3.68H60.24v-6h1.45l2.42,3.71V44.79h1.45Z"/><path class="cls-1" d="M70.62,50a1.65,1.65,0,0,1-.71.64,2.46,2.46,0,0,1-1.14.24,2.75,2.75,0,0,1-1.66-.49A1.81,1.81,0,0,1,66.4,49h1.54a.85.85,0,0,0,.24.54.75.75,0,0,0,.53.19.6.6,0,0,0,.44-.15.53.53,0,0,0,.17-.41.52.52,0,0,0-.15-.38,1.27,1.27,0,0,0-.37-.25l-.61-.23a7.63,7.63,0,0,1-.93-.38,1.68,1.68,0,0,1-.62-.54,1.76,1.76,0,0,1,0-1.86,1.85,1.85,0,0,1,.75-.6,2.73,2.73,0,0,1,1.1-.21,2.43,2.43,0,0,1,1.59.48,1.81,1.81,0,0,1,.67,1.3H69.19A.8.8,0,0,0,69,46a.64.64,0,0,0-.47-.17.61.61,0,0,0-.41.13.56.56,0,0,0,0,.76,1,1,0,0,0,.36.24,4.84,4.84,0,0,0,.61.24,6.89,6.89,0,0,1,.94.39,1.71,1.71,0,0,1,.62.55,1.57,1.57,0,0,1,.27,1A1.55,1.55,0,0,1,70.62,50Z"/></g></g></svg>