<svg xmlns="http://www.w3.org/2000/svg" viewBox="0 0 141.73 55.44"><defs><style>.cls-1{fill:#1d1d1b;}.cls-2{fill:#949ed0;}</style></defs><title>Middel 18</title><g id="Laag_2" data-name="Laag 2"><g id="Laag_1-2" data-name="Laag 1"><path class="cls-1" d="M1.82.12V7.66H0V.12Z"/><path class="cls-1" d="M15.46.12l-1.8,7.54H11.4L10.19,2.61,9,7.66H6.72L4.92.12h2l1,5.46L9.19.12h2l1.32,5.46,1-5.46Z"/><path class="cls-1" d="M18.25.12V7.66H16.42V.12Z"/><path class="cls-1" d="M21.33,6.26h2.43v1.4H19.5V.12h1.83Z"/><path class="cls-1" d="M26.42,6.26h2.44v1.4H24.6V.12h1.82Z"/><path class="cls-1" d="M37.25.12V1.57h-2V7.66H33.37V1.57h-2V.12Z"/><path class="cls-1" d="M41.89,7.66,40.26,4.81h-.42V7.66H38V.12h3.11a3.35,3.35,0,0,1,1.52.31,2.1,2.1,0,0,1,.92.84,2.4,2.4,0,0,1,.31,1.24,2.19,2.19,0,0,1-.45,1.39,2.26,2.26,0,0,1-1.32.79l1.79,3Zm-2-4.1H41a1.14,1.14,0,0,0,.8-.24A.92.92,0,0,0,42,2.61a.94.94,0,0,0-.26-.7,1.11,1.11,0,0,0-.8-.26H39.84Z"/><path class="cls-1" d="M51.31.12l-2.61,5V7.66H46.87V5.15l-2.62-5h2.09l1.45,3.07L49.25.12Z"/><path class="cls-1" d="M59.57.12V1.57h-2V7.66H55.69V1.57h-2V.12Z"/><path class="cls-1" d="M65.85.5a3.61,3.61,0,0,1,1.37,1.37,3.9,3.9,0,0,1,.51,2,3.9,3.9,0,0,1-.51,2,3.76,3.76,0,0,1-1.38,1.39,4,4,0,0,1-3.85,0,3.73,3.73,0,0,1-1.37-1.39,3.9,3.9,0,0,1-.51-2,3.9,3.9,0,0,1,.51-2A3.68,3.68,0,0,1,62,.5a4,4,0,0,1,3.86,0ZM62.5,2.28A2.21,2.21,0,0,0,62,3.86a2.24,2.24,0,0,0,.53,1.58A1.81,1.81,0,0,0,63.92,6a1.84,1.84,0,0,0,1.42-.59,2.29,2.29,0,0,0,.53-1.58,2.29,2.29,0,0,0-.53-1.58,2,2,0,0,0-2.84,0Z"/><path class="cls-1" d="M72.65.12V4.47A1.67,1.67,0,0,0,73,5.61a1.41,1.41,0,0,0,2,0,1.72,1.72,0,0,0,.34-1.14V.12H77.1V4.47a3.51,3.51,0,0,1-.42,1.79,2.61,2.61,0,0,1-1.13,1.1,3.49,3.49,0,0,1-1.63.37,3.43,3.43,0,0,1-1.6-.36,2.63,2.63,0,0,1-1.09-1.1,3.8,3.8,0,0,1-.39-1.8V.12Z"/><path class="cls-1" d="M85,7.66H83.19L80.14,3V7.66H78.31V.12h1.83l3,4.67V.12H85Z"/><path class="cls-1" d="M92.58,5.84a3.34,3.34,0,0,1-1.37,1.34,4.33,4.33,0,0,1-2.09.48H86.27V.12h2.85a4.34,4.34,0,0,1,2.1.47,3.27,3.27,0,0,1,1.36,1.32,4,4,0,0,1,.47,2A4.07,4.07,0,0,1,92.58,5.84Zm-2-.38a2.12,2.12,0,0,0,.59-1.59,2.12,2.12,0,0,0-.59-1.59A2.3,2.3,0,0,0,89,1.72h-.87V6H89A2.31,2.31,0,0,0,90.62,5.46Z"/><path class="cls-1" d="M95.91,1.57V3.15h2.55V4.52H95.91V6.2h2.87V7.66H94.09V.12h4.69V1.57Z"/><path class="cls-1" d="M103.68,7.66l-1.63-2.85h-.41V7.66H99.81V.12h3.12a3.31,3.31,0,0,1,1.51.31,2.18,2.18,0,0,1,.93.84,2.4,2.4,0,0,1,.31,1.24,2.14,2.14,0,0,1-.46,1.39,2.27,2.27,0,0,1-1.31.79l1.79,3Zm-2-4.1h1.13a1.14,1.14,0,0,0,.8-.24.92.92,0,0,0,.25-.71.91.91,0,0,0-.26-.7,1.09,1.09,0,0,0-.79-.26h-1.13Z"/><path class="cls-1" d="M111.71,6.63a2.08,2.08,0,0,1-.9.8,3.12,3.12,0,0,1-1.43.3,3.37,3.37,0,0,1-2.09-.62,2.22,2.22,0,0,1-.9-1.73h1.94a1,1,0,0,0,.31.68.92.92,0,0,0,.66.24.78.78,0,0,0,.56-.19.69.69,0,0,0,.2-.51.65.65,0,0,0-.19-.48,1.57,1.57,0,0,0-.46-.32c-.18-.08-.44-.18-.77-.29A10.45,10.45,0,0,1,107.47,4a2.11,2.11,0,0,1-.77-.69,1.93,1.93,0,0,1-.33-1.17A2,2,0,0,1,106.71,1a2.24,2.24,0,0,1,1-.75A3.5,3.5,0,0,1,109,0a3.1,3.1,0,0,1,2,.6,2.26,2.26,0,0,1,.83,1.64h-2a1,1,0,0,0-.27-.59.78.78,0,0,0-.59-.22.77.77,0,0,0-.52.17.63.63,0,0,0-.2.5.61.61,0,0,0,.18.45,1.29,1.29,0,0,0,.44.31c.18.08.43.18.77.3a7.91,7.91,0,0,1,1.18.48,2.19,2.19,0,0,1,.79.7A2,2,0,0,1,112,5.53,2.09,2.09,0,0,1,111.71,6.63Z"/><path class="cls-1" d="M118.44.12V1.57h-2V7.66h-1.84V1.57h-2V.12Z"/><path class="cls-1" d="M123.88,6.28h-2.82l-.47,1.38h-1.92L121.43.17h2.1l2.76,7.49h-1.94Zm-.47-1.39-.94-2.77-1,2.77Z"/><path class="cls-1" d="M133.69,7.66h-1.82L128.82,3V7.66H127V.12h1.83l3.05,4.67V.12h1.82Z"/><path class="cls-1" d="M141.26,5.84a3.34,3.34,0,0,1-1.37,1.34,4.33,4.33,0,0,1-2.09.48H135V.12h2.85a4.34,4.34,0,0,1,2.1.47,3.27,3.27,0,0,1,1.36,1.32,4,4,0,0,1,.47,2A4.07,4.07,0,0,1,141.26,5.84Zm-2-.38a2.12,2.12,0,0,0,.59-1.59,2.12,2.12,0,0,0-.59-1.59,2.3,2.3,0,0,0-1.66-.56h-.87V6h.87A2.31,2.31,0,0,0,139.3,5.46Z"/><path class="cls-2" d="M8.14,10.73v2H5.32v8.39H2.79V12.73H0v-2Z"/><path class="cls-2" d="M18.18,10.73V21.12H15.65V16.78H11.72v4.34H9.2V10.73h2.52v4h3.93v-4Z"/><path class="cls-2" d="M22.43,12.73V14.9h3.51v1.9H22.43v2.31h4v2H19.92V10.73h6.47v2Z"/><path class="cls-2" d="M37.8,19.71a2.94,2.94,0,0,1-1.23,1.1,4.32,4.32,0,0,1-2,.41,4.63,4.63,0,0,1-2.88-.85A3.08,3.08,0,0,1,30.47,18h2.68a1.44,1.44,0,0,0,.42.93,1.3,1.3,0,0,0,.92.33,1.09,1.09,0,0,0,.76-.26.92.92,0,0,0,.28-.71.93.93,0,0,0-.26-.66,2,2,0,0,0-.64-.43c-.25-.11-.61-.25-1.06-.41A13,13,0,0,1,32,16.13a3,3,0,0,1-1.07-.94,2.72,2.72,0,0,1-.45-1.62A2.78,2.78,0,0,1,30.91,12a3,3,0,0,1,1.3-1,4.78,4.78,0,0,1,1.91-.36,4.25,4.25,0,0,1,2.75.82A3.15,3.15,0,0,1,38,13.65H35.31a1.4,1.4,0,0,0-.38-.81,1.09,1.09,0,0,0-.81-.3,1.06,1.06,0,0,0-.72.23.87.87,0,0,0-.27.69.88.88,0,0,0,.24.63,2.07,2.07,0,0,0,.61.42l1.06.41a11.44,11.44,0,0,1,1.64.67,3.08,3.08,0,0,1,1.08,1,2.7,2.7,0,0,1,.46,1.64A2.88,2.88,0,0,1,37.8,19.71Z"/><path class="cls-2" d="M47.08,10.73v2H44.26v8.39H41.73V12.73H38.94v-2Z"/><path class="cls-2" d="M54.58,19.22h-3.9L50,21.12H47.39L51.2,10.8h2.89L57.9,21.12H55.23Zm-.65-1.91-1.29-3.82-1.31,3.82Z"/><path class="cls-2" d="M63.77,15.81,68,21.12h-3l-3.53-4.66v4.66H58.87V10.73h2.51V15.3l3.56-4.57h3Z"/><path class="cls-2" d="M71.53,12.73V14.9H75v1.9H71.53v2.31h4v2H69V10.73h6.47v2Z"/><path class="cls-2" d="M85.89,10.73V21.12H83.36V16.78H79.42v4.34H76.91V10.73h2.51v4h3.94v-4Z"/><path class="cls-2" d="M95.23,11.25a4.93,4.93,0,0,1,1.89,1.9,5.41,5.41,0,0,1,.69,2.74,5.41,5.41,0,0,1-.7,2.75,5.07,5.07,0,0,1-1.89,1.9,5.52,5.52,0,0,1-5.31,0,5.1,5.1,0,0,1-1.9-1.9,5.51,5.51,0,0,1-.7-2.75,5.42,5.42,0,0,1,.7-2.74,5,5,0,0,1,1.9-1.9,5.54,5.54,0,0,1,5.32,0ZM90.6,13.7a3.18,3.18,0,0,0-.73,2.19,3.15,3.15,0,0,0,.73,2.17,2.78,2.78,0,0,0,3.92,0,3.1,3.1,0,0,0,.73-2.17,3.12,3.12,0,0,0-.73-2.18,2.48,2.48,0,0,0-2-.81A2.54,2.54,0,0,0,90.6,13.7Z"/><path class="cls-2" d="M101.73,19.19h3.36v1.93H99.22V10.73h2.51Z"/><path class="cls-2" d="M114.94,18.61a4.53,4.53,0,0,1-1.88,1.85,6,6,0,0,1-2.89.66h-3.92V10.73h3.92a6.12,6.12,0,0,1,2.9.64,4.52,4.52,0,0,1,1.87,1.83,5.4,5.4,0,0,1,.66,2.7A5.44,5.44,0,0,1,114.94,18.61Zm-2.7-.52a2.9,2.9,0,0,0,.81-2.19,2.9,2.9,0,0,0-.81-2.19,3.18,3.18,0,0,0-2.29-.78h-1.19v5.94H110A3.18,3.18,0,0,0,112.24,18.09Z"/><path class="cls-2" d="M119.54,12.73V14.9h3.51v1.9h-3.51v2.31h3.95v2H117V10.73h6.47v2Z"/><path class="cls-2" d="M130.25,21.12,128,17.2h-.57v3.92h-2.51V10.73h4.29a4.72,4.72,0,0,1,2.09.42,3,3,0,0,1,1.27,1.17A3.31,3.31,0,0,1,133,14a3.06,3.06,0,0,1-.62,1.93A3.18,3.18,0,0,1,130.56,17L133,21.12Zm-2.82-5.64H129a1.56,1.56,0,0,0,1.1-.33,1.28,1.28,0,0,0,.35-1,1.29,1.29,0,0,0-.36-1,1.47,1.47,0,0,0-1.09-.35h-1.56Z"/><path class="cls-2" d="M141.31,19.71a2.94,2.94,0,0,1-1.23,1.1,4.29,4.29,0,0,1-2,.41,4.64,4.64,0,0,1-2.88-.85A3.07,3.07,0,0,1,134,18h2.67a1.44,1.44,0,0,0,.42.93,1.31,1.31,0,0,0,.92.33,1.08,1.08,0,0,0,.76-.26,1,1,0,0,0,0-1.37,2.25,2.25,0,0,0-.64-.43c-.26-.11-.61-.25-1.06-.41a11.81,11.81,0,0,1-1.61-.65,2.82,2.82,0,0,1-1.07-.94,2.72,2.72,0,0,1-.45-1.62,2.71,2.71,0,0,1,.47-1.61,2.92,2.92,0,0,1,1.3-1,4.73,4.73,0,0,1,1.9-.36,4.26,4.26,0,0,1,2.76.82,3.14,3.14,0,0,1,1.15,2.26h-2.72a1.39,1.39,0,0,0-.37-.81,1.12,1.12,0,0,0-.82-.3,1,1,0,0,0-.71.23.87.87,0,0,0-.27.69.88.88,0,0,0,.24.63,1.84,1.84,0,0,0,.61.42l1.06.41a11.26,11.26,0,0,1,1.63.67,3.2,3.2,0,0,1,1.09,1,2.77,2.77,0,0,1,.45,1.64A2.88,2.88,0,0,1,141.31,19.71Z"/><path class="cls-1" d="M4.05,32.07l-1.71-3H1.91v3H0V24.18H3.26a3.59,3.59,0,0,1,1.58.32,2.27,2.27,0,0,1,1,.89,2.53,2.53,0,0,1,.33,1.29,2.27,2.27,0,0,1-.48,1.46A2.36,2.36,0,0,1,4.29,29l1.87,3.1ZM1.91,27.79H3.09a1.24,1.24,0,0,0,.84-.25,1,1,0,0,0,.27-.75.94.94,0,0,0-.28-.73,1.14,1.14,0,0,0-.83-.27H1.91Z"/><path class="cls-1" d="M9,25.7v1.65h2.66v1.44H9v1.75h3v1.53H7.1V24.18H12V25.7Z"/><path class="cls-1" d="M17.42,27.36V29H12.5V27.36Z"/><path class="cls-1" d="M21.06,25.7v1.65h2.67v1.44H21.06v1.75h3v1.53H19.15V24.18h4.91V25.7Z"/><path class="cls-1" d="M26.62,24.18l1.93,5.94,1.93-5.94h2l-2.74,7.89H27.31l-2.74-7.89Z"/><path class="cls-1" d="M38.14,30.63h-3l-.49,1.44h-2l2.89-7.83h2.2l2.89,7.83h-2Zm-.49-1.45-1-2.9-1,2.9Z"/><path class="cls-1" d="M43.31,30.61h2.55v1.46H41.4V24.18h1.91Z"/><path class="cls-1" d="M48.59,24.18v4.55a1.83,1.83,0,0,0,.35,1.2,1.3,1.3,0,0,0,1,.41,1.27,1.27,0,0,0,1-.41,1.77,1.77,0,0,0,.36-1.2V24.18h1.9v4.55a3.71,3.71,0,0,1-.43,1.88,2.8,2.8,0,0,1-1.19,1.15,3.9,3.9,0,0,1-3.38,0,2.67,2.67,0,0,1-1.13-1.15,3.88,3.88,0,0,1-.42-1.89V24.18Z"/><path class="cls-1" d="M59.4,30.63H56.45L56,32.07H54l2.89-7.83H59l2.89,7.83h-2Zm-.49-1.45-1-2.9-1,2.9Z"/><path class="cls-1" d="M68.33,24.18V25.7H66.19v6.37H64.27V25.7H62.15V24.18Z"/><path class="cls-1" d="M71,25.7v1.65h2.67v1.44H71v1.75h3v1.53H69.14V24.18h4.91V25.7Z"/><path class="cls-1" d="M83,24.18V25.7H80.89v6.37H79V25.7H76.85V24.18Z"/><path class="cls-1" d="M90.65,24.18v7.89H88.73V28.78h-3v3.29H83.83V24.18h1.91v3.06h3V24.18Z"/><path class="cls-1" d="M93.88,25.7v1.65h2.67v1.44H93.88v1.75h3v1.53H92V24.18h4.91V25.7Z"/><path class="cls-1" d="M99.87,24.18v7.89H98V24.18Z"/><path class="cls-1" d="M105.24,32.07l-1.71-3h-.43v3h-1.91V24.18h3.26a3.59,3.59,0,0,1,1.58.32,2.27,2.27,0,0,1,1,.89,2.53,2.53,0,0,1,.33,1.29,2.27,2.27,0,0,1-.48,1.46,2.35,2.35,0,0,1-1.38.83l1.88,3.1Zm-2.14-4.28h1.18a1.24,1.24,0,0,0,.84-.25,1,1,0,0,0,.26-.75,1,1,0,0,0-.27-.73,1.14,1.14,0,0,0-.83-.27H103.1Z"/><path class="cls-1" d="M112.43,24.18v7.89h-1.91V24.18Z"/><path class="cls-1" d="M120.34,30.17a3.48,3.48,0,0,1-1.42,1.4,4.67,4.67,0,0,1-2.2.5h-3V24.18h3a4.61,4.61,0,0,1,2.2.49,3.4,3.4,0,0,1,1.42,1.39,4,4,0,0,1,.5,2.05A4.11,4.11,0,0,1,120.34,30.17Zm-2-.4a2.53,2.53,0,0,0,0-3.32,2.38,2.38,0,0,0-1.73-.6h-.91v4.51h.91A2.37,2.37,0,0,0,118.29,29.77Z"/><path class="cls-1" d="M123.83,25.7v1.65h2.67v1.44h-2.67v1.75h3v1.53h-4.91V24.18h4.91V25.7Z"/><path class="cls-1" d="M132.8,30.63h-3l-.49,1.44h-2l2.89-7.83h2.2l2.89,7.83h-2Zm-.49-1.45-1-2.9-1,2.9Z"/><path class="cls-1" d="M141.41,31a2.24,2.24,0,0,1-.93.84,3.32,3.32,0,0,1-1.5.31,3.54,3.54,0,0,1-2.19-.65,2.34,2.34,0,0,1-.94-1.81h2a1.1,1.1,0,0,0,.32.71,1,1,0,0,0,.7.25.79.79,0,0,0,.58-.2.69.69,0,0,0,.21-.53.68.68,0,0,0-.19-.5,1.51,1.51,0,0,0-.49-.33c-.19-.09-.46-.19-.8-.31a10,10,0,0,1-1.23-.5,2.37,2.37,0,0,1-.81-.71,2.32,2.32,0,0,1,0-2.45,2.21,2.21,0,0,1,1-.79,3.68,3.68,0,0,1,1.45-.27,3.27,3.27,0,0,1,2.09.62,2.4,2.4,0,0,1,.88,1.72h-2.07a1,1,0,0,0-.28-.62.85.85,0,0,0-.62-.23.78.78,0,0,0-.54.18.66.66,0,0,0-.21.53.67.67,0,0,0,.18.47,1.45,1.45,0,0,0,.47.32c.18.08.45.19.8.31a8.23,8.23,0,0,1,1.24.51,2.4,2.4,0,0,1,.83.73,2.35,2.35,0,0,1,0,2.4Z"/><path class="cls-1" d="M4.51,39.53l3.63,4.6H5.5l-3-4v4H.27v-9H2.45v4l3.08-4H8.14Z"/><path class="cls-1" d="M11.23,36.86v1.88h3v1.64h-3v2h3.43v1.75H9.06v-9h5.6v1.74Z"/><path class="cls-1" d="M18.07,36.86v1.88h3v1.64h-3v2H21.5v1.75H15.89v-9H21.5v1.74Z"/><path class="cls-1" d="M24.91,41v3.16H22.73v-9h3.53a3.41,3.41,0,0,1,2.44.8,2.82,2.82,0,0,1,.84,2.15,2.92,2.92,0,0,1-.37,1.49,2.61,2.61,0,0,1-1.12,1,3.91,3.91,0,0,1-1.79.38Zm2.42-2.9c0-.79-.44-1.19-1.31-1.19H24.91v2.34H26C26.89,39.22,27.33,38.84,27.33,38.07Z"/><path class="cls-1" d="M39.63,35.12v1.74H37.18v7.27H35V36.86H32.57V35.12Z"/><path class="cls-1" d="M48.32,35.12v9H46.13V40.37H42.72v3.76H40.54v-9h2.18v3.49h3.41V35.12Z"/><path class="cls-1" d="M52,36.86v1.88h3v1.64H52v2h3.43v1.75h-5.6v-9h5.6v1.74Z"/><path class="cls-1" d="M66.79,35.19v8.94H64.61V38.54l-1.94,5.59H60.79l-1.95-5.61v5.61H56.66V35.19h2.66l2.44,6.22,2.38-6.22Z"/><path class="cls-1" d="M73,35.12v5.2a2,2,0,0,0,.4,1.36,1.68,1.68,0,0,0,2.33,0,2,2,0,0,0,.4-1.36v-5.2h2.18v5.2a4.26,4.26,0,0,1-.5,2.14,3.24,3.24,0,0,1-1.35,1.32,4.27,4.27,0,0,1-2,.44,4.08,4.08,0,0,1-1.91-.44,3.1,3.1,0,0,1-1.3-1.31,4.53,4.53,0,0,1-.47-2.15v-5.2Z"/><path class="cls-1" d="M81.89,41v3.16H79.71v-9h3.53a3.41,3.41,0,0,1,2.44.8,2.82,2.82,0,0,1,.84,2.15,2.92,2.92,0,0,1-.37,1.49,2.61,2.61,0,0,1-1.12,1,3.91,3.91,0,0,1-1.79.38Zm2.42-2.9c0-.79-.44-1.19-1.32-1.19h-1.1v2.34H83C83.87,39.22,84.31,38.84,84.31,38.07Z"/><path class="cls-1" d="M96.61,35.12v1.74H94.16v7.27H92V36.86H89.55V35.12Z"/><path class="cls-1" d="M104.11,35.58a4.31,4.31,0,0,1,1.64,1.64,4.69,4.69,0,0,1,.6,2.37,4.61,4.61,0,0,1-.61,2.38,4.26,4.26,0,0,1-1.64,1.65,4.71,4.71,0,0,1-4.6,0A4.26,4.26,0,0,1,97.86,42a5,5,0,0,1,0-4.75,4.31,4.31,0,0,1,1.64-1.64,4.73,4.73,0,0,1,4.61,0Zm-4,2.12a3.15,3.15,0,0,0,0,3.78,2.4,2.4,0,0,0,3.39,0,3.12,3.12,0,0,0,0-3.77,2.17,2.17,0,0,0-1.7-.7A2.19,2.19,0,0,0,100.1,37.7Z"/><path class="cls-1" d="M117.65,42A4,4,0,0,1,116,43.55a5.1,5.1,0,0,1-2.5.58h-3.4v-9h3.4a5.3,5.3,0,0,1,2.5.56,3.94,3.94,0,0,1,1.63,1.58,4.72,4.72,0,0,1,.56,2.35A4.78,4.78,0,0,1,117.65,42Zm-2.35-.46a2.88,2.88,0,0,0,0-3.79,2.74,2.74,0,0,0-2-.68h-1v5.15h1A2.74,2.74,0,0,0,115.3,41.5Z"/><path class="cls-1" d="M125,42.48h-3.38l-.56,1.65H118.8l3.3-8.94h2.51l3.29,8.94h-2.31Zm-.56-1.65-1.12-3.31-1.14,3.31Z"/><path class="cls-1" d="M135.21,35.12v1.74h-2.44v7.27h-2.19V36.86h-2.42V35.12Z"/><path class="cls-1" d="M138.31,36.86v1.88h3v1.64h-3v2h3.42v1.75h-5.6v-9h5.6v1.74Z"/><path class="cls-1" d="M5.66,53.87H2.59l-.51,1.49H0l3-8.12H5.28l3,8.12H6.17Zm-.51-1.51-1-3-1,3Z"/><path class="cls-1" d="M16.31,55.36h-2l-3.31-5v5H9V47.18h2l3.31,5.07V47.18h2Z"/><path class="cls-1" d="M24.52,53.39A3.57,3.57,0,0,1,23,54.84a4.67,4.67,0,0,1-2.27.52H17.68V47.18h3.09a4.8,4.8,0,0,1,2.28.51,3.56,3.56,0,0,1,1.47,1.43,4.64,4.64,0,0,1,0,4.27ZM22.39,53A2.28,2.28,0,0,0,23,51.25a2.26,2.26,0,0,0-.65-1.72,2.47,2.47,0,0,0-1.8-.62h-.93v4.68h.93A2.47,2.47,0,0,0,22.39,53Z"/><path class="cls-1" d="M34.56,51.87A1.94,1.94,0,0,1,35,53.13a2,2,0,0,1-.7,1.64,3,3,0,0,1-2,.59h-3.8V47.18h3.71a3.07,3.07,0,0,1,1.94.54,2.11,2.11,0,0,1,.28,2.79,1.82,1.82,0,0,1-1,.64A2,2,0,0,1,34.56,51.87Zm-4.1-1.35h1.29c.69,0,1-.29,1-.88s-.35-.88-1.05-.88H30.46ZM33,52.85a.88.88,0,0,0-.29-.69,1.25,1.25,0,0,0-.82-.25h-1.4v1.84h1.41C32.6,53.75,33,53.45,33,52.85Z"/><path class="cls-1" d="M38,48.75v1.72h2.77V52H38v1.82h3.12v1.58H36V47.18h5.09v1.57Z"/><path class="cls-1" d="M51.64,47.18v8.18h-2V52h-3.1v3.41h-2V47.18h2v3.17h3.1V47.18Z"/><path class="cls-1" d="M59,47.59a4,4,0,0,1,1.48,1.49A4.23,4.23,0,0,1,61,51.24a4.37,4.37,0,0,1-.55,2.17A3.9,3.9,0,0,1,59,54.9a4.3,4.3,0,0,1-4.17,0,3.9,3.9,0,0,1-1.5-1.49,4.54,4.54,0,0,1,0-4.33,4.08,4.08,0,0,1,3.58-2A4.17,4.17,0,0,1,59,47.59Zm-3.65,1.93a2.48,2.48,0,0,0-.57,1.72A2.45,2.45,0,0,0,55.35,53a2.17,2.17,0,0,0,3.08,0A2.41,2.41,0,0,0,59,51.24a2.45,2.45,0,0,0-.57-1.71,2.2,2.2,0,0,0-3.09,0Z"/><path class="cls-1" d="M69.41,55.36h-2l-3.31-5v5h-2V47.18h2l3.31,5.07V47.18h2Z"/><path class="cls-1" d="M72.75,48.75v1.72h2.77V52H72.75v1.82h3.12v1.58h-5.1V47.18h5.1v1.57Z"/><path class="cls-1" d="M82.54,54.25a2.36,2.36,0,0,1-1,.87,3.39,3.39,0,0,1-1.56.32,3.66,3.66,0,0,1-2.27-.67,2.43,2.43,0,0,1-1-1.87h2.11a1.11,1.11,0,0,0,.33.73,1,1,0,0,0,.72.26.84.84,0,0,0,.6-.21.69.69,0,0,0,.22-.55.73.73,0,0,0-.2-.52,1.48,1.48,0,0,0-.5-.34c-.21-.09-.48-.2-.84-.32a9.92,9.92,0,0,1-1.27-.52,2.35,2.35,0,0,1-.84-.74,2.11,2.11,0,0,1-.35-1.28,2.15,2.15,0,0,1,.37-1.26,2.39,2.39,0,0,1,1-.82,3.75,3.75,0,0,1,1.5-.28,3.38,3.38,0,0,1,2.17.65,2.47,2.47,0,0,1,.91,1.78H80.58a1.1,1.1,0,0,0-.3-.64.86.86,0,0,0-.64-.24.79.79,0,0,0-.56.19.76.76,0,0,0,0,1,1.21,1.21,0,0,0,.48.33c.19.09.47.2.83.33a8.83,8.83,0,0,1,1.28.52,2.49,2.49,0,0,1,.86.76,2.17,2.17,0,0,1,.36,1.3A2.25,2.25,0,0,1,82.54,54.25Z"/><path class="cls-1" d="M89.85,47.18v1.57H87.63v6.61h-2V48.75h-2.2V47.18Z"/><path class="cls-1" d="M98.88,47.18v1.57H96.66v6.61h-2V48.75H92.47V47.18Z"/><path class="cls-1" d="M105.7,47.59a4,4,0,0,1,1.49,1.49,4.33,4.33,0,0,1,.54,2.16,4.27,4.27,0,0,1-.55,2.17,3.81,3.81,0,0,1-1.49,1.49,4.31,4.31,0,0,1-4.18,0A3.88,3.88,0,0,1,100,53.41a4.54,4.54,0,0,1,0-4.33,4,4,0,0,1,1.49-1.49,4.33,4.33,0,0,1,4.19,0Zm-3.64,1.93a2.44,2.44,0,0,0-.58,1.72,2.41,2.41,0,0,0,.58,1.71,2.17,2.17,0,0,0,3.08,0,2.41,2.41,0,0,0,.58-1.71,2.45,2.45,0,0,0-.57-1.71,2.2,2.2,0,0,0-3.09,0Z"/><path class="cls-1" d="M117,47.18v1.57h-2.22v6.61h-2V48.75h-2.2V47.18Z"/><path class="cls-1" d="M125,47.18v8.18h-2V52h-3.11v3.41h-2V47.18h2v3.17H123V47.18Z"/><path class="cls-1" d="M128.29,48.75v1.72h2.77V52h-2.77v1.82h3.12v1.58h-5.1V47.18h5.1v1.57Z"/><path class="cls-1" d="M141.73,47.24v8.12h-2V50.28L138,55.36h-1.71l-1.77-5.09v5.09h-2V47.24H135l2.21,5.66,2.16-5.66Z"/></g></g></svg>