<svg xmlns="http://www.w3.org/2000/svg" viewBox="0 0 141.73 60.91"><defs><style>.cls-1{fill:#1d1d1b;}.cls-2{fill:#949ed0;}</style></defs><title>Middel 17</title><g id="Laag_2" data-name="Laag 2"><g id="Laag_1-2" data-name="Laag 1"><path class="cls-1" d="M1.85.11V7.34H.1V.11Z"/><path class="cls-1" d="M14.93.11,13.2,7.34H11L9.88,2.51,8.71,7.34H6.54L4.81.11H6.72l.93,5.24L8.91.11h1.92l1.26,5.24L13,.11Z"/><path class="cls-1" d="M17.59.11V7.34H15.85V.11Z"/><path class="cls-1" d="M20.55,6h2.33V7.34H18.8V.11h1.75Z"/><path class="cls-1" d="M25.44,6h2.33V7.34H23.69V.11h1.75Z"/><path class="cls-1" d="M32.37,4.81V7.34H30.62V.11h2.83a2.79,2.79,0,0,1,2,.64,2.26,2.26,0,0,1,.67,1.72,2.41,2.41,0,0,1-.3,1.21,2.06,2.06,0,0,1-.9.82,3,3,0,0,1-1.44.31Zm1.94-2.34c0-.63-.35-1-1.05-1h-.89V3.4h.89Q34.31,3.4,34.31,2.47Z"/><path class="cls-1" d="M40.66,7.34,39.1,4.61h-.4V7.34H37V.11h3a3.2,3.2,0,0,1,1.45.3,2.13,2.13,0,0,1,.89.81,2.43,2.43,0,0,1,.29,1.18,2.09,2.09,0,0,1-.43,1.34,2.24,2.24,0,0,1-1.26.76l1.71,2.84Zm-2-3.93h1.08a1.11,1.11,0,0,0,.77-.22.92.92,0,0,0,.24-.68.89.89,0,0,0-.25-.68,1,1,0,0,0-.76-.24H38.7Z"/><path class="cls-1" d="M45.2,1.5V3h2.44V4.34H45.2v1.6H48v1.4h-4.5V.11H48V1.5Z"/><path class="cls-1" d="M53.85,6.36a2.09,2.09,0,0,1-.86.77,3.06,3.06,0,0,1-1.38.28,3.19,3.19,0,0,1-2-.59,2.15,2.15,0,0,1-.86-1.66h1.86a1,1,0,0,0,.29.65.93.93,0,0,0,.64.23.76.76,0,0,0,.53-.18.65.65,0,0,0,.2-.49.62.62,0,0,0-.18-.46,1.31,1.31,0,0,0-.45-.3,7.2,7.2,0,0,0-.73-.28,8.75,8.75,0,0,1-1.12-.46A2.1,2.1,0,0,1,49,3.22a1.89,1.89,0,0,1-.31-1.13A1.9,1.9,0,0,1,49.06,1,2.09,2.09,0,0,1,50,.25,3.24,3.24,0,0,1,51.28,0,3,3,0,0,1,53.2.57,2.2,2.2,0,0,1,54,2.15H52.11a1,1,0,0,0-.26-.57.77.77,0,0,0-.57-.21.71.71,0,0,0-.49.16A.59.59,0,0,0,50.6,2a.62.62,0,0,0,.17.44,1.17,1.17,0,0,0,.42.29c.17.08.42.17.74.29a7.68,7.68,0,0,1,1.13.46,2.21,2.21,0,0,1,.76.67,1.93,1.93,0,0,1,.32,1.15A2,2,0,0,1,53.85,6.36Z"/><path class="cls-1" d="M56.86,1.5V3H59.3V4.34H56.86v1.6h2.75v1.4h-4.5V.11h4.5V1.5Z"/><path class="cls-1" d="M67,7.34H65.27L62.35,2.9V7.34H60.6V.11h1.75l2.92,4.48V.11H67Z"/><path class="cls-1" d="M73.42.11V1.5h-2V7.34H69.7V1.5H67.76V.11Z"/><path class="cls-1" d="M84.33.16V7.34H82.58V2.85L81,7.34H79.51L78,2.84v4.5H76.2V.16h2.14l2,5,1.91-5Z"/><path class="cls-1" d="M91.78.11l-2.5,4.83v2.4H87.52V4.94L85,.11h2l1.39,3L89.8.11Z"/><path class="cls-1" d="M104.33.11,102.6,7.34h-2.17L99.28,2.51,98.11,7.34H96L94.22.11h1.9l.93,5.24L98.32.11h1.91l1.27,5.24.94-5.24Z"/><path class="cls-1" d="M110.54.48a3.37,3.37,0,0,1,1.31,1.31,3.82,3.82,0,0,1,.49,1.91,3.8,3.8,0,0,1-.49,1.91,3.44,3.44,0,0,1-1.32,1.33,3.74,3.74,0,0,1-1.85.47,3.7,3.7,0,0,1-1.84-.47,3.44,3.44,0,0,1-1.32-1.33A3.8,3.8,0,0,1,105,3.7a3.82,3.82,0,0,1,.49-1.91A3.39,3.39,0,0,1,106.84.48,3.61,3.61,0,0,1,108.68,0,3.66,3.66,0,0,1,110.54.48Zm-3.22,1.7a2.17,2.17,0,0,0-.51,1.52,2.14,2.14,0,0,0,.51,1.51,1.91,1.91,0,0,0,2.72,0,2.1,2.1,0,0,0,.52-1.51,2.16,2.16,0,0,0-.51-1.51,1.73,1.73,0,0,0-1.37-.56A1.75,1.75,0,0,0,107.32,2.18Z"/><path class="cls-1" d="M117,7.34l-1.57-2.73h-.4V7.34h-1.74V.11h3a3.17,3.17,0,0,1,1.45.3,2,2,0,0,1,.89.81,2.33,2.33,0,0,1,.3,1.18,2.1,2.1,0,0,1-.44,1.34,2.2,2.2,0,0,1-1.26.76L119,7.34Zm-2-3.93h1.09a1.08,1.08,0,0,0,.76-.22.89.89,0,0,0,.25-.68.89.89,0,0,0-.25-.68,1.07,1.07,0,0,0-.76-.24h-1.09Z"/><path class="cls-1" d="M123.22,3.65l2.92,3.69H124L121.57,4.1V7.34h-1.75V.11h1.75V3.29L124,.11h2.1Z"/><path class="cls-1" d="M133.55,6.14h-2.71l-.45,1.32h-1.84L131.2.28h2l2.64,7.18H134Zm-.45-1.33-.9-2.66-.91,2.66Z"/><path class="cls-1" d="M141.44,6.48a2.09,2.09,0,0,1-.86.77,3,3,0,0,1-1.37.28,3.3,3.3,0,0,1-2-.59,2.18,2.18,0,0,1-.86-1.66h1.87a1,1,0,0,0,.29.65.91.91,0,0,0,.64.23.76.76,0,0,0,.53-.18.66.66,0,0,0,.19-.49.62.62,0,0,0-.18-.46,1.4,1.4,0,0,0-.44-.31l-.74-.28A8.9,8.9,0,0,1,137.38,4a2,2,0,0,1-.74-.66,1.87,1.87,0,0,1-.32-1.13,1.89,1.89,0,0,1,.33-1.11,2.12,2.12,0,0,1,.91-.72,3.21,3.21,0,0,1,1.32-.25,3,3,0,0,1,1.92.57,2.2,2.2,0,0,1,.8,1.58h-1.89a1,1,0,0,0-.26-.57.77.77,0,0,0-.57-.21.75.75,0,0,0-.5.16.62.62,0,0,0-.18.48.63.63,0,0,0,.16.44,1.48,1.48,0,0,0,.43.29c.17.07.41.17.73.28a8.46,8.46,0,0,1,1.14.47,2.29,2.29,0,0,1,.76.67,1.91,1.91,0,0,1,.31,1.15A1.93,1.93,0,0,1,141.44,6.48Z"/><path class="cls-2" d="M16.9,10.7v4.15H11V32.27H5.79V14.85H0V10.7Z"/><path class="cls-2" d="M24.31,14.85v4.51H31.6V23.3H24.31v4.79h8.2v4.18H19.09V10.7H32.51v4.15Z"/><path class="cls-2" d="M50.09,29.34a6.11,6.11,0,0,1-2.56,2.29,9.13,9.13,0,0,1-4.1.85,9.67,9.67,0,0,1-6-1.77,6.42,6.42,0,0,1-2.56-4.94h5.55a2.92,2.92,0,0,0,.87,1.92,2.66,2.66,0,0,0,1.91.7,2.19,2.19,0,0,0,1.58-.55A2.08,2.08,0,0,0,44.85,25a4.11,4.11,0,0,0-1.33-.9c-.53-.24-1.26-.52-2.2-.84A26.51,26.51,0,0,1,38,21.91,6.17,6.17,0,0,1,35.76,20a5.65,5.65,0,0,1-.93-3.37,5.65,5.65,0,0,1,1-3.32,6.25,6.25,0,0,1,2.7-2.16,10,10,0,0,1,4-.74,8.9,8.9,0,0,1,5.72,1.7,6.57,6.57,0,0,1,2.4,4.7H44.92a2.92,2.92,0,0,0-.77-1.69,2.29,2.29,0,0,0-1.7-.63,2.22,2.22,0,0,0-1.48.49,2,2,0,0,0-.06,2.73,3.77,3.77,0,0,0,1.27.87c.51.23,1.24.51,2.19.85a23.6,23.6,0,0,1,3.39,1.39,6.6,6.6,0,0,1,2.26,2A5.72,5.72,0,0,1,51,26.2,5.94,5.94,0,0,1,50.09,29.34Z"/><path class="cls-2" d="M69.35,10.7v4.15H63.5V32.27H58.25V14.85H52.46V10.7Z"/><path class="cls-2" d="M84.91,28.33H76.83l-1.34,3.94H70L77.9,10.86h6l7.9,21.41H86.25Zm-1.34-4-2.69-7.93-2.71,7.93Z"/><path class="cls-2" d="M109.84,23.05A5.16,5.16,0,0,1,111,26.38a5.36,5.36,0,0,1-1.85,4.33,8,8,0,0,1-5.29,1.56h-10V10.7h9.78a8,8,0,0,1,5.1,1.44,4.9,4.9,0,0,1,1.8,4.08,5,5,0,0,1-1,3.25,4.75,4.75,0,0,1-2.71,1.69A5.44,5.44,0,0,1,109.84,23.05ZM99,19.52h3.42c1.81,0,2.71-.78,2.71-2.32s-.92-2.32-2.77-2.32H99Zm6.62,6.13a2.3,2.3,0,0,0-.76-1.82,3.22,3.22,0,0,0-2.17-.65H99V28h3.72C104.68,28,105.65,27.23,105.65,25.65Z"/><path class="cls-2" d="M119,28.27h7v4H113.73V10.7H119Z"/><path class="cls-2" d="M133.53,14.85v4.51h7.29V23.3h-7.29v4.79h8.2v4.18H128.31V10.7h13.42v4.15Z"/><path class="cls-1" d="M5.87,42.38H2.69l-.53,1.55H0l3.11-8.42H5.47l3.11,8.42H6.4Zm-.53-1.56L4.28,37.7,3.22,40.82Z"/><path class="cls-1" d="M16.91,43.93H14.86l-3.44-5.21v5.21H9.37V35.45h2.05l3.44,5.25V35.45h2.05Z"/><path class="cls-1" d="M25.42,41.88a3.71,3.71,0,0,1-1.53,1.51,4.92,4.92,0,0,1-2.36.54H18.32V35.45h3.21a5,5,0,0,1,2.36.52,3.67,3.67,0,0,1,1.53,1.49,4.79,4.79,0,0,1,0,4.42Zm-2.21-.42a2.73,2.73,0,0,0,0-3.58,2.59,2.59,0,0,0-1.86-.63h-1v4.84h1A2.59,2.59,0,0,0,23.21,41.46Z"/><path class="cls-1" d="M35.62,35.45v1.63H33.31v6.85H31.25V37.08H29V35.45Z"/><path class="cls-1" d="M43.81,35.45v8.48H41.75V40.39H38.53v3.54H36.48V35.45h2.05v3.28h3.22V35.45Z"/><path class="cls-1" d="M47.28,37.08v1.77h2.87V40.4H47.28v1.89h3.23v1.64H45.23V35.45h5.28v1.63Z"/><path class="cls-1" d="M56,43.93l-1.84-3.2h-.47v3.2h-2V35.45h3.5a3.8,3.8,0,0,1,1.71.34,2.43,2.43,0,0,1,1,1,2.62,2.62,0,0,1,.35,1.38,2.49,2.49,0,0,1-.51,1.58,2.6,2.6,0,0,1-1.48.88l2,3.34Zm-2.31-4.61H55a1.26,1.26,0,0,0,.89-.27,1,1,0,0,0,.29-.8,1.08,1.08,0,0,0-.29-.79,1.25,1.25,0,0,0-.89-.29H53.72Z"/><path class="cls-1" d="M61.35,37.08v1.77h2.87V40.4H61.35v1.89h3.23v1.64H59.3V35.45h5.28v1.63Z"/><path class="cls-1" d="M71.28,35.45v1.63H67.8v1.86h2.69V40.5H67.8v3.43h-2V35.45Z"/><path class="cls-1" d="M78.54,35.87a4,4,0,0,1,1.55,1.55,4.51,4.51,0,0,1,.56,2.24,4.42,4.42,0,0,1-.57,2.24,4.15,4.15,0,0,1-1.55,1.56,4.54,4.54,0,0,1-4.33,0,4.15,4.15,0,0,1-1.55-1.56,4.69,4.69,0,0,1,0-4.48,4.12,4.12,0,0,1,1.55-1.55,4.48,4.48,0,0,1,4.34,0Zm-3.78,2a3,3,0,0,0,0,3.55,2.07,2.07,0,0,0,1.61.66A2,2,0,0,0,78,41.43a2.95,2.95,0,0,0,0-3.55,2.05,2.05,0,0,0-1.6-.66A2.07,2.07,0,0,0,74.76,37.88Z"/><path class="cls-1" d="M86.16,43.93l-1.84-3.2h-.47v3.2h-2V35.45h3.51a3.79,3.79,0,0,1,1.7.34,2.43,2.43,0,0,1,1,1,2.62,2.62,0,0,1,.35,1.38,2.49,2.49,0,0,1-.51,1.58,2.6,2.6,0,0,1-1.48.88l2,3.34Zm-2.31-4.61h1.28a1.29,1.29,0,0,0,.9-.27,1.25,1.25,0,0,0,0-1.59,1.24,1.24,0,0,0-.89-.29H83.85Z"/><path class="cls-1" d="M91.49,37.08v1.77h2.86V40.4H91.49v1.89h3.22v1.64H89.43V35.45h5.28v1.63Z"/><path class="cls-1" d="M109.81,35.45l-2,8.48h-2.54l-1.36-5.68-1.37,5.68H100l-2-8.48h2.23l1.1,6.14,1.48-6.14H105l1.49,6.14,1.1-6.14Z"/><path class="cls-1" d="M112.94,35.45v8.48h-2V35.45Z"/><path class="cls-1" d="M116.41,42.36h2.74v1.57h-4.79V35.45h2Z"/><path class="cls-1" d="M122.15,42.36h2.73v1.57h-4.79V35.45h2.06Z"/><path class="cls-1" d="M134.54,40.31a2,2,0,0,1,.45,1.3,2.13,2.13,0,0,1-.73,1.71,3.13,3.13,0,0,1-2.08.61h-4V35.45h3.85a3.14,3.14,0,0,1,2,.56,1.94,1.94,0,0,1,.7,1.61,2,2,0,0,1-.4,1.28,1.88,1.88,0,0,1-1.07.66A2.12,2.12,0,0,1,134.54,40.31Zm-4.26-1.4h1.35c.71,0,1.06-.3,1.06-.91s-.36-.91-1.09-.91h-1.32Zm2.61,2.42a.89.89,0,0,0-.3-.72,1.3,1.3,0,0,0-.86-.26h-1.45v1.91h1.47Q132.89,42.26,132.89,41.33Z"/><path class="cls-1" d="M138.12,37.08v1.77H141V40.4h-2.87v1.89h3.23v1.64h-5.28V35.45h5.28v1.63Z"/><path class="cls-2" d="M10.74,47.06V49.7H7V60.77H3.68V49.7H0V47.06Z"/><path class="cls-2" d="M19.17,60.77l-3-5.18h-.76v5.18H12.14V47.06H17.8a6.18,6.18,0,0,1,2.75.56,3.92,3.92,0,0,1,1.69,1.55,4.43,4.43,0,0,1,.56,2.24A4,4,0,0,1,22,54a4.27,4.27,0,0,1-2.4,1.43l3.26,5.39Zm-3.72-7.45h2.06A2.06,2.06,0,0,0,19,52.89a1.68,1.68,0,0,0,.47-1.29A1.7,1.7,0,0,0,19,50.32a2,2,0,0,0-1.44-.47H15.45Z"/><path class="cls-2" d="M33,58.27H27.82L27,60.77H23.48l5-13.61h3.82l5,13.61H33.81Zm-.85-2.52-1.71-5-1.72,5Z"/><path class="cls-2" d="M50.8,60.77H47.48l-5.54-8.41v8.41H38.62V47.06h3.32l5.54,8.5v-8.5H50.8Z"/><path class="cls-2" d="M62.38,58.91a3.86,3.86,0,0,1-1.63,1.45,5.71,5.71,0,0,1-2.6.55,6.13,6.13,0,0,1-3.8-1.13,4,4,0,0,1-1.63-3.14h3.53a1.83,1.83,0,0,0,.55,1.22,1.69,1.69,0,0,0,1.21.45A1.42,1.42,0,0,0,59,58a1.23,1.23,0,0,0,.37-.93,1.22,1.22,0,0,0-.34-.87,2.61,2.61,0,0,0-.85-.58c-.33-.14-.8-.32-1.39-.53a16.38,16.38,0,0,1-2.12-.86A3.82,3.82,0,0,1,53.27,53a4.05,4.05,0,0,1,0-4.26A3.94,3.94,0,0,1,55,47.32a6.31,6.31,0,0,1,2.51-.47,5.65,5.65,0,0,1,3.63,1.08,4.13,4.13,0,0,1,1.52,3H59.1a1.82,1.82,0,0,0-.5-1.07,1.42,1.42,0,0,0-1.07-.4,1.35,1.35,0,0,0-.94.31,1.27,1.27,0,0,0,0,1.73,2.33,2.33,0,0,0,.8.55c.32.15.79.33,1.4.55a15.94,15.94,0,0,1,2.15.88,4.1,4.1,0,0,1,1.43,1.27,3.64,3.64,0,0,1,.6,2.17A3.76,3.76,0,0,1,62.38,58.91Z"/><path class="cls-2" d="M68.09,56v4.81H64.78V47.06h5.37a5.24,5.24,0,0,1,3.72,1.21,4.31,4.31,0,0,1,1.28,3.27,4.54,4.54,0,0,1-.57,2.28,3.93,3.93,0,0,1-1.7,1.57,6,6,0,0,1-2.73.57Zm3.69-4.42c0-1.2-.67-1.8-2-1.8H68.09v3.57h1.69C71.11,53.31,71.78,52.72,71.78,51.54Z"/><path class="cls-2" d="M85.27,58.27H80.13l-.85,2.5H75.79l5-13.61h3.82l5,13.61H86.13Zm-.85-2.52-1.71-5-1.72,5Z"/><path class="cls-2" d="M98,60.77l-3-5.18h-.75v5.18H90.93V47.06h5.66a6.2,6.2,0,0,1,2.76.56A3.84,3.84,0,0,1,101,49.17a4.34,4.34,0,0,1,.57,2.24,4,4,0,0,1-.83,2.54,4.24,4.24,0,0,1-2.39,1.43l3.26,5.39Zm-3.72-7.45h2a2.09,2.09,0,0,0,1.46-.43,1.68,1.68,0,0,0,.46-1.29,1.7,1.7,0,0,0-.47-1.28,2,2,0,0,0-1.45-.47h-2Z"/><path class="cls-2" d="M111.76,58.27h-5.14l-.85,2.5h-3.49l5-13.61h3.82l5,13.61h-3.53Zm-.86-2.52-1.7-5-1.73,5Z"/><path class="cls-2" d="M129.6,60.77h-3.32l-5.54-8.41v8.41h-3.32V47.06h3.32l5.54,8.5v-8.5h3.32Z"/><path class="cls-2" d="M141.73,47.06V49.7H138V60.77h-3.34V49.7H131V47.06Z"/></g></g></svg>