<svg xmlns="http://www.w3.org/2000/svg" viewBox="0 0 142.32 55.9"><defs><style>.cls-1{fill:#1d1d1b;}</style></defs><title>Middel 11</title><g id="Laag_2" data-name="Laag 2"><g id="Laag_1-2" data-name="Laag 1"><path class="cls-1" d="M2.56.13V8.26h-2V.13Z"/><path class="cls-1" d="M17.26.13,15.32,8.26H12.88l-1.3-5.44L10.27,8.26H7.84L5.89.13H8L9.08,6,10.5.13h2.15L14.08,6,15.14.13Z"/><path class="cls-1" d="M20.27.13V8.26h-2V.13Z"/><path class="cls-1" d="M23.59,6.75h2.62V8.26H21.62V.13h2Z"/><path class="cls-1" d="M29.08,6.75h2.63V8.26H27.12V.13h2Z"/><path class="cls-1" d="M36.88,5.4V8.26h-2V.13H38.1a3.11,3.11,0,0,1,2.21.72,2.54,2.54,0,0,1,.76,1.93,2.71,2.71,0,0,1-.34,1.35,2.34,2.34,0,0,1-1,.93,3.47,3.47,0,0,1-1.62.34Zm2.18-2.62c0-.71-.39-1.07-1.18-1.07h-1V3.83h1C38.67,3.83,39.06,3.48,39.06,2.78Z"/><path class="cls-1" d="M46.2,8.26,44.44,5.19H44V8.26H42V.13h3.36A3.64,3.64,0,0,1,47,.46a2.28,2.28,0,0,1,1,.91,2.65,2.65,0,0,1,.33,1.33,2.41,2.41,0,0,1-.48,1.51,2.52,2.52,0,0,1-1.42.85l1.93,3.2ZM44,3.84h1.22a1.24,1.24,0,0,0,.86-.26,1,1,0,0,0,.27-.76,1,1,0,0,0-.28-.76,1.15,1.15,0,0,0-.85-.28H44Z"/><path class="cls-1" d="M51.31,1.69v1.7h2.75V4.88H51.31v1.8H54.4V8.26H49.34V.13H54.4V1.69Z"/><path class="cls-1" d="M61,7.15a2.27,2.27,0,0,1-1,.86,3.31,3.31,0,0,1-1.54.33,3.7,3.7,0,0,1-2.26-.67,2.4,2.4,0,0,1-1-1.86h2.09a1.1,1.1,0,0,0,.33.72,1,1,0,0,0,.72.27.84.84,0,0,0,.6-.21A.74.74,0,0,0,59.25,6a.69.69,0,0,0-.2-.52,1.52,1.52,0,0,0-.5-.34c-.2-.09-.47-.19-.83-.32a8.4,8.4,0,0,1-1.25-.51,2.25,2.25,0,0,1-.84-.73,2.1,2.1,0,0,1-.35-1.27,2.2,2.2,0,0,1,.36-1.26,2.43,2.43,0,0,1,1-.81A3.67,3.67,0,0,1,58.15,0a3.37,3.37,0,0,1,2.16.64,2.47,2.47,0,0,1,.9,1.77H59.08a1.06,1.06,0,0,0-.29-.63.86.86,0,0,0-.64-.24.84.84,0,0,0-.56.18.71.71,0,0,0-.21.55.65.65,0,0,0,.19.48,1.28,1.28,0,0,0,.48.33c.19.09.46.19.82.32a8.29,8.29,0,0,1,1.28.53,2.42,2.42,0,0,1,.85.75A2.14,2.14,0,0,1,61.36,6,2.21,2.21,0,0,1,61,7.15Z"/><path class="cls-1" d="M64.42,1.69v1.7h2.74V4.88H64.42v1.8h3.09V8.26H62.45V.13h5.06V1.69Z"/><path class="cls-1" d="M75.84,8.26h-2l-3.29-5v5h-2V.13h2l3.29,5v-5h2Z"/><path class="cls-1" d="M83,.13V1.69h-2.2V8.26h-2V1.69H76.67V.13Z"/><path class="cls-1" d="M95.31.18V8.26h-2v-5L91.6,8.26H89.9L88.14,3.2V8.26h-2V.18h2.4l2.2,5.63L92.92.18Z"/><path class="cls-1" d="M103.69.13l-2.82,5.42V8.26h-2V5.55L96.08.13h2.25L99.9,3.44,101.46.13Z"/><path class="cls-1" d="M117.8.13l-1.94,8.13h-2.44l-1.3-5.44-1.31,5.44h-2.44L106.43.13h2.14l1,5.88L111,.13h2.15L114.62,6l1-5.88Z"/><path class="cls-1" d="M124.78.53A3.92,3.92,0,0,1,126.26,2a4.25,4.25,0,0,1,.54,2.14,4.26,4.26,0,0,1-.54,2.15,4,4,0,0,1-1.49,1.49,4,4,0,0,1-2.07.54,4.11,4.11,0,0,1-2.08-.54,3.92,3.92,0,0,1-1.48-1.49,4.17,4.17,0,0,1-.55-2.15A4.16,4.16,0,0,1,119.14,2,4,4,0,0,1,120.62.53a4.35,4.35,0,0,1,4.16,0Zm-3.62,1.92a2.45,2.45,0,0,0-.57,1.71,2.43,2.43,0,0,0,.57,1.7,1.94,1.94,0,0,0,1.54.64,2,2,0,0,0,1.53-.64,2.43,2.43,0,0,0,.57-1.7,2.44,2.44,0,0,0-.57-1.7,2,2,0,0,0-1.53-.63A2,2,0,0,0,121.16,2.45Z"/><path class="cls-1" d="M132.08,8.26l-1.76-3.07h-.45V8.26h-2V.13h3.35a3.69,3.69,0,0,1,1.64.33,2.39,2.39,0,0,1,1,.91,2.65,2.65,0,0,1,.33,1.33,2.36,2.36,0,0,1-.49,1.51,2.48,2.48,0,0,1-1.42.85l1.93,3.2Zm-2.21-4.42h1.22a1.23,1.23,0,0,0,.86-.26,1,1,0,0,0,.28-.76,1,1,0,0,0-.28-.76,1.17,1.17,0,0,0-.86-.28h-1.22Z"/><path class="cls-1" d="M139.05,4.1l3.27,4.16h-2.38l-2.76-3.65V8.26h-2V.13h2V3.7L140,.13h2.35Z"/><path class="cls-1" d="M11.25,24.73H5.16l-1,3H0L6,11.54h4.53l6,16.15H12.27Zm-1-3-2-6-2.05,6Z"/><path class="cls-1" d="M29,25.48a4.56,4.56,0,0,1-1.94,1.73,6.78,6.78,0,0,1-3.09.64,7.27,7.27,0,0,1-4.51-1.33,4.81,4.81,0,0,1-1.93-3.73h4.18a2.17,2.17,0,0,0,.66,1.45,2,2,0,0,0,1.44.53A1.69,1.69,0,0,0,25,24.36a1.44,1.44,0,0,0,.44-1.11,1.4,1.4,0,0,0-.4-1,3,3,0,0,0-1-.68c-.4-.18-.95-.39-1.66-.64a19.69,19.69,0,0,1-2.52-1,4.69,4.69,0,0,1-1.68-1.47,4.24,4.24,0,0,1-.7-2.54,4.27,4.27,0,0,1,.73-2.51,4.71,4.71,0,0,1,2-1.62,7.37,7.37,0,0,1,3-.57,6.7,6.7,0,0,1,4.32,1.29A4.94,4.94,0,0,1,29.36,16H25.1a2.15,2.15,0,0,0-.58-1.27,1.71,1.71,0,0,0-1.28-.47,1.65,1.65,0,0,0-1.11.36,1.35,1.35,0,0,0-.43,1.08,1.38,1.38,0,0,0,.38,1,2.88,2.88,0,0,0,1,.66c.39.17.94.38,1.66.64A18.76,18.76,0,0,1,27.25,19,5,5,0,0,1,29,20.54a4.34,4.34,0,0,1,.71,2.57A4.54,4.54,0,0,1,29,25.48Z"/><path class="cls-1" d="M48.14,11.42v3.13H43.72V27.69h-4V14.55H35.39V11.42Z"/><path class="cls-1" d="M53.73,14.55V18h5.5v3h-5.5v3.61h6.19v3.15H49.8V11.42H59.92v3.13Z"/><path class="cls-1" d="M73.19,25.48a4.56,4.56,0,0,1-1.94,1.73,6.78,6.78,0,0,1-3.09.64,7.27,7.27,0,0,1-4.51-1.33,4.81,4.81,0,0,1-1.93-3.73H65.9a2.17,2.17,0,0,0,.66,1.45,2,2,0,0,0,1.44.53,1.69,1.69,0,0,0,1.19-.41,1.44,1.44,0,0,0,.44-1.11,1.4,1.4,0,0,0-.4-1,3,3,0,0,0-1-.68c-.4-.18-1-.39-1.66-.64a19.69,19.69,0,0,1-2.52-1,4.69,4.69,0,0,1-1.68-1.47,4.24,4.24,0,0,1-.7-2.54,4.27,4.27,0,0,1,.73-2.51,4.71,4.71,0,0,1,2-1.62,7.37,7.37,0,0,1,3-.57,6.7,6.7,0,0,1,4.32,1.29A4.94,4.94,0,0,1,73.54,16H69.28a2.15,2.15,0,0,0-.58-1.27,1.71,1.71,0,0,0-1.28-.47,1.65,1.65,0,0,0-1.11.36,1.35,1.35,0,0,0-.43,1.08,1.38,1.38,0,0,0,.38,1,2.88,2.88,0,0,0,.95.66c.39.17.94.38,1.66.64A18.76,18.76,0,0,1,71.43,19a5,5,0,0,1,1.7,1.51,4.34,4.34,0,0,1,.71,2.57A4.54,4.54,0,0,1,73.19,25.48Z"/><path class="cls-1" d="M87.72,11.42v3.13H83.3V27.69h-4V14.55H75V11.42Z"/><path class="cls-1" d="M99.45,24.73H93.36l-1,3H88.2l6-16.15H98.7l6,16.15h-4.18Zm-1-3-2-6-2,6Z"/><path class="cls-1" d="M118.26,20.74a3.89,3.89,0,0,1,.87,2.51,4.06,4.06,0,0,1-1.39,3.27,6.06,6.06,0,0,1-4,1.17h-7.57V11.42h7.39a6,6,0,0,1,3.84,1.09,3.7,3.7,0,0,1,1.36,3.08A3.8,3.8,0,0,1,118,18a3.64,3.64,0,0,1-2,1.28A4,4,0,0,1,118.26,20.74Zm-8.15-2.67h2.57c1.37,0,2-.58,2-1.74s-.7-1.75-2.09-1.75h-2.53Zm5,4.63a1.72,1.72,0,0,0-.57-1.37,2.45,2.45,0,0,0-1.64-.49h-2.78v3.65h2.8C114.37,24.49,115.1,23.9,115.1,22.7Z"/><path class="cls-1" d="M125.13,24.68h5.25v3H121.2V11.42h3.93Z"/><path class="cls-1" d="M136.13,14.55V18h5.5v3h-5.5v3.61h6.19v3.15H132.2V11.42h10.12v3.13Z"/><path class="cls-1" d="M9.37,41.27H4.62l-.8,2.31H.59L5.24,31H8.78l4.65,12.6H10.16Zm-.79-2.34L7,34.26,5.4,38.93Z"/><path class="cls-1" d="M25.89,43.58H22.82l-5.13-7.79v7.79H14.62V30.89h3.07l5.13,7.86V30.89h3.07Z"/><path class="cls-1" d="M38.63,40.52a5.58,5.58,0,0,1-2.29,2.25,7.33,7.33,0,0,1-3.53.81H28V30.89h4.8a7.46,7.46,0,0,1,3.54.79,5.48,5.48,0,0,1,2.28,2.22,7.25,7.25,0,0,1,0,6.62Zm-3.3-.64a3.52,3.52,0,0,0,1-2.67,3.56,3.56,0,0,0-1-2.68,3.88,3.88,0,0,0-2.79-1H31.08v7.26h1.46A3.84,3.84,0,0,0,35.33,39.88Z"/><path class="cls-1" d="M53.89,30.89v2.44H50.44V43.58H47.35V33.33H43.94V30.89Z"/><path class="cls-1" d="M66.15,30.89V43.58H63.06V38.29H58.25v5.29H55.18V30.89h3.07v4.92h4.81V30.89Z"/><path class="cls-1" d="M71.34,33.33V36h4.29V38.3H71.34v2.82h4.83v2.46h-7.9V30.89h7.9v2.44Z"/><path class="cls-1" d="M84.43,43.58l-2.75-4.79H81v4.79H77.91V30.89h5.25a5.66,5.66,0,0,1,2.55.52,3.62,3.62,0,0,1,1.56,1.43,4,4,0,0,1,.52,2.07A3.66,3.66,0,0,1,87,37.26a3.9,3.9,0,0,1-2.22,1.33l3,5ZM81,36.69h1.91a1.88,1.88,0,0,0,1.34-.41,1.54,1.54,0,0,0,.44-1.19,1.62,1.62,0,0,0-.44-1.19,1.89,1.89,0,0,0-1.34-.43H81Z"/><path class="cls-1" d="M92.41,33.33V36H96.7V38.3H92.41v2.82h4.83v2.46H89.33V30.89h7.91v2.44Z"/><path class="cls-1" d="M107.26,30.89v2.44h-5.21v2.78h4v2.34h-4v5.13H99V30.89Z"/><path class="cls-1" d="M118.13,31.52a6.2,6.2,0,0,1,2.31,2.32,6.67,6.67,0,0,1,.84,3.35,6.76,6.76,0,0,1-.85,3.36,6.15,6.15,0,0,1-2.32,2.32,6.67,6.67,0,0,1-6.48,0,6.08,6.08,0,0,1-2.32-2.32,6.66,6.66,0,0,1-.85-3.36,6.57,6.57,0,0,1,.85-3.35,6.15,6.15,0,0,1,2.32-2.32,6.46,6.46,0,0,1,3.24-.83A6.53,6.53,0,0,1,118.13,31.52Zm-5.66,3a3.84,3.84,0,0,0-.89,2.67,3.85,3.85,0,0,0,.89,2.66,3.39,3.39,0,0,0,4.79,0,3.8,3.8,0,0,0,.89-2.66,3.85,3.85,0,0,0-.88-2.66,3.42,3.42,0,0,0-4.8,0Z"/><path class="cls-1" d="M129.52,43.58l-2.75-4.79h-.7v4.79H123V30.89h5.25a5.66,5.66,0,0,1,2.55.52,3.62,3.62,0,0,1,1.56,1.43,4,4,0,0,1,.52,2.07,3.72,3.72,0,0,1-.76,2.35,3.9,3.9,0,0,1-2.22,1.33l3,5Zm-3.45-6.89H128a1.88,1.88,0,0,0,1.34-.41,1.54,1.54,0,0,0,.43-1.19,1.58,1.58,0,0,0-.44-1.19,1.86,1.86,0,0,0-1.33-.43h-1.91Z"/><path class="cls-1" d="M137.49,33.33V36h4.3V38.3h-4.3v2.82h4.83v2.46h-7.9V30.89h7.9v2.44Z"/><path class="cls-1" d="M13.35,46.69l-2.18,9.12H8.44L7,49.7,5.51,55.81H2.77L.59,46.69H3l1.18,6.6,1.6-6.6H8.18l1.6,6.6L11,46.69Z"/><path class="cls-1" d="M16.72,46.69v9.12H14.51V46.69Z"/><path class="cls-1" d="M20.45,54.12h2.94v1.69H18.24V46.69h2.21Z"/><path class="cls-1" d="M26.62,54.12h2.94v1.69H24.41V46.69h2.21Z"/><path class="cls-1" d="M39.94,51.91a2.19,2.19,0,0,1,.48,1.41,2.27,2.27,0,0,1-.78,1.83,3.38,3.38,0,0,1-2.24.66H33.16V46.69H37.3a3.43,3.43,0,0,1,2.16.6,2.35,2.35,0,0,1,.32,3.1,2,2,0,0,1-1.15.72A2.31,2.31,0,0,1,39.94,51.91Zm-4.58-1.5h1.45c.77,0,1.15-.32,1.15-1s-.39-1-1.18-1H35.36Zm2.8,2.6a.94.94,0,0,0-.32-.77,1.32,1.32,0,0,0-.91-.28H35.36v2h1.58C37.76,54,38.16,53.68,38.16,53Z"/><path class="cls-1" d="M43.79,48.44v1.91h3.08V52H43.79v2h3.47v1.77H41.58V46.69h5.68v1.75Z"/><path class="cls-1" d="M57.65,46.69v1.75H55.17v7.37H53V48.44H50.5V46.69Z"/><path class="cls-1" d="M63.26,55.81l-2-3.45h-.5v3.45h-2.2V46.69h3.76a4.08,4.08,0,0,1,1.84.37,2.65,2.65,0,0,1,1.12,1,3,3,0,0,1,.37,1.5,2.64,2.64,0,0,1-.55,1.69,2.77,2.77,0,0,1-1.59.95l2.17,3.59Zm-2.48-5h1.37a1.36,1.36,0,0,0,1-.29,1.32,1.32,0,0,0,0-1.71,1.35,1.35,0,0,0-1-.31H60.78Z"/><path class="cls-1" d="M72.43,54.14H69l-.56,1.67H66.12l3.35-9.06H72l3.34,9.06H73Zm-.57-1.67-1.13-3.36-1.15,3.36Z"/><path class="cls-1" d="M84.3,55.81H82.1l-3.69-5.6v5.6H76.2V46.69h2.21l3.69,5.65V46.69h2.2Z"/><path class="cls-1" d="M92,54.57a2.56,2.56,0,0,1-1.08,1,3.86,3.86,0,0,1-1.74.36,4.11,4.11,0,0,1-2.53-.75,2.72,2.72,0,0,1-1.08-2.09h2.35a1.23,1.23,0,0,0,.37.81,1.12,1.12,0,0,0,.8.3.94.94,0,0,0,.67-.23.81.81,0,0,0,.25-.62.78.78,0,0,0-.23-.58,1.5,1.5,0,0,0-.56-.38q-.33-.15-.93-.36a13.55,13.55,0,0,1-1.41-.57A2.56,2.56,0,0,1,86,50.6a2.39,2.39,0,0,1-.4-1.42A2.35,2.35,0,0,1,86,47.77a2.53,2.53,0,0,1,1.14-.91,4.15,4.15,0,0,1,1.67-.32,3.72,3.72,0,0,1,2.42.73,2.71,2.71,0,0,1,1,2H89.83a1.27,1.27,0,0,0-.33-.71,1,1,0,0,0-.72-.27.92.92,0,0,0-.63.21.78.78,0,0,0-.23.6.77.77,0,0,0,.21.55,1.58,1.58,0,0,0,.53.37q.33.15.93.36A10.79,10.79,0,0,1,91,51a2.79,2.79,0,0,1,1,.84,2.41,2.41,0,0,1,.4,1.45A2.5,2.5,0,0,1,92,54.57Z"/><path class="cls-1" d="M95.81,52.61v3.2h-2.2V46.69h3.57a3.48,3.48,0,0,1,2.48.8,2.88,2.88,0,0,1,.85,2.18,3,3,0,0,1-.38,1.51,2.74,2.74,0,0,1-1.13,1,4,4,0,0,1-1.82.38Zm2.45-2.94c0-.8-.44-1.2-1.33-1.2H95.81v2.37h1.12C97.82,50.84,98.26,50.45,98.26,49.67Z"/><path class="cls-1" d="M107.24,54.14h-3.42l-.56,1.67h-2.33l3.35-9.06h2.54l3.34,9.06h-2.35Zm-.57-1.67-1.13-3.36-1.15,3.36Z"/><path class="cls-1" d="M115.7,55.81l-2-3.45h-.5v3.45H111V46.69h3.77a4.06,4.06,0,0,1,1.83.37,2.59,2.59,0,0,1,1.12,1,3,3,0,0,1,.38,1.5,2.7,2.7,0,0,1-.55,1.69,2.84,2.84,0,0,1-1.59.95l2.16,3.59Zm-2.48-5h1.37a1.33,1.33,0,0,0,1-.29,1.1,1.1,0,0,0,.31-.86,1.14,1.14,0,0,0-.31-.85,1.37,1.37,0,0,0-1-.31h-1.37Z"/><path class="cls-1" d="M121.42,48.44v1.91h3.09V52h-3.09v2h3.47v1.77h-5.67V46.69h5.67v1.75Z"/><path class="cls-1" d="M134.25,55.81H132l-3.69-5.6v5.6h-2.21V46.69h2.21L132,52.34V46.69h2.21Z"/><path class="cls-1" d="M142.32,46.69v1.75h-2.47v7.37h-2.22V48.44h-2.45V46.69Z"/></g></g></svg>