<svg xmlns="http://www.w3.org/2000/svg" viewBox="0 0 70.87 66.17"><defs><style>.cls-1{fill:#1d1d1b;}.cls-2{fill:#949ed0;}</style></defs><title>Middel 14</title><g id="Laag_2" data-name="Laag 2"><g id="Laag_1-2" data-name="Laag 1"><path class="cls-1" d="M4.48,0V18.52H0V0Z"/><path class="cls-1" d="M38,0,33.55,18.52H28L25,6.13l-3,12.39H16.5L12.07,0h4.87l2.39,13.41L22.57,0h4.9l3.25,13.41L33.13,0Z"/><path class="cls-1" d="M44.81,0V18.52H40.33V0Z"/><path class="cls-1" d="M52.38,15.08h6v3.44H47.9V0h4.48Z"/><path class="cls-1" d="M64.89,15.08h6v3.44H60.42V0h4.47Z"/><path class="cls-2" d="M6.13,33.47,3.55,29H2.89v4.5H0V21.54H4.93a5.26,5.26,0,0,1,2.4.49A3.37,3.37,0,0,1,8.8,23.37a3.92,3.92,0,0,1,.49,1.95,3.45,3.45,0,0,1-.72,2.21,3.67,3.67,0,0,1-2.09,1.25l2.84,4.69ZM2.89,27H4.68a1.81,1.81,0,0,0,1.26-.38,1.72,1.72,0,0,0,0-2.24A1.71,1.71,0,0,0,4.68,24H2.89Z"/><path class="cls-2" d="M13.63,23.83v2.5h4v2.18h-4v2.65h4.54v2.31H10.74V21.54h7.43v2.29Z"/><path class="cls-2" d="M27.9,31.85a3.39,3.39,0,0,1-1.42,1.27,5,5,0,0,1-2.27.47,5.31,5.31,0,0,1-3.31-1,3.52,3.52,0,0,1-1.41-2.73h3.07A1.57,1.57,0,0,0,23,30.94a1.49,1.49,0,0,0,1.06.39A1.21,1.21,0,0,0,25,31a1.06,1.06,0,0,0,.32-.81,1,1,0,0,0-.29-.76,2.2,2.2,0,0,0-.74-.5c-.29-.13-.69-.29-1.21-.47a15.19,15.19,0,0,1-1.85-.75A3.32,3.32,0,0,1,20,26.66a3.09,3.09,0,0,1-.52-1.87A3.17,3.17,0,0,1,20,23a3.51,3.51,0,0,1,1.5-1.19,5.5,5.5,0,0,1,2.18-.41,4.91,4.91,0,0,1,3.17.95,3.64,3.64,0,0,1,1.33,2.6H25a1.62,1.62,0,0,0-.43-.94,1.27,1.27,0,0,0-.94-.35,1.23,1.23,0,0,0-.82.27,1,1,0,0,0-.31.8,1,1,0,0,0,.28.71,2.25,2.25,0,0,0,.7.49c.28.12.69.28,1.22.47a12.69,12.69,0,0,1,1.87.77,3.62,3.62,0,0,1,1.25,1.1,3.17,3.17,0,0,1,.52,1.89A3.3,3.3,0,0,1,27.9,31.85Z"/><path class="cls-2" d="M32.87,29.29v4.18H30V21.54h4.67a4.59,4.59,0,0,1,3.25,1.05A3.74,3.74,0,0,1,39,25.44a3.94,3.94,0,0,1-.5,2A3.4,3.4,0,0,1,37,28.79a5.2,5.2,0,0,1-2.38.5Zm3.21-3.85c0-1.05-.58-1.57-1.74-1.57H32.87V27h1.47Q36.08,27,36.08,25.44Z"/><path class="cls-2" d="M43.33,23.83v2.5h4v2.18h-4v2.65h4.54v2.31H40.44V21.54h7.43v2.29Z"/><path class="cls-2" d="M58.73,22.62a5.52,5.52,0,0,1,1.94,3.24H57.61a2.74,2.74,0,0,0-1-1.3,2.84,2.84,0,0,0-1.66-.47,2.54,2.54,0,0,0-2,.92,3.75,3.75,0,0,0-.78,2.49A3.69,3.69,0,0,0,52.87,30a2.54,2.54,0,0,0,2,.92,2.92,2.92,0,0,0,1.66-.47,2.81,2.81,0,0,0,1-1.29h3.06a5.55,5.55,0,0,1-1.94,3.24A5.81,5.81,0,0,1,55,33.57a6,6,0,0,1-3.06-.76,5.29,5.29,0,0,1-2-2.16,7.27,7.27,0,0,1,0-6.31,5.26,5.26,0,0,1,2-2.15A5.9,5.9,0,0,1,55,21.42,5.81,5.81,0,0,1,58.73,22.62Z"/><path class="cls-2" d="M70.87,21.54v2.29H67.62v9.64h-2.9V23.83H61.51V21.54Z"/><path class="cls-1" d="M7.74,36.58v1.9H5.06v8H2.65v-8H0v-1.9Z"/><path class="cls-1" d="M17.28,36.58v9.88h-2.4V42.34H11.13v4.12H8.74V36.58h2.39v3.83h3.75V36.58Z"/><path class="cls-1" d="M21.32,38.48v2.07h3.34v1.8H21.32v2.19h3.75v1.92H18.93V36.58h6.14v1.9Z"/><path class="cls-2" d="M31.54,36.58v5.7A2.25,2.25,0,0,0,32,43.77a1.84,1.84,0,0,0,2.56,0A2.25,2.25,0,0,0,35,42.28v-5.7h2.39v5.7a4.59,4.59,0,0,1-.55,2.35,3.5,3.5,0,0,1-1.49,1.44,4.58,4.58,0,0,1-2.13.48,4.38,4.38,0,0,1-2.09-.47,3.42,3.42,0,0,1-1.43-1.44,5,5,0,0,1-.51-2.36v-5.7Z"/><path class="cls-2" d="M45.66,45.12a2.9,2.9,0,0,1-1.17,1,4.18,4.18,0,0,1-1.88.39,4.41,4.41,0,0,1-2.74-.81,2.9,2.9,0,0,1-1.17-2.26h2.54a1.3,1.3,0,0,0,.4.88,1.17,1.17,0,0,0,.87.32,1,1,0,0,0,.72-.25.87.87,0,0,0,.27-.67.88.88,0,0,0-.24-.63,2,2,0,0,0-.61-.41,9.83,9.83,0,0,0-1-.38,13.87,13.87,0,0,1-1.53-.63,2.86,2.86,0,0,1-1-.89,2.62,2.62,0,0,1-.42-1.54,2.67,2.67,0,0,1,.44-1.53,2.91,2.91,0,0,1,1.24-1,4.5,4.5,0,0,1,1.81-.34,4.07,4.07,0,0,1,2.62.78,3,3,0,0,1,1.1,2.15H43.29a1.32,1.32,0,0,0-.36-.78,1,1,0,0,0-.77-.28,1,1,0,0,0-.68.22.92.92,0,0,0,0,1.25,1.72,1.72,0,0,0,.58.4l1,.39a11.84,11.84,0,0,1,1.55.64,3,3,0,0,1,1,.91,2.61,2.61,0,0,1,.44,1.57A2.79,2.79,0,0,1,45.66,45.12Z"/><path class="cls-2" d="M49.77,38.48v2.07h3.34v1.8H49.77v2.19h3.76v1.92H47.38V36.58h6.15v1.9Z"/><path class="cls-2" d="M60,46.46l-2.14-3.73h-.55v3.73H54.89V36.58H59A4.41,4.41,0,0,1,61,37a2.78,2.78,0,0,1,1.21,1.11,3.16,3.16,0,0,1,.41,1.61,2.84,2.84,0,0,1-.6,1.83,3,3,0,0,1-1.72,1l2.35,3.89Zm-2.69-5.37h1.49a1.47,1.47,0,0,0,1-.31,1.19,1.19,0,0,0,.34-.93,1.25,1.25,0,0,0-.34-.92,1.42,1.42,0,0,0-1-.34H57.27Z"/><path class="cls-2" d="M70.47,45.12a2.9,2.9,0,0,1-1.17,1,4.18,4.18,0,0,1-1.88.39,4.41,4.41,0,0,1-2.74-.81,2.94,2.94,0,0,1-1.18-2.26h2.55a1.34,1.34,0,0,0,.39.88,1.21,1.21,0,0,0,.88.32,1,1,0,0,0,.72-.25.87.87,0,0,0,.27-.67.88.88,0,0,0-.24-.63,2,2,0,0,0-.61-.41,9.83,9.83,0,0,0-1-.38,13.87,13.87,0,0,1-1.53-.63,2.86,2.86,0,0,1-1-.89,2.62,2.62,0,0,1-.42-1.54,2.67,2.67,0,0,1,.44-1.53,2.91,2.91,0,0,1,1.24-1A4.5,4.5,0,0,1,67,36.43a4.07,4.07,0,0,1,2.62.78,3,3,0,0,1,1.1,2.15H68.1a1.32,1.32,0,0,0-.36-.78A1,1,0,0,0,67,38.3a1,1,0,0,0-.68.22.92.92,0,0,0,0,1.25,1.72,1.72,0,0,0,.58.4l1,.39a11.84,11.84,0,0,1,1.55.64,3,3,0,0,1,1,.91,2.61,2.61,0,0,1,.44,1.57A2.79,2.79,0,0,1,70.47,45.12Z"/><path class="cls-2" d="M14.54,66h-4L4,56V66H0V49.64H4l6.62,10.14V49.64h4Z"/><path class="cls-2" d="M21.23,52.79v3.43h5.53v3H21.23v3.63h6.23V66H17.27V49.64H27.46v3.15Z"/><path class="cls-2" d="M33.66,52.79v3.43H39.2v3H33.66v3.63h6.23V66H29.7V49.64H39.89v3.15Z"/><path class="cls-2" d="M55.83,62.07a7.25,7.25,0,0,1-3,2.9,9.41,9.41,0,0,1-4.55,1H42.14V49.64h6.18a9.59,9.59,0,0,1,4.56,1,7.16,7.16,0,0,1,2.95,2.87,9.37,9.37,0,0,1,0,8.54Zm-4.26-.83a5.29,5.29,0,0,0,0-6.9A5,5,0,0,0,48,53.12H46.09v9.35H48A5,5,0,0,0,51.57,61.24Z"/><path class="cls-2" d="M70.21,63.79a4.68,4.68,0,0,1-1.95,1.74,6.84,6.84,0,0,1-3.11.64,7.31,7.31,0,0,1-4.54-1.34,4.82,4.82,0,0,1-1.94-3.75h4.21a2.19,2.19,0,0,0,.66,1.46,2,2,0,0,0,1.45.53,1.71,1.71,0,0,0,1.2-.41,1.48,1.48,0,0,0,.44-1.12,1.44,1.44,0,0,0-.4-1,3.32,3.32,0,0,0-1-.68c-.4-.18-1-.39-1.67-.64a19.77,19.77,0,0,1-2.53-1,4.57,4.57,0,0,1-1.69-1.48,4.81,4.81,0,0,1,0-5.08,4.71,4.71,0,0,1,2-1.63,7.43,7.43,0,0,1,3-.57,6.7,6.7,0,0,1,4.34,1.3,5,5,0,0,1,1.82,3.56H66.28A2.16,2.16,0,0,0,65.69,53a1.93,1.93,0,0,0-2.41-.11A1.38,1.38,0,0,0,62.86,54a1.34,1.34,0,0,0,.38,1,2.69,2.69,0,0,0,1,.66c.38.17.94.39,1.67.65a18.84,18.84,0,0,1,2.57,1.06,4.9,4.9,0,0,1,1.71,1.51,4.35,4.35,0,0,1,.72,2.6A4.49,4.49,0,0,1,70.21,63.79Z"/></g></g></svg>